{
.appVersion = "1192";
DisplayStrings = (
"JL£",
"C¢",
"9/two.ss01 #"
);
customParameters = (
{
name = Axes;
value = (
{
Name = Width;
Tag = wdth;
},
{
Name = Slant;
Tag = slnt;
}
);
}
);
date = "2019-02-24 09:28:57 +0000";
designer = "Lauren Herda";
designerURL = "http://www.herda.me/";
familyName = "Lakehurst Gothic";
featurePrefixes = (
{
automatic = 1;
code = "languagesystem DFLT dflt;\012languagesystem latn dflt;\012languagesystem latn ROM;\012languagesystem latn MOL;\012";
name = Languagesystems;
}
);
features = (
{
automatic = 1;
code = "feature locl;\012feature zero;\012feature salt;\012feature ss01;\012";
name = aalt;
},
{
automatic = 1;
code = "script latn;\012language ROM;\012sub Scedilla by Scommaaccent;\012sub Tcedilla by Tcommaaccent;\012language MOL;\012sub Scedilla by Scommaaccent;\012sub Tcedilla by Tcommaaccent;\012";
name = locl;
},
{
automatic = 1;
code = "sub zero by zero.zero;\012";
name = zero;
},
{
automatic = 1;
code = "sub I by I.ss01;\012sub one by one.ss01;\012sub ampersand by ampersand.ss01;\012";
name = salt;
},
{
automatic = 1;
code = "sub I by I.ss01;\012sub one by one.ss01;\012sub ampersand by ampersand.ss01;\012";
name = ss01;
}
);
fontMaster = (
{
ascender = 800;
capHeight = 700;
custom = Medium;
descender = -200;
horizontalStems = (
70,
140
);
iconName = Bold_Condensed;
id = "E82D559A-267E-4BF3-BBA1-0778DA3FF57C";
userData = {
GSOffsetHorizontal = 35;
GSOffsetMakeStroke = 1;
GSOffsetPosition = 0.75;
GSOffsetProportional = 1;
GSOffsetVertical = 35;
};
verticalStems = (
70,
140
);
weightValue = 500;
widthValue = 0;
xHeight = 500;
},
{
ascender = 800;
capHeight = 700;
custom = Expanded;
descender = -200;
guideLines = (
{
angle = 90;
locked = 1;
position = "{70, 800}";
},
{
angle = 90;
locked = 1;
position = "{210, 800}";
},
{
angle = 90;
locked = 1;
position = "{350, 800}";
},
{
angle = 90;
locked = 1;
position = "{490, 800}";
},
{
angle = 90;
locked = 1;
position = "{630, 800}";
},
{
angle = 90;
locked = 1;

glyphs = (
{
glyphname = A;
lastChange = "2019-03-04 07:08:06 +0000";
layers = (
{
anchors = (
{
name = above;
position = "{464, 875}";
},
{
name = lowerRight;
position = "{829, 0}";
}
);
layerId = "72FC769E-0471-4EB2-9C9D-CA7FFB11AFC9";
paths = (
{
closed = 1;
nodes = (
"178 0 LINE",
"480 571 LINE",
"450 571 LINE",
"752 0 LINE",
"910 0 LINE",
"540 700 LINE",
"390 700 LINE",
"20 0 LINE"
);
},
{
closed = 1;
nodes = (
"726 145 LINE",
"726 275 LINE",
"203 275 LINE",
"203 145 LINE"
);
}
);
width = 930;
},
{
anchors = (
{
name = above;
position = "{391, 875}";
},
{
name = lowerRight;
position = "{690, 0}";
}
);
hints = (
{
horizontal = 1;
origin = "{1, 3}";
target = "{1, 2}";
type = Stem;
}
);
layerId = "E82D559A-267E-4BF3-BBA1-0778DA3FF57C";
paths = (
{
closed = 1;
nodes = (
"174 0 LINE",
"409 577 LINE",
"381 577 LINE",
"616 0 LINE",
"770 0 LINE",
"470 700 LINE",
"320 700 LINE",
"20 0 LINE"
);
},
{
closed = 1;
nodes = (
"596 145 LINE",
"596 275 LINE",
"193 275 LINE",
"193 145 LINE"
);
}
);
width = 790;
},
{
associatedMasterId = "72FC769E-0471-4EB2-9C9D-CA7FFB11AFC9";
layerId = "26724774-F27D-4AF7-90A0-933BB7C1BE55";
width = 600;
},
{
anchors = (
{
name = above;
position = "{569, 875}";
},
{
name = lowerRight;
position = "{1038, 0}";
}
);
layerId = "B8F43E33-4D80-4AEE-B4E2-DC92E4FCAAE5";
paths = (
{
closed = 1;
nodes = (
"190 0 LINE",
"588 587 LINE",
"552 587 LINE",
"950 0 LINE",
"1120 0 LINE",
"645 700 LINE",
"495 700 LINE",
"20 0 LINE"
);
},
{
closed = 1;
nodes = (
"889 145 LINE",
"889 275 LINE",
"250 275 LINE",
"250 145 LINE"
);
}
);
width = 1140;
},
{
anchors = (
{
name = above;
position = "{527, 875}";
},
{
name = lowerRight;
position = "{638, 0}";
}
);
layerId = "198E78DA-6138-42C0-8847-C36925CEE918";
paths = (
{
closed = 1;
nodes = (
"123 0 LINE",
"481 577 LINE",
"453 577 LINE",
"565 0 LINE",
"717 0 LINE",
"566 700 LINE",
"416 700 LINE",
"-33 0 LINE"
);
},
{
closed = 1;
nodes = (
"575 145 LINE",
"602 275 LINE",
"199 275 LINE",
"172 145 LINE"
);
}
);
width = 790;
}
);
leftKerningGroup = A;
rightKerningGroup = A;
unicode = "0041,0061";
},
{
glyphname = AE;
lastChange = "2019-03-04 05:09:32 +0000";
layers = (
{
layerId = "72FC769E-0471-4EB2-9C9D-CA7FFB11AFC9";
paths = (
{
closed = 1;
nodes = (
"181 0 LINE",
"486 577 LINE",
"540 700 LINE",
"390 700 LINE",
"20 0 LINE"
);
},
{
closed = 1;
nodes = (
"549 145 LINE",
"549 275 LINE",
"207 275 LINE",
"207 145 LINE"
);
},
{
closed = 1;
nodes = (
"969 0 LINE",
"969 140 LINE",
"549 140 LINE",
"549 0 LINE"
);
},
{
closed = 1;
nodes = (
"619 0 LINE",
"619 700 LINE",
"479 700 LINE",
"479 0 LINE"
);
},
{
closed = 1;
nodes = (
"899 280 LINE",
"899 420 LINE",
"549 420 LINE",
"549 280 LINE"
);
},
{
closed = 1;
nodes = (
"969 560 LINE",
"969 700 LINE",
"389 700 LINE",
"389 560 LINE"
);
}
);
width = 1039;
},
{
hints = (
{
horizontal = 1;
origin = "{0, 4}";
target = "{2, 2}";
type = Stem;
},
{
horizontal = 1;
origin = "{4, 3}";
target = "{4, 2}";
type = Stem;
},
{
horizontal = 1;
origin = "{5, 3}";
target = "{0, 3}";
type = Stem;
},
{
horizontal = 1;
origin = "{1, 3}";
target = "{1, 2}";
type = Stem;
},
{
origin = "{3, 3}";
target = "{3, 0}";
type = Stem;
}
);
layerId = "E82D559A-267E-4BF3-BBA1-0778DA3FF57C";
paths = (
{
closed = 1;
nodes = (
"174 0 LINE",
"409 577 LINE",
"470 700 LINE",
"320 700 LINE",
"20 0 LINE"
);
},
{
closed = 1;
nodes = (
"469 145 LINE",
"469 275 LINE",
"193 275 LINE",
"193 145 LINE"
);
},
{
closed = 1;
nodes = (
"843 0 LINE",
"843 140 LINE",
"473 140 LINE",
"473 0 LINE"
);
},
{
closed = 1;
nodes = (
"543 0 LINE",
"543 700 LINE",
"403 700 LINE",
"403 0 LINE"
);
},
{
closed = 1;
nodes = (
"753 280 LINE",
"753 420 LINE",
"473 420 LINE",
"473 280 LINE"
);
},
{
closed = 1;
nodes = (
"843 560 LINE",
"843 700 LINE",
"333 700 LINE",
"333 560 LINE"
);
}
);
width = 913;
},
{
associatedMasterId = "72FC769E-0471-4EB2-9C9D-CA7FFB11AFC9";
layerId = "26724774-F27D-4AF7-90A0-933BB7C1BE55";
width = 600;
},
{
layerId = "B8F43E33-4D80-4AEE-B4E2-DC92E4FCAAE5";
paths = (
{
closed = 1;
nodes = (
"192 0 LINE",
"602 577 LINE",
"645 700 LINE",
"495 700 LINE",
"20 0 LINE"
);
},
{
closed = 1;
nodes = (
"669 145 LINE",
"669 275 LINE",
"228 275 LINE",
"228 145 LINE"
);
},
{
closed = 1;
nodes = (
"1158 0 LINE",
"1158 140 LINE",
"663 140 LINE",
"663 0 LINE"
);
},
{
closed = 1;
nodes = (
"733 0 LINE",
"733 700 LINE",
"593 700 LINE",
"593 0 LINE"
);
},
{
closed = 1;
nodes = (
"1118 280 LINE",
"1118 420 LINE",
"663 420 LINE",
"663 280 LINE"
);
},
{
closed = 1;
nodes = (
"1158 560 LINE",
"1158 700 LINE",
"533 700 LINE",
"533 560 LINE"
);
}
);
width = 1228;
},
{
layerId = "198E78DA-6138-42C0-8847-C36925CEE918";
paths = (
{
closed = 1;
nodes = (
"123 0 LINE",
"482 577 LINE",
"568 700 LINE",
"416 700 LINE",
"-33 0 LINE"
);
},
{
closed = 1;
nodes = (
"448 145 LINE",
"475 275 LINE",
"199 275 LINE",
"172 145 LINE"
);
},
{
closed = 1;
nodes = (
"791 0 LINE",
"821 140 LINE",
"451 140 LINE",
"421 0 LINE"
);
},
{
closed = 1;
nodes = (
"491 0 LINE",
"640 700 LINE",
"500 700 LINE",
"351 0 LINE"
);
},
{
closed = 1;
nodes = (
"761 280 LINE",
"790 420 LINE",
"510 420 LINE",
"481 280 LINE"
);
},
{
closed = 1;
nodes = (
"910 560 LINE",
"940 700 LINE",
"430 700 LINE",
"400 560 LINE"
);
}
);
width = 914;
}
);
leftKerningGroup = A;
leftMetricsKey = A;
rightKerningGroup = E;
rightMetricsKey = E;
unicode = "00C6,00E6";
},
{
glyphname = B;
lastChange = "2019-03-04 00:15:17 +0000";
layers = (
{
layerId = "72FC769E-0471-4EB2-9C9D-CA7FFB11AFC9";
paths = (
{
closed = 1;
nodes = (
"700 0 LINE",
"840 70 LINE",
"840 280 LINE",
"738 382 LINE",
"738 318 LINE",
"840 420 LINE",
"840 630 LINE",
"700 700 LINE",
"141 700 LINE",
"141 560 LINE",
"735 560 LINE",
"690 605 LINE",
"690 375 LINE",
"735 420 LINE",
"141 420 LINE",
"141 280 LINE",
"735 280 LINE",
"690 325 LINE",
"690 95 LINE",
"735 140 LINE",
"141 140 LINE",
"141 0 LINE"
);
},
{
closed = 1;
nodes = (
"210 0 LINE",
"210 700 LINE",
"70 700 LINE",
"70 0 LINE"
);
}
);
width = 910;
},
{
hints = (
{
horizontal = 1;
origin = "{1, 3}";
target = "{0, 20}";
type = Stem;
},
{
horizontal = 1;
origin = "{0, 15}";
target = "{0, 14}";
type = Stem;
},
{
horizontal = 1;
origin = "{0, 9}";
target = "{1, 2}";
type = Stem;
},
{
origin = "{1, 3}";
target = "{1, 0}";
type = Stem;
},
{
origin = "{0, 18}";
target = "{0, 1}";
type = Stem;
}
);
layerId = "E82D559A-267E-4BF3-BBA1-0778DA3FF57C";
paths = (
{
closed = 1;
nodes = (
"515 0 LINE",
"655 70 LINE",
"655 280 LINE",
"553 382 LINE",
"553 318 LINE",
"655 420 LINE",
"655 630 LINE",
"515 700 LINE",
"141 700 LINE",
"141 560 LINE",
"550 560 LINE",
"505 605 LINE",
"505 375 LINE",
"550 420 LINE",
"141 420 LINE",
"141 280 LINE",
"550 280 LINE",
"505 325 LINE",
"505 95 LINE",
"550 140 LINE",
"141 140 LINE",
"141 0 LINE"
);
},
{
closed = 1;
nodes = (
"210 0 LINE",
"210 700 LINE",
"70 700 LINE",
"70 0 LINE"
);
}
);
width = 725;
},
{
associatedMasterId = "72FC769E-0471-4EB2-9C9D-CA7FFB11AFC9";
layerId = "26724774-F27D-4AF7-90A0-933BB7C1BE55";
width = 600;
},
{
layerId = "B8F43E33-4D80-4AEE-B4E2-DC92E4FCAAE5";
paths = (
{
closed = 1;
nodes = (
"873 0 LINE",
"1013 70 LINE",
"1013 280 LINE",
"911 382 LINE",
"911 318 LINE",
"1013 420 LINE",
"1013 630 LINE",
"873 700 LINE",
"141 700 LINE",
"141 560 LINE",
"908 560 LINE",
"863 605 LINE",
"863 375 LINE",
"908 420 LINE",
"141 420 LINE",
"141 280 LINE",
"908 280 LINE",
"863 325 LINE",
"863 95 LINE",
"908 140 LINE",
"141 140 LINE",
"141 0 LINE"
);
},
{
closed = 1;
nodes = (
"210 0 LINE",
"210 700 LINE",
"70 700 LINE",
"70 0 LINE"
);
}
);
width = 1084;
},
{
layerId = "198E78DA-6138-42C0-8847-C36925CEE918";
paths = (
{
closed = 1;
nodes = (
"463 0 LINE",
"617 70 LINE",
"660 280 LINE",
"580 382 LINE",
"569 318 LINE",
"692 420 LINE",
"735 630 LINE",
"610 700 LINE",
"237 700 LINE",
"207 560 LINE",
"615 560 LINE",
"580 605 LINE",
"533 375 LINE",
"587 420 LINE",
"177 420 LINE",
"148 280 LINE",
"555 280 LINE",
"520 325 LINE",
"473 95 LINE",
"528 140 LINE",
"118 140 LINE",
"88 0 LINE"
);
},
{
closed = 1;
nodes = (
"157 0 LINE",
"306 700 LINE",
"166 700 LINE",
"17 0 LINE"
);
}
);
width = 726;
}
);
unicode = "0042,0062";
},
{
glyphname = C;
lastChange = "2019-03-04 00:21:24 +0000";
layers = (
{
anchors = (
{
name = above;
position = "{479, 875}";
},
{
name = below;
position = "{455, 0}";
},
{
name = lowerRight;
position = "{630, 0}";
}
);
layerId = "72FC769E-0471-4EB2-9C9D-CA7FFB11AFC9";
paths = (
{
closed = 1;
nodes = (
"700 0 LINE",
"840 70 LINE",
"840 210 LINE",
"700 210 LINE",
"700 95 LINE",
"745 140 LINE",
"165 140 LINE",
"210 95 LINE",
"210 605 LINE",
"165 560 LINE",
"745 560 LINE",
"700 605 LINE",
"700 490 LINE",
"840 490 LINE",
"840 630 LINE",
"700 700 LINE",
"210 700 LINE",
"70 630 LINE",
"70 70 LINE",
"210 0 LINE"
);
}
);
width = 910;
},
{
anchors = (
{
name = above;
position = "{368, 875}";
},
{
name = below;
position = "{367, 0}";
},
{
name = lowerRight;
position = "{485, 0}";
}
);
hints = (
{
horizontal = 1;
origin = "{0, 6}";
target = "{0, 19}";
type = Stem;
},
{
horizontal = 1;
origin = "{0, 16}";
target = "{0, 9}";
type = Stem;
},
{
origin = "{0, 18}";
target = "{0, 19}";
type = Stem;
},
{
origin = "{0, 0}";
target = "{0, 1}";
type = Stem;
}
);
layerId = "E82D559A-267E-4BF3-BBA1-0778DA3FF57C";
paths = (
{
closed = 1;
nodes = (
"525 0 LINE",
"665 70 LINE",
"665 210 LINE",
"525 210 LINE",
"525 95 LINE",
"570 140 LINE",
"165 140 LINE",
"210 95 LINE",
"210 605 LINE",
"165 560 LINE",
"570 560 LINE",
"525 605 LINE",
"525 490 LINE",
"665 490 LINE",
"665 630 LINE",
"525 700 LINE",
"210 700 LINE",
"70 630 LINE",
"70 70 LINE",
"210 0 LINE"
);
}
);
width = 735;
},
{
associatedMasterId = "72FC769E-0471-4EB2-9C9D-CA7FFB11AFC9";
layerId = "26724774-F27D-4AF7-90A0-933BB7C1BE55";
width = 600;
},
{
anchors = (
{
name = above;
position = "{587, 875}";
},
{
name = below;
position = "{587, 0}";
},
{
name = lowerRight;
position = "{823, 0}";
}
);
layerId = "B8F43E33-4D80-4AEE-B4E2-DC92E4FCAAE5";
paths = (
{
closed = 1;
nodes = (
"963 0 LINE",
"1103 70 LINE",
"1103 210 LINE",
"963 210 LINE",
"963 95 LINE",
"1008 140 LINE",
"165 140 LINE",
"210 95 LINE",
"210 605 LINE",
"165 560 LINE",
"1008 560 LINE",
"963 605 LINE",
"963 490 LINE",
"1103 490 LINE",
"1103 630 LINE",
"963 700 LINE",
"210 700 LINE",
"70 630 LINE",
"70 70 LINE",
"210 0 LINE"
);
}
);
width = 1173;
},
{
anchors = (
{
name = above;
position = "{502, 875}";
},
{
name = below;
position = "{315, 0}";
},
{
name = lowerRight;
position = "{433, 0}";
}
);
layerId = "198E78DA-6138-42C0-8847-C36925CEE918";
paths = (
{
closed = 1;
nodes = (
"474 0 LINE",
"628 70 LINE",
"658 210 LINE",
"518 210 LINE",
"494 95 LINE",
"549 140 LINE",
"144 140 LINE",
"179 95 LINE",
"286 605 LINE",
"231 560 LINE",
"636 560 LINE",
"601 605 LINE",
"577 490 LINE",
"717 490 LINE",
"746 630 LINE",
"621 700 LINE",
"306 700 LINE",
"151 630 LINE",
"33 70 LINE",
"159 0 LINE"
);
}
);
width = 737;
}
);
unicode = "0043,0063";
},
{
glyphname = D;
lastChange = "2019-03-04 00:22:16 +0000";
layers = (
{
anchors = (
{
name = above;
position = "{454, 875}";
}
);
layerId = "72FC769E-0471-4EB2-9C9D-CA7FFB11AFC9";
paths = (
{
closed = 1;
nodes = (
"700 0 LINE",
"840 70 LINE",
"840 630 LINE",
"700 700 LINE",
"70 700 LINE",
"70 0 LINE"
);
},
{
closed = 1;
nodes = (
"210 605 LINE",
"165 560 LINE",
"745 560 LINE",
"700 605 LINE",
"700 95 LINE",
"745 140 LINE",
"165 140 LINE",
"210 95 LINE"
);
}
);
width = 910;
},
{
anchors = (
{
name = above;
position = "{366, 875}";
}
);
hints = (
{
horizontal = 1;
origin = "{0, 5}";
target = "{1, 6}";
type = Stem;
},
{
horizontal = 1;
origin = "{1, 1}";
target = "{0, 4}";
type = Stem;
},
{
origin = "{0, 5}";
target = "{1, 7}";
type = Stem;
},
{
origin = "{0, 0}";
target = "{0, 1}";
type = Stem;
}
);
layerId = "E82D559A-267E-4BF3-BBA1-0778DA3FF57C";
paths = (
{
closed = 1;
nodes = (
"525 0 LINE",
"665 70 LINE",
"665 630 LINE",
"525 700 LINE",
"70 700 LINE",
"70 0 LINE"
);
},
{
closed = 1;
nodes = (
"210 605 LINE",
"165 560 LINE",
"570 560 LINE",
"525 605 LINE",
"525 95 LINE",
"570 140 LINE",
"165 140 LINE",
"210 95 LINE"
);
}
);
width = 735;
},
{
associatedMasterId = "72FC769E-0471-4EB2-9C9D-CA7FFB11AFC9";
layerId = "26724774-F27D-4AF7-90A0-933BB7C1BE55";
width = 600;
},
{
anchors = (
{
name = above;
position = "{586, 875}";
}
);
layerId = "B8F43E33-4D80-4AEE-B4E2-DC92E4FCAAE5";
paths = (
{
closed = 1;
nodes = (
"963 0 LINE",
"1103 70 LINE",
"1103 630 LINE",
"963 700 LINE",
"70 700 LINE",
"70 0 LINE"
);
},
{
closed = 1;
nodes = (
"210 605 LINE",
"165 560 LINE",
"1008 560 LINE",
"963 605 LINE",
"963 95 LINE",
"1008 140 LINE",
"165 140 LINE",
"210 95 LINE"
);
}
);
width = 1172.5;
},
{
anchors = (
{
name = above;
position = "{479, 875}";
}
);
layerId = "198E78DA-6138-42C0-8847-C36925CEE918";
paths = (
{
closed = 1;
nodes = (
"473 0 LINE",
"627 70 LINE",
"745 630 LINE",
"620 700 LINE",
"166 700 LINE",
"17 0 LINE"
);
},
{
closed = 1;
nodes = (
"285 605 LINE",
"230 560 LINE",
"635 560 LINE",
"600 605 LINE",
"493 95 LINE",
"548 140 LINE",
"143 140 LINE",
"178 95 LINE"
);
}
);
width = 735;
}
);
unicode = "0044,0064";
},
{
glyphname = Eth;
lastChange = "2019-03-04 00:21:55 +0000";
layers = (
{
components = (
{
name = D;
transform = "{1, 0, 0, 1, 105, 0}";
}
);
layerId = "72FC769E-0471-4EB2-9C9D-CA7FFB11AFC9";
paths = (
{
closed = 1;
nodes = (
"455 280 LINE",
"455 420 LINE",
"35 420 LINE",
"35 280 LINE"
);
}
);
width = 1015;
},
{
components = (
{
name = D;
transform = "{1, 0, 0, 1, 70, 0}";
}
);
hints = (
{
horizontal = 1;
origin = "{0, 0}";
target = "{0, 1}";
type = Stem;
}
);
layerId = "E82D559A-267E-4BF3-BBA1-0778DA3FF57C";
paths = (
{
closed = 1;
nodes = (
"385 280 LINE",
"385 420 LINE",
"35 420 LINE",
"35 280 LINE"
);
}
);
width = 805;
},
{
associatedMasterId = "72FC769E-0471-4EB2-9C9D-CA7FFB11AFC9";
layerId = "26724774-F27D-4AF7-90A0-933BB7C1BE55";
width = 600;
},
{
components = (
{
alignment = -1;
name = D;
transform = "{1, 0, 0, 1, 157.5, 0}";
}
);
layerId = "B8F43E33-4D80-4AEE-B4E2-DC92E4FCAAE5";
paths = (
{
closed = 1;
nodes = (
"507 280 LINE",
"507 420 LINE",
"87 420 LINE",
"87 280 LINE"
);
}
);
width = 1330;
},
{
components = (
{
name = D;
transform = "{1, 0, 0, 1, 70, 0}";
}
);
layerId = "198E78DA-6138-42C0-8847-C36925CEE918";
paths = (
{
closed = 1;
nodes = (
"392 280 LINE",
"421 420 LINE",
"71 420 LINE",
"42 280 LINE"
);
}
);
width = 805;
}
);
unicode = "00D0,00F0";
},
{
glyphname = E;
lastChange = "2019-03-04 00:22:30 +0000";
layers = (
{
anchors = (
{
name = above;
position = "{420, 875}";
},
{
name = lowerRight;
position = "{630, 0}";
}
);
layerId = "72FC769E-0471-4EB2-9C9D-CA7FFB11AFC9";
paths = (
{
closed = 1;
nodes = (
"210 0 LINE",
"210 700 LINE",
"70 700 LINE",
"70 0 LINE"
);
},
{
closed = 1;
nodes = (
"770 0 LINE",
"770 140 LINE",
"140 140 LINE",
"140 0 LINE"
);
},
{
closed = 1;
nodes = (
"490 280 LINE",
"490 420 LINE",
"140 420 LINE",
"140 280 LINE"
);
},
{
closed = 1;
nodes = (
"770 560 LINE",
"770 700 LINE",
"140 700 LINE",
"140 560 LINE"
);
}
);
width = 840;
},
{
anchors = (
{
name = above;
position = "{394, 875}";
},
{
name = lowerRight;
position = "{550, 0}";
}
);
hints = (
{
horizontal = 1;
origin = "{1, 2}";
target = "{0, 3}";
type = Stem;
},
{
horizontal = 1;
origin = "{2, 2}";
target = "{2, 3}";
type = Stem;
},
{
horizontal = 1;
origin = "{0, 2}";
target = "{3, 3}";
type = Stem;
},
{
origin = "{0, 3}";
target = "{0, 0}";
type = Stem;
}
);
layerId = "E82D559A-267E-4BF3-BBA1-0778DA3FF57C";
paths = (
{
closed = 1;
nodes = (
"210 0 LINE",
"210 700 LINE",
"70 700 LINE",
"70 0 LINE"
);
},
{
closed = 1;
nodes = (
"650 0 LINE",
"650 140 LINE",
"140 140 LINE",
"140 0 LINE"
);
},
{
closed = 1;
nodes = (
"445 280 LINE",
"445 420 LINE",
"140 420 LINE",
"140 280 LINE"
);
},
{
closed = 1;
nodes = (
"650 560 LINE",
"650 700 LINE",
"140 700 LINE",
"140 560 LINE"
);
}
);
width = 720;
},
{
associatedMasterId = "72FC769E-0471-4EB2-9C9D-CA7FFB11AFC9";
layerId = "26724774-F27D-4AF7-90A0-933BB7C1BE55";
width = 600;
},
{
anchors = (
{
name = above;
position = "{545, 877}";
},
{
name = lowerRight;
position = "{810, 0}";
}
);
layerId = "B8F43E33-4D80-4AEE-B4E2-DC92E4FCAAE5";
paths = (
{
closed = 1;
nodes = (
"210 0 LINE",
"210 700 LINE",
"70 700 LINE",
"70 0 LINE"
);
},
{
closed = 1;
nodes = (
"950 0 LINE",
"950 140 LINE",
"140 140 LINE",
"140 0 LINE"
);
},
{
closed = 1;
nodes = (
"546 280 LINE",
"546 420 LINE",
"140 420 LINE",
"140 280 LINE"
);
},
{
closed = 1;
nodes = (
"950 560 LINE",
"950 700 LINE",
"140 700 LINE",
"140 560 LINE"
);
}
);
width = 1020;
},
{
anchors = (
{
name = above;
position = "{487, 875}";
},
{
name = lowerRight;
position = "{497, 0}";
}
);
layerId = "198E78DA-6138-42C0-8847-C36925CEE918";
paths = (
{
closed = 1;
nodes = (
"157 0 LINE",
"306 700 LINE",
"166 700 LINE",
"17 0 LINE"
);
},
{
closed = 1;
nodes = (
"597 0 LINE",
"627 140 LINE",
"117 140 LINE",
"87 0 LINE"
);
},
{
closed = 1;
nodes = (
"452 280 LINE",
"481 420 LINE",
"176 420 LINE",
"147 280 LINE"
);
},
{
closed = 1;
nodes = (
"716 560 LINE",
"746 700 LINE",
"236 700 LINE",
"206 560 LINE"
);
}
);
width = 720;
}
);
leftKerningGroup = E;
rightKerningGroup = E;
unicode = "0045,0065";
},
{
glyphname = F;
lastChange = "2019-03-04 05:04:43 +0000";
layers = (
{
layerId = "72FC769E-0471-4EB2-9C9D-CA7FFB11AFC9";
paths = (
{
closed = 1;
nodes = (
"210 0 LINE",
"210 700 LINE",
"70 700 LINE",
"70 0 LINE"
);
},
{
closed = 1;
nodes = (
"560 280 LINE",
"560 420 LINE",
"140 420 LINE",
"140 280 LINE"
);
},
{
closed = 1;
nodes = (
"700 560 LINE",
"700 700 LINE",
"140 700 LINE",
"140 560 LINE"
);
}
);
width = 735;
},
{
hints = (
{
horizontal = 1;
origin = "{1, 3}";
target = "{1, 2}";
type = Stem;
},
{
horizontal = 1;
origin = "{2, 3}";
target = "{0, 2}";
type = Stem;
},
{
origin = "{0, 3}";
target = "{0, 0}";
type = Stem;
}
);
layerId = "E82D559A-267E-4BF3-BBA1-0778DA3FF57C";
paths = (
{
closed = 1;
nodes = (
"210 0 LINE",
"210 700 LINE",
"70 700 LINE",
"70 0 LINE"
);
},
{
closed = 1;
nodes = (
"490 280 LINE",
"490 420 LINE",
"140 420 LINE",
"140 280 LINE"
);
},
{
closed = 1;
nodes = (
"620 560 LINE",
"620 700 LINE",
"140 700 LINE",
"140 560 LINE"
);
}
);
width = 655;
},
{
associatedMasterId = "72FC769E-0471-4EB2-9C9D-CA7FFB11AFC9";
layerId = "26724774-F27D-4AF7-90A0-933BB7C1BE55";
width = 600;
},
{
layerId = "B8F43E33-4D80-4AEE-B4E2-DC92E4FCAAE5";
paths = (
{
closed = 1;
nodes = (
"210 0 LINE",
"210 700 LINE",
"70 700 LINE",
"70 0 LINE"
);
},
{
closed = 1;
nodes = (
"630 280 LINE",
"630 420 LINE",
"140 420 LINE",
"140 280 LINE"
);
},
{
closed = 1;
nodes = (
"820 560 LINE",
"820 700 LINE",
"140 700 LINE",
"140 560 LINE"
);
}
);
width = 855;
},
{
layerId = "198E78DA-6138-42C0-8847-C36925CEE918";
paths = (
{
closed = 1;
nodes = (
"157 0 LINE",
"306 700 LINE",
"166 700 LINE",
"17 0 LINE"
);
},
{
closed = 1;
nodes = (
"497 280 LINE",
"526 420 LINE",
"176 420 LINE",
"147 280 LINE"
);
},
{
closed = 1;
nodes = (
"686 560 LINE",
"716 700 LINE",
"236 700 LINE",
"206 560 LINE"
);
}
);
width = 655;
}
);
rightKerningGroup = F;
unicode = "0046,0066";
},
{
glyphname = G;
lastChange = "2019-03-04 00:15:49 +0000";
layers = (
{
anchors = (
{
name = above;
position = "{455, 875}";
},
{
name = below;
position = "{456, 0}";
}
);
layerId = "72FC769E-0471-4EB2-9C9D-CA7FFB11AFC9";
paths = (
{
closed = 1;
nodes = (
"700 0 LINE",
"840 70 LINE",
"840 420 LINE",
"560 420 LINE",
"560 280 LINE",
"745 280 LINE",
"700 325 LINE",
"700 95 LINE",
"745 140 LINE",
"165 140 LINE",
"210 95 LINE",
"210 605 LINE",
"165 560 LINE",
"745 560 LINE",
"700 605 LINE",
"700 490 LINE",
"840 490 LINE",
"840 630 LINE",
"700 700 LINE",
"210 700 LINE",
"70 630 LINE",
"70 70 LINE",
"210 0 LINE"
);
}
);
width = 910;
},
{
anchors = (
{
name = above;
position = "{368, 875}";
},
{
name = below;
position = "{368, 0}";
}
);
hints = (
{
horizontal = 1;
origin = "{0, 22}";
target = "{0, 9}";
type = Stem;
},
{
horizontal = 1;
origin = "{0, 4}";
target = "{0, 3}";
type = Stem;
},
{
horizontal = 1;
origin = "{0, 12}";
target = "{0, 19}";
type = Stem;
},
{
origin = "{0, 21}";
target = "{0, 22}";
type = Stem;
},
{
origin = "{0, 0}";
target = "{0, 1}";
type = Stem;
}
);
layerId = "E82D559A-267E-4BF3-BBA1-0778DA3FF57C";
paths = (
{
closed = 1;
nodes = (
"525 0 LINE",
"665 70 LINE",
"665 420 LINE",
"385 420 LINE",
"385 280 LINE",
"570 280 LINE",
"525 325 LINE",
"525 95 LINE",
"570 140 LINE",
"165 140 LINE",
"210 95 LINE",
"210 605 LINE",
"165 560 LINE",
"570 560 LINE",
"525 605 LINE",
"525 490 LINE",
"665 490 LINE",
"665 630 LINE",
"525 700 LINE",
"210 700 LINE",
"70 630 LINE",
"70 70 LINE",
"210 0 LINE"
);
}
);
width = 735;
},
{
associatedMasterId = "72FC769E-0471-4EB2-9C9D-CA7FFB11AFC9";
layerId = "26724774-F27D-4AF7-90A0-933BB7C1BE55";
width = 600;
},
{
anchors = (
{
name = above;
position = "{586, 875}";
},
{
name = below;
position = "{588, 0}";
}
);
layerId = "B8F43E33-4D80-4AEE-B4E2-DC92E4FCAAE5";
paths = (
{
closed = 1;
nodes = (
"963 0 LINE",
"1103 70 LINE",
"1103 420 LINE",
"823 420 LINE",
"823 280 LINE",
"1008 280 LINE",
"963 325 LINE",
"963 95 LINE",
"1008 140 LINE",
"165 140 LINE",
"210 95 LINE",
"210 605 LINE",
"165 560 LINE",
"1008 560 LINE",
"963 605 LINE",
"963 490 LINE",
"1103 490 LINE",
"1103 630 LINE",
"963 700 LINE",
"210 700 LINE",
"70 630 LINE",
"70 70 LINE",
"210 0 LINE"
);
}
);
width = 1172.5;
},
{
anchors = (
{
name = above;
position = "{502, 875}";
},
{
name = below;
position = "{316, 0}";
}
);
layerId = "198E78DA-6138-42C0-8847-C36925CEE918";
paths = (
{
closed = 1;
nodes = (
"474 0 LINE",
"628 70 LINE",
"702 420 LINE",
"422 420 LINE",
"393 280 LINE",
"576 280 LINE",
"541 325 LINE",
"494 95 LINE",
"549 140 LINE",
"144 140 LINE",
"179 95 LINE",
"286 605 LINE",
"231 560 LINE",
"636 560 LINE",
"601 605 LINE",
"577 490 LINE",
"717 490 LINE",
"746 630 LINE",
"621 700 LINE",
"306 700 LINE",
"151 630 LINE",
"33 70 LINE",
"159 0 LINE"
);
}
);
width = 736;
}
);
unicode = "0047,0067";
},
{
glyphname = H;
lastChange = "2019-03-04 00:14:13 +0000";
layers = (
{
anchors = (
{
name = above;
position = "{455, 875}";
}
);
layerId = "72FC769E-0471-4EB2-9C9D-CA7FFB11AFC9";
paths = (
{
closed = 1;
nodes = (
"840 0 LINE",
"840 700 LINE",
"700 700 LINE",
"700 0 LINE"
);
},
{
closed = 1;
nodes = (
"210 0 LINE",
"210 700 LINE",
"70 700 LINE",
"70 0 LINE"
);
},
{
closed = 1;
nodes = (
"770 280 LINE",
"770 420 LINE",
"140 420 LINE",
"140 280 LINE"
);
}
);
width = 910;
},
{
anchors = (
{
name = above;
position = "{380, 875}";
}
);
hints = (
{
horizontal = 1;
origin = "{2, 3}";
target = "{2, 2}";
type = Stem;
},
{
origin = "{1, 3}";
target = "{1, 0}";
type = Stem;
},
{
origin = "{0, 3}";
target = "{0, 0}";
type = Stem;
}
);
layerId = "E82D559A-267E-4BF3-BBA1-0778DA3FF57C";
paths = (
{
closed = 1;
nodes = (
"690 0 LINE",
"690 700 LINE",
"550 700 LINE",
"550 0 LINE"
);
},
{
closed = 1;
nodes = (
"210 0 LINE",
"210 700 LINE",
"70 700 LINE",
"70 0 LINE"
);
},
{
closed = 1;
nodes = (
"620 280 LINE",
"620 420 LINE",
"140 420 LINE",
"140 280 LINE"
);
}
);
width = 760;
},
{
associatedMasterId = "72FC769E-0471-4EB2-9C9D-CA7FFB11AFC9";
layerId = "26724774-F27D-4AF7-90A0-933BB7C1BE55";
width = 600;
},
{
anchors = (
{
name = above;
position = "{587, 875}";
}
);
layerId = "B8F43E33-4D80-4AEE-B4E2-DC92E4FCAAE5";
paths = (
{
closed = 1;
nodes = (
"1100 0 LINE",
"1100 700 LINE",
"960 700 LINE",
"960 0 LINE"
);
},
{
closed = 1;
nodes = (
"210 0 LINE",
"210 700 LINE",
"70 700 LINE",
"70 0 LINE"
);
},
{
closed = 1;
nodes = (
"1030 280 LINE",
"1030 420 LINE",
"140 420 LINE",
"140 280 LINE"
);
}
);
width = 1170;
},
{
anchors = (
{
name = above;
position = "{501, 875}";
}
);
layerId = "198E78DA-6138-42C0-8847-C36925CEE918";
paths = (
{
closed = 1;
nodes = (
"637 0 LINE",
"786 700 LINE",
"646 700 LINE",
"497 0 LINE"
);
},
{
closed = 1;
nodes = (
"157 0 LINE",
"306 700 LINE",
"166 700 LINE",
"17 0 LINE"
);
},
{
closed = 1;
nodes = (
"627 280 LINE",
"656 420 LINE",
"176 420 LINE",
"147 280 LINE"
);
}
);
width = 760;
}
);
unicode = "0048,0068";
},
{
glyphname = Hbar;
lastChange = "2019-03-04 00:26:10 +0000";
layers = (
{
components = (
{
name = H;
transform = "{1, 0, 0, 1, 35, 0}";
}
);
layerId = "72FC769E-0471-4EB2-9C9D-CA7FFB11AFC9";
paths = (
{
closed = 1;
nodes = (
"35 525 LINE",
"945 525 LINE",
"945 595 LINE",
"35 595 LINE"
);
}
);
width = 980;
},
{
components = (
{
name = H;
transform = "{1, 0, 0, 1, 35, 0}";
}
);
hints = (
{
horizontal = 1;
origin = "{0, 0}";
target = "{0, 3}";
type = Stem;
}
);
layerId = "E82D559A-267E-4BF3-BBA1-0778DA3FF57C";
paths = (
{
closed = 1;
nodes = (
"35 525 LINE",
"795 525 LINE",
"795 595 LINE",
"35 595 LINE"
);
}
);
width = 830;
},
{
associatedMasterId = "72FC769E-0471-4EB2-9C9D-CA7FFB11AFC9";
layerId = "26724774-F27D-4AF7-90A0-933BB7C1BE55";
width = 600;
},
{
components = (
{
alignment = -1;
name = H;
transform = "{1, 0, 0, 1, 35, 0}";
}
);
layerId = "B8F43E33-4D80-4AEE-B4E2-DC92E4FCAAE5";
paths = (
{
closed = 1;
nodes = (
"35 525 LINE",
"1205 525 LINE",
"1205 595 LINE",
"35 595 LINE"
);
}
);
width = 1240;
},
{
components = (
{
name = H;
transform = "{1, 0, 0, 1, 32, 0}";
}
);
layerId = "198E78DA-6138-42C0-8847-C36925CEE918";
paths = (
{
closed = 1;
nodes = (
"94 525 LINE",
"854 525 LINE",
"868 595 LINE",
"108 595 LINE"
);
}
);
width = 831;
}
);
unicode = "0126,0127";
},
{
glyphname = I;
lastChange = "2019-03-04 00:15:58 +0000";
layers = (
{
anchors = (
{
name = above;
position = "{140, 875}";
},
{
name = lowerRight;
position = "{200, 0}";
}
);
layerId = "72FC769E-0471-4EB2-9C9D-CA7FFB11AFC9";
paths = (
{
closed = 1;
nodes = (
"210 0 LINE",
"210 700 LINE",
"70 700 LINE",
"70 0 LINE"
);
}
);
width = 280;
},
{
anchors = (
{
name = above;
position = "{140, 875}";
},
{
name = lowerRight;
position = "{200, 0}";
}
);
hints = (
{
origin = "{0, 3}";
target = "{0, 0}";
type = Stem;
}
);
layerId = "E82D559A-267E-4BF3-BBA1-0778DA3FF57C";
paths = (
{
closed = 1;
nodes = (
"210 0 LINE",
"210 700 LINE",
"70 700 LINE",
"70 0 LINE"
);
}
);
width = 280;
},
{
associatedMasterId = "72FC769E-0471-4EB2-9C9D-CA7FFB11AFC9";
layerId = "26724774-F27D-4AF7-90A0-933BB7C1BE55";
width = 600;
},
{
anchors = (
{
name = above;
position = "{140, 875}";
},
{
name = lowerRight;
position = "{200, 0}";
}
);
layerId = "B8F43E33-4D80-4AEE-B4E2-DC92E4FCAAE5";
paths = (
{
closed = 1;
nodes = (
"210 0 LINE",
"210 700 LINE",
"70 700 LINE",
"70 0 LINE"
);
}
);
width = 280;
},
{
anchors = (
{
name = above;
position = "{273, 875}";
},
{
name = lowerRight;
position = "{147, 0}";
}
);
layerId = "198E78DA-6138-42C0-8847-C36925CEE918";
paths = (
{
closed = 1;
nodes = (
"157 0 LINE",
"306 700 LINE",
"166 700 LINE",
"17 0 LINE"
);
}
);
width = 280;
}
);
unicode = "0049,0069";
},
{
glyphname = IJ;
lastChange = "2019-03-04 00:27:05 +0000";
layers = (
{
hints = (
{
origin = "{0, 3}";
target = "{0, 0}";
type = Stem;
},
{
horizontal = 1;
origin = "{1, 11}";
target = "{1, 6}";
type = Stem;
},
{
origin = "{1, 10}";
target = "{1, 11}";
type = Stem;
},
{
origin = "{1, 0}";
target = "{1, 1}";
type = Stem;
}
);
layerId = "E82D559A-267E-4BF3-BBA1-0778DA3FF57C";
paths = (
{
closed = 1;
nodes = (
"210 350 LINE",
"210 700 LINE",
"70 700 LINE",
"70 350 LINE"
);
},
{
closed = 1;
nodes = (
"525 0 LINE",
"665 70 LINE",
"665 700 LINE",
"525 700 LINE",
"525 95 LINE",
"570 140 LINE",
"165 140 LINE",
"210 95 LINE",
"210 210 LINE",
"70 210 LINE",
"70 70 LINE",
"210 0 LINE"
);
}
);
width = 735;
},
{
hints = (
{
horizontal = 1;
origin = "{1, 11}";
target = "{1, 6}";
type = Stem;
},
{
origin = "{1, 10}";
target = "{1, 11}";
type = Stem;
},
{
origin = "{1, 0}";
target = "{1, 1}";
type = Stem;
}
);
layerId = "72FC769E-0471-4EB2-9C9D-CA7FFB11AFC9";
paths = (
{
closed = 1;
nodes = (
"210 350 LINE",
"210 700 LINE",
"70 700 LINE",
"70 350 LINE"
);
},
{
closed = 1;
nodes = (
"630 0 LINE",
"770 70 LINE",
"770 700 LINE",
"630 700 LINE",
"630 95 LINE",
"675 140 LINE",
"165 140 LINE",
"210 95 LINE",
"210 210 LINE",
"70 210 LINE",
"70 70 LINE",
"210 0 LINE"
);
}
);
width = 840;
},
{
layerId = "B8F43E33-4D80-4AEE-B4E2-DC92E4FCAAE5";
paths = (
{
closed = 1;
nodes = (
"210 350 LINE",
"210 700 LINE",
"70 700 LINE",
"70 350 LINE"
);
},
{
closed = 1;
nodes = (
"788 0 LINE",
"928 70 LINE",
"928 700 LINE",
"788 700 LINE",
"788 95 LINE",
"833 140 LINE",
"165 140 LINE",
"210 95 LINE",
"210 210 LINE",
"70 210 LINE",
"70 70 LINE",
"210 0 LINE"
);
}
);
width = 998;
},
{
layerId = "198E78DA-6138-42C0-8847-C36925CEE918";
paths = (
{
closed = 1;
nodes = (
"231 350 LINE",
"306 700 LINE",
"166 700 LINE",
"91 350 LINE"
);
},
{
closed = 1;
nodes = (
"473 0 LINE",
"627 70 LINE",
"761 700 LINE",
"621 700 LINE",
"493 95 LINE",
"548 140 LINE",
"143 140 LINE",
"178 95 LINE",
"201 210 LINE",
"62 210 LINE",
"32 70 LINE",
"158 0 LINE"
);
}
);
width = 735;
}
);
unicode = "0132,0133";
},
{
glyphname = J;
lastChange = "2019-03-04 00:16:02 +0000";
layers = (
{
anchors = (
{
name = above;
position = "{700, 875}";
},
{
name = lowerRight;
position = "{560, 0}";
}
);
layerId = "72FC769E-0471-4EB2-9C9D-CA7FFB11AFC9";
paths = (
{
closed = 1;
nodes = (
"630 0 LINE",
"770 70 LINE",
"770 700 LINE",
"630 700 LINE",
"630 95 LINE",
"675 140 LINE",
"165 140 LINE",
"210 95 LINE",
"210 280 LINE",
"70 280 LINE",
"70 70 LINE",
"210 0 LINE"
);
}
);
width = 840;
},
{
anchors = (
{
name = above;
position = "{595, 875}";
},
{
name = lowerRight;
position = "{470, 0}";
}
);
hints = (
{
horizontal = 1;
origin = "{0, 11}";
target = "{0, 6}";
type = Stem;
},
{
origin = "{0, 10}";
target = "{0, 11}";
type = Stem;
},
{
origin = "{0, 0}";
target = "{0, 1}";
type = Stem;
}
);
layerId = "E82D559A-267E-4BF3-BBA1-0778DA3FF57C";
paths = (
{
closed = 1;
nodes = (
"525 0 LINE",
"665 70 LINE",
"665 700 LINE",
"525 700 LINE",
"525 95 LINE",
"570 140 LINE",
"165 140 LINE",
"210 95 LINE",
"210 280 LINE",
"70 280 LINE",
"70 70 LINE",
"210 0 LINE"
);
}
);
width = 735;
},
{
associatedMasterId = "72FC769E-0471-4EB2-9C9D-CA7FFB11AFC9";
layerId = "26724774-F27D-4AF7-90A0-933BB7C1BE55";
width = 600;
},
{
anchors = (
{
name = above;
position = "{860, 875}";
},
{
name = lowerRight;
position = "{695, 0}";
}
);
layerId = "B8F43E33-4D80-4AEE-B4E2-DC92E4FCAAE5";
paths = (
{
closed = 1;
nodes = (
"788 0 LINE",
"928 70 LINE",
"928 700 LINE",
"788 700 LINE",
"788 95 LINE",
"833 140 LINE",
"165 140 LINE",
"210 95 LINE",
"210 280 LINE",
"70 280 LINE",
"70 70 LINE",
"210 0 LINE"
);
}
);
width = 997.5;
},
{
anchors = (
{
name = above;
position = "{727, 875}";
},
{
name = lowerRight;
position = "{417, 0}";
}
);
layerId = "198E78DA-6138-42C0-8847-C36925CEE918";
paths = (
{
closed = 1;
nodes = (
"473 0 LINE",
"627 70 LINE",
"761 700 LINE",
"621 700 LINE",
"493 95 LINE",
"548 140 LINE",
"143 140 LINE",
"178 95 LINE",
"216 280 LINE",
"77 280 LINE",
"32 70 LINE",
"158 0 LINE"
);
}
);
width = 735;
}
);
leftKerningGroup = J;
rightKerningGroup = J;
unicode = "004A,006A";
},
{
glyphname = K;
lastChange = "2019-03-04 00:16:14 +0000";
layers = (
{
anchors = (
{
name = after;
position = "{840, 700}";
},
{
name = below;
position = "{388, 0}";
}
);
layerId = "72FC769E-0471-4EB2-9C9D-CA7FFB11AFC9";
paths = (
{
closed = 1;
nodes = (
"770 700 LINE",
"572 700 LINE",
"111 239 LINE",
"210 140 LINE"
);
},
{
closed = 1;
nodes = (
"210 0 LINE",
"210 700 LINE",
"70 700 LINE",
"70 0 LINE"
);
},
{
closed = 1;
nodes = (
"770 0 LINE",
"442 468 LINE",
"327 388 LINE",
"599 0 LINE"
);
}
);
width = 840;
},
{
anchors = (
{
name = after;
position = "{760, 700}";
},
{
name = below;
position = "{368, 0}";
}
);
hints = (
{
origin = "{1, 3}";
target = "{1, 0}";
type = Stem;
}
);
layerId = "E82D559A-267E-4BF3-BBA1-0778DA3FF57C";
paths = (
{
closed = 1;
nodes = (
"690 700 LINE",
"504 700 LINE",
"104 231 LINE",
"210 140 LINE"
);
},
{
closed = 1;
nodes = (
"210 0 LINE",
"210 700 LINE",
"70 700 LINE",
"70 0 LINE"
);
},
{
closed = 1;
nodes = (
"690 0 LINE",
"403 447 LINE",
"294 383 LINE",
"523 0 LINE"
);
}
);
width = 760;
},
{
associatedMasterId = "72FC769E-0471-4EB2-9C9D-CA7FFB11AFC9";
layerId = "26724774-F27D-4AF7-90A0-933BB7C1BE55";
width = 600;
},
{
anchors = (
{
name = after;
position = "{1183, 700}";
},
{
name = below;
position = "{550, 0}";
}
);
layerId = "B8F43E33-4D80-4AEE-B4E2-DC92E4FCAAE5";
paths = (
{
closed = 1;
nodes = (
"1113 700 LINE",
"847 700 LINE",
"105 259 LINE",
"176 136 LINE"
);
},
{
closed = 1;
nodes = (
"210 0 LINE",
"210 700 LINE",
"70 700 LINE",
"70 0 LINE"
);
},
{
closed = 1;
nodes = (
"1113 0 LINE",
"510 458 LINE",
"425 347 LINE",
"882 0 LINE"
);
}
);
width = 1183;
},
{
anchors = (
{
name = after;
position = "{862, 700}";
},
{
name = below;
position = "{315, 0}";
}
);
layerId = "198E78DA-6138-42C0-8847-C36925CEE918";
paths = (
{
closed = 1;
nodes = (
"787 700 LINE",
"599 700 LINE",
"100 231 LINE",
"189 140 LINE"
);
},
{
closed = 1;
nodes = (
"157 0 LINE",
"306 700 LINE",
"166 700 LINE",
"17 0 LINE"
);
},
{
closed = 1;
nodes = (
"636 0 LINE",
"443 447 LINE",
"323 383 LINE",
"471 0 LINE"
);
}
);
width = 761;
}
);
unicode = "004B,006B";
},
{
glyphname = L;
lastChange = "2019-03-04 06:01:42 +0000";
layers = (
{
anchors = (
{
name = above;
position = "{138, 875}";
},
{
name = below;
position = "{408, 0}";
},
{
name = lowerRight;
position = "{665, 0}";
}
);
layerId = "72FC769E-0471-4EB2-9C9D-CA7FFB11AFC9";
paths = (
{
closed = 1;
nodes = (
"210 0 LINE",
"210 700 LINE",
"70 700 LINE",
"70 0 LINE"
);
},
{
closed = 1;
nodes = (
"735 0 LINE",
"735 140 LINE",
"140 140 LINE",
"140 0 LINE"
);
}
);
width = 770;
},
{
anchors = (
{
name = above;
position = "{138, 875}";
},
{
name = below;
position = "{360, 0}";
},
{
name = lowerRight;
position = "{550, 0}";
}
);
hints = (
{
horizontal = 1;
origin = "{0, 3}";
target = "{1, 2}";
type = Stem;
},
{
origin = "{0, 3}";
target = "{0, 0}";
type = Stem;
}
);
layerId = "E82D559A-267E-4BF3-BBA1-0778DA3FF57C";
paths = (
{
closed = 1;
nodes = (
"210 0 LINE",
"210 700 LINE",
"70 700 LINE",
"70 0 LINE"
);
},
{
closed = 1;
nodes = (
"620 0 LINE",
"620 140 LINE",
"140 140 LINE",
"140 0 LINE"
);
}
);
width = 655;
},
{
associatedMasterId = "72FC769E-0471-4EB2-9C9D-CA7FFB11AFC9";
layerId = "26724774-F27D-4AF7-90A0-933BB7C1BE55";
width = 600;
},
{
anchors = (
{
name = above;
position = "{138, 875}";
},
{
name = below;
position = "{495, 0}";
},
{
name = lowerRight;
position = "{837.5, 0}";
}
);
layerId = "B8F43E33-4D80-4AEE-B4E2-DC92E4FCAAE5";
paths = (
{
closed = 1;
nodes = (
"210 0 LINE",
"210 700 LINE",
"70 700 LINE",
"70 0 LINE"
);
},
{
closed = 1;
nodes = (
"907.5 0 LINE",
"907.5 140 LINE",
"140 140 LINE",
"140 0 LINE"
);
}
);
width = 942.5;
},
{
anchors = (
{
name = above;
position = "{271, 875}";
},
{
name = below;
position = "{327, 0}";
},
{
name = lowerRight;
position = "{497, 0}";
}
);
layerId = "198E78DA-6138-42C0-8847-C36925CEE918";
paths = (
{
closed = 1;
nodes = (
"157 0 LINE",
"306 700 LINE",
"166 700 LINE",
"17 0 LINE"
);
},
{
closed = 1;
nodes = (
"567 0 LINE",
"597 140 LINE",
"117 140 LINE",
"87 0 LINE"
);
}
);
width = 655;
}
);
leftKerningGroup = L;
rightKerningGroup = L;
unicode = "004C,006C";
},
{
glyphname = Lslash;
lastChange = "2019-03-04 06:45:04 +0000";
layers = (
{
components = (
{
name = L;
transform = "{1, 0, 0, 1, 70, 0}";
}
);
layerId = "72FC769E-0471-4EB2-9C9D-CA7FFB11AFC9";
paths = (
{
closed = 1;
nodes = (
"70 201 LINE",
"350 341 LINE",
"350 481 LINE",
"70 341 LINE"
);
}
);
width = 840;
},
{
components = (
{
name = L;
transform = "{1, 0, 0, 1, 70, 0}";
}
);
layerId = "E82D559A-267E-4BF3-BBA1-0778DA3FF57C";
paths = (
{
closed = 1;
nodes = (
"70 201 LINE",
"350 341 LINE",
"350 481 LINE",
"70 341 LINE"
);
}
);
width = 725;
},
{
associatedMasterId = "72FC769E-0471-4EB2-9C9D-CA7FFB11AFC9";
layerId = "26724774-F27D-4AF7-90A0-933BB7C1BE55";
width = 600;
},
{
components = (
{
alignment = -1;
name = L;
transform = "{1, 0, 0, 1, 70, 0}";
}
);
layerId = "B8F43E33-4D80-4AEE-B4E2-DC92E4FCAAE5";
paths = (
{
closed = 1;
nodes = (
"70 201 LINE",
"350 341 LINE",
"350 481 LINE",
"70 341 LINE"
);
}
);
width = 1013;
},
{
components = (
{
name = L;
transform = "{1, 0, 0, 1, 70, 0}";
}
);
layerId = "198E78DA-6138-42C0-8847-C36925CEE918";
paths = (
{
closed = 1;
nodes = (
"60 201 LINE",
"370 341 LINE",
"399 481 LINE",
"89 341 LINE"
);
}
);
width = 725;
}
);
leftKerningGroup = L;
leftMetricsKey = L;
rightKerningGroup = L;
rightMetricsKey = L;
unicode = "0141,0142";
},
{
glyphname = M;
lastChange = "2019-03-04 00:35:18 +0000";
layers = (
{
layerId = "72FC769E-0471-4EB2-9C9D-CA7FFB11AFC9";
paths = (
{
closed = 1;
nodes = (
"210 0 LINE",
"210 480 LINE",
"189 475 LINE",
"440 0 LINE",
"590 0 LINE",
"841 475 LINE",
"820 480 LINE",
"820 0 LINE",
"960 0 LINE",
"960 700 LINE",
"799 700 LINE",
"494 123 LINE",
"536 123 LINE",
"231 700 LINE",
"70 700 LINE",
"70 0 LINE"
);
}
);
width = 1030;
},
{
hints = (
{
origin = "{0, 15}";
target = "{0, 0}";
type = Stem;
},
{
origin = "{0, 7}";
target = "{0, 8}";
type = Stem;
}
);
layerId = "E82D559A-267E-4BF3-BBA1-0778DA3FF57C";
paths = (
{
closed = 1;
nodes = (
"210 0 LINE",
"210 446 LINE",
"189 443 LINE",
"364 0 LINE",
"481 0 LINE",
"661 443 LINE",
"640 446 LINE",
"640 0 LINE",
"780 0 LINE",
"780 700 LINE",
"616 700 LINE",
"409 172 LINE",
"441 172 LINE",
"234 700 LINE",
"70 700 LINE",
"70 0 LINE"
);
}
);
width = 850;
},
{
associatedMasterId = "72FC769E-0471-4EB2-9C9D-CA7FFB11AFC9";
layerId = "26724774-F27D-4AF7-90A0-933BB7C1BE55";
width = 600;
},
{
layerId = "B8F43E33-4D80-4AEE-B4E2-DC92E4FCAAE5";
paths = (
{
closed = 1;
nodes = (
"210 0 LINE",
"210 538 LINE",
"184 530 LINE",
"554 0 LINE",
"664 0 LINE",
"1025 529 LINE",
"1000 537 LINE",
"1000 0 LINE",
"1140 0 LINE",
"1140 700 LINE",
"984 700 LINE",
"580 119 LINE",
"632 119 LINE",
"227 700 LINE",
"70 700 LINE",
"70 0 LINE"
);
}
);
width = 1210;
},
{
layerId = "198E78DA-6138-42C0-8847-C36925CEE918";
paths = (
{
closed = 1;
nodes = (
"157 0 LINE",
"252 446 LINE",
"231 443 LINE",
"312 0 LINE",
"429 0 LINE",
"703 443 LINE",
"682 446 LINE",
"587 0 LINE",
"727 0 LINE",
"876 700 LINE",
"702 700 LINE",
"383 172 LINE",
"415 172 LINE",
"320 700 LINE",
"166 700 LINE",
"17 0 LINE"
);
}
);
width = 850;
}
);
unicode = "004D,006D";
},
{
glyphname = N;
lastChange = "2019-03-04 00:16:40 +0000";
layers = (
{
anchors = (
{
name = above;
position = "{434, 875}";
},
{
name = below;
position = "{420, 0}";
},
{
name = lowerRight;
position = "{700, 0}";
}
);
layerId = "72FC769E-0471-4EB2-9C9D-CA7FFB11AFC9";
paths = (
{
closed = 1;
nodes = (
"210 0 LINE",
"210 584 LINE",
"181 574 LINE",
"660 0 LINE",
"840 0 LINE",
"840 700 LINE",
"700 700 LINE",
"700 116 LINE",
"729 126 LINE",
"250 700 LINE",
"70 700 LINE",
"70 0 LINE"
);
}
);
width = 910;
},
{
anchors = (
{
name = above;
position = "{400, 875}";
},
{
name = below;
position = "{400, 0}";
},
{
name = lowerRight;
position = "{620, 0}";
}
);
hints = (
{
origin = "{0, 11}";
target = "{0, 0}";
type = Stem;
},
{
origin = "{0, 7}";
target = "{0, 4}";
type = Stem;
}
);
layerId = "E82D559A-267E-4BF3-BBA1-0778DA3FF57C";
paths = (
{
closed = 1;
nodes = (
"210 0 LINE",
"210 552 LINE",
"193 516 LINE",
"515 0 LINE",
"690 0 LINE",
"690 700 LINE",
"550 700 LINE",
"550 148 LINE",
"567 184 LINE",
"245 700 LINE",
"70 700 LINE",
"70 0 LINE"
);
}
);
width = 760;
},
{
associatedMasterId = "72FC769E-0471-4EB2-9C9D-CA7FFB11AFC9";
layerId = "26724774-F27D-4AF7-90A0-933BB7C1BE55";
width = 600;
},
{
anchors = (
{
name = above;
position = "{550, 875}";
},
{
name = below;
position = "{550, 0}";
},
{
name = lowerRight;
position = "{942, 0}";
}
);
layerId = "B8F43E33-4D80-4AEE-B4E2-DC92E4FCAAE5";
paths = (
{
closed = 1;
nodes = (
"210 0 LINE",
"210 603 LINE",
"176 588 LINE",
"843 0 LINE",
"1030 0 LINE",
"1030 700 LINE",
"890 700 LINE",
"890 98 LINE",
"924 113 LINE",
"258 700 LINE",
"70 700 LINE",
"70 0 LINE"
);
}
);
width = 1100;
},
{
anchors = (
{
name = above;
position = "{533, 875}";
},
{
name = below;
position = "{347, 0}";
},
{
name = lowerRight;
position = "{567, 0}";
}
);
layerId = "198E78DA-6138-42C0-8847-C36925CEE918";
paths = (
{
closed = 1;
nodes = (
"157 0 LINE",
"270 539 LINE",
"253 537 LINE",
"463 0 LINE",
"637 0 LINE",
"786 700 LINE",
"646 700 LINE",
"532 163 LINE",
"551 165 LINE",
"340 700 LINE",
"166 700 LINE",
"17 0 LINE"
);
}
);
width = 760;
}
);
unicode = "004E,006E";
},
{
glyphname = Eng;
lastChange = "2019-03-03 20:46:38 +0000";
layers = (
{
layerId = "72FC769E-0471-4EB2-9C9D-CA7FFB11AFC9";
paths = (
{
closed = 1;
nodes = (
"700 116 LINE",
"729 126 LINE",
"250 700 LINE",
"70 700 LINE",
"70 0 LINE",
"210 0 LINE",
"210 584 LINE",
"181 574 LINE",
"700 -48 LINE",
"700 -70 LINE",
"560 -70 LINE",
"560 0 LINE",
"420 0 LINE",
"420 -130 LINE",
"560 -200 LINE",
"700 -200 LINE",
"840 -130 LINE",
"840 700 LINE",
"700 700 LINE"
);
}
);
width = 910;
},
{
hints = (
{
horizontal = 1;
origin = "{0, 14}";
target = "{0, 10}";
type = Stem;
},
{
origin = "{0, 4}";
target = "{0, 5}";
type = Stem;
},
{
origin = "{0, 13}";
target = "{0, 14}";
type = Stem;
},
{
origin = "{0, 15}";
target = "{0, 16}";
type = Stem;
}
);
layerId = "E82D559A-267E-4BF3-BBA1-0778DA3FF57C";
paths = (
{
closed = 1;
nodes = (
"550 166 LINE",
"574 173 LINE",
"245 700 LINE",
"70 700 LINE",
"70 0 LINE",
"210 0 LINE",
"210 534 LINE",
"186 527 LINE",
"550 -56 LINE",
"550 -70 LINE",
"430 -70 LINE",
"430 0 LINE",
"290 0 LINE",
"290 -130 LINE",
"430 -200 LINE",
"550 -200 LINE",
"690 -130 LINE",
"690 700 LINE",
"550 700 LINE"
);
}
);
width = 760;
},
{
associatedMasterId = "72FC769E-0471-4EB2-9C9D-CA7FFB11AFC9";
layerId = "26724774-F27D-4AF7-90A0-933BB7C1BE55";
width = 600;
},
{
layerId = "B8F43E33-4D80-4AEE-B4E2-DC92E4FCAAE5";
paths = (
{
closed = 1;
nodes = (
"890 98 LINE",
"924 113 LINE",
"258 700 LINE",
"70 700 LINE",
"70 0 LINE",
"210 0 LINE",
"210 603 LINE",
"176 588 LINE",
"890 -38 LINE",
"890 -70 LINE",
"595 -70 LINE",
"595 0 LINE",
"455 0 LINE",
"455 -130 LINE",
"595 -200 LINE",
"890 -200 LINE",
"1030 -130 LINE",
"1030 700 LINE",
"890 700 LINE"
);
}
);
width = 1100;
},
{
layerId = "198E78DA-6138-42C0-8847-C36925CEE918";
paths = (
{
closed = 1;
nodes = (
"586 166 LINE",
"610 173 LINE",
"393 700 LINE",
"219 700 LINE",
"70 0 LINE",
"210 0 LINE",
"323 534 LINE",
"299 527 LINE",
"539 -56 LINE",
"535 -70 LINE",
"415 -70 LINE",
"430 0 LINE",
"290 0 LINE",
"263 -130 LINE",
"388 -200 LINE",
"508 -200 LINE",
"663 -130 LINE",
"839 700 LINE",
"699 700 LINE"
);
}
);
width = 760;
}
);
unicode = "014A,014B";
},
{
glyphname = O;
lastChange = "2019-03-04 00:16:43 +0000";
layers = (
{
anchors = (
{
name = above;
position = "{455, 875}";
},
{
name = lowerRight;
position = "{630, 0}";
}
);
layerId = "72FC769E-0471-4EB2-9C9D-CA7FFB11AFC9";
paths = (
{
closed = 1;
nodes = (
"700 0 LINE",
"840 70 LINE",
"840 630 LINE",
"700 700 LINE",
"210 700 LINE",
"70 630 LINE",
"70 70 LINE",
"210 0 LINE"
);
},
{
closed = 1;
nodes = (
"210 605 LINE",
"165 560 LINE",
"745 560 LINE",
"700 605 LINE",
"700 95 LINE",
"745 140 LINE",
"165 140 LINE",
"210 95 LINE"
);
}
);
width = 910;
},
{
anchors = (
{
name = above;
position = "{366, 875}";
},
{
name = lowerRight;
position = "{471, 0}";
}
);
hints = (
{
horizontal = 1;
origin = "{0, 7}";
target = "{1, 6}";
type = Stem;
},
{
horizontal = 1;
origin = "{1, 1}";
target = "{0, 4}";
type = Stem;
},
{
origin = "{0, 6}";
target = "{0, 7}";
type = Stem;
},
{
origin = "{0, 0}";
target = "{0, 1}";
type = Stem;
}
);
layerId = "E82D559A-267E-4BF3-BBA1-0778DA3FF57C";
paths = (
{
closed = 1;
nodes = (
"525 0 LINE",
"665 70 LINE",
"665 630 LINE",
"525 700 LINE",
"210 700 LINE",
"70 630 LINE",
"70 70 LINE",
"210 0 LINE"
);
},
{
closed = 1;
nodes = (
"210 605 LINE",
"165 560 LINE",
"570 560 LINE",
"525 605 LINE",
"525 95 LINE",
"570 140 LINE",
"165 140 LINE",
"210 95 LINE"
);
}
);
width = 735;
},
{
associatedMasterId = "72FC769E-0471-4EB2-9C9D-CA7FFB11AFC9";
layerId = "26724774-F27D-4AF7-90A0-933BB7C1BE55";
width = 600;
},
{
anchors = (
{
name = above;
position = "{588.5, 875}";
},
{
name = lowerRight;
position = "{868.5, 0}";
}
);
layerId = "B8F43E33-4D80-4AEE-B4E2-DC92E4FCAAE5";
paths = (
{
closed = 1;
nodes = (
"963 0 LINE",
"1103 70 LINE",
"1103 630 LINE",
"963 700 LINE",
"210 700 LINE",
"70 630 LINE",
"70 70 LINE",
"210 0 LINE"
);
},
{
closed = 1;
nodes = (
"210 605 LINE",
"165 560 LINE",
"1008 560 LINE",
"963 605 LINE",
"963 95 LINE",
"1008 140 LINE",
"165 140 LINE",
"210 95 LINE"
);
}
);
width = 1172.5;
},
{
anchors = (
{
name = above;
position = "{500, 875}";
},
{
name = lowerRight;
position = "{419, 0}";
}
);
layerId = "198E78DA-6138-42C0-8847-C36925CEE918";
paths = (
{
closed = 1;
nodes = (
"474 0 LINE",
"628 70 LINE",
"746 630 LINE",
"621 700 LINE",
"306 700 LINE",
"151 630 LINE",
"33 70 LINE",
"159 0 LINE"
);
},
{
closed = 1;
nodes = (
"286 605 LINE",
"231 560 LINE",
"636 560 LINE",
"601 605 LINE",
"494 95 LINE",
"549 140 LINE",
"144 140 LINE",
"179 95 LINE"
);
}
);
width = 736;
}
);
leftKerningGroup = O;
rightKerningGroup = O;
unicode = "004F,006F";
},
{
glyphname = Oslash;
lastChange = "2019-03-04 00:40:15 +0000";
layers = (
{
components = (
{
name = O;
}
);
layerId = "72FC769E-0471-4EB2-9C9D-CA7FFB11AFC9";
paths = (
{
closed = 1;
nodes = (
"781 756 LINE",
"723 796 LINE",
"129 -55 LINE",
"187 -95 LINE"
);
}
);
width = 910;
},
{
components = (
{
name = O;
}
);
layerId = "E82D559A-267E-4BF3-BBA1-0778DA3FF57C";
paths = (
{
closed = 1;
nodes = (
"588 758 LINE",
"523 787 LINE",
"148 -58 LINE",
"213 -87 LINE"
);
}
);
width = 735;
},
{
associatedMasterId = "72FC769E-0471-4EB2-9C9D-CA7FFB11AFC9";
layerId = "26724774-F27D-4AF7-90A0-933BB7C1BE55";
width = 600;
},
{
components = (
{
alignment = -1;
name = O;
}
);
layerId = "B8F43E33-4D80-4AEE-B4E2-DC92E4FCAAE5";
paths = (
{
closed = 1;
nodes = (
"1061 731 LINE",
"1014 782 LINE",
"113 -32 LINE",
"160 -83 LINE"
);
}
);
width = 1173;
},
{
components = (
{
name = O;
}
);
layerId = "198E78DA-6138-42C0-8847-C36925CEE918";
paths = (
{
closed = 1;
nodes = (
"700 758 LINE",
"639 787 LINE",
"85 -58 LINE",
"146 -87 LINE"
);
}
);
width = 736;
}
);
leftMetricsKey = O;
rightMetricsKey = O;
unicode = "00D8,00F8";
},
{
glyphname = OE;
lastChange = "2019-03-04 00:40:58 +0000";
layers = (
{
layerId = "72FC769E-0471-4EB2-9C9D-CA7FFB11AFC9";
paths = (
{
closed = 1;
nodes = (
"540 0 LINE",
"680 70 LINE",
"680 630 LINE",
"540 700 LINE",
"210 700 LINE",
"70 630 LINE",
"70 70 LINE",
"210 0 LINE"
);
},
{
closed = 1;
nodes = (
"210 605 LINE",
"165 560 LINE",
"585 560 LINE",
"540 605 LINE",
"540 95 LINE",
"585 140 LINE",
"165 140 LINE",
"210 95 LINE"
);
},
{
closed = 1;
nodes = (
"1100 0 LINE",
"1100 140 LINE",
"610 140 LINE",
"610 0 LINE"
);
},
{
closed = 1;
nodes = (
"1030 280 LINE",
"1030 420 LINE",
"610 420 LINE",
"610 280 LINE"
);
},
{
closed = 1;
nodes = (
"1100 560 LINE",
"1100 700 LINE",
"610 700 LINE",
"610 560 LINE"
);
}
);
width = 1170;
},
{
hints = (
{
horizontal = 1;
origin = "{0, 7}";
target = "{1, 6}";
type = Stem;
},
{
horizontal = 1;
origin = "{3, 3}";
target = "{3, 2}";
type = Stem;
},
{
horizontal = 1;
origin = "{1, 1}";
target = "{0, 4}";
type = Stem;
},
{
origin = "{0, 6}";
target = "{0, 7}";
type = Stem;
},
{
origin = "{0, 0}";
target = "{0, 1}";
type = Stem;
}
);
layerId = "E82D559A-267E-4BF3-BBA1-0778DA3FF57C";
paths = (
{
closed = 1;
nodes = (
"405 0 LINE",
"545 70 LINE",
"545 630 LINE",
"405 700 LINE",
"210 700 LINE",
"70 630 LINE",
"70 70 LINE",
"210 0 LINE"
);
},
{
closed = 1;
nodes = (
"210 605 LINE",
"165 560 LINE",
"450 560 LINE",
"405 605 LINE",
"405 95 LINE",
"450 140 LINE",
"165 140 LINE",
"210 95 LINE"
);
},
{
closed = 1;
nodes = (
"845 0 LINE",
"845 140 LINE",
"475 140 LINE",
"475 0 LINE"
);
},
{
closed = 1;
nodes = (
"755 280 LINE",
"755 420 LINE",
"475 420 LINE",
"475 280 LINE"
);
},
{
closed = 1;
nodes = (
"845 560 LINE",
"845 700 LINE",
"475 700 LINE",
"475 560 LINE"
);
}
);
width = 915;
},
{
associatedMasterId = "72FC769E-0471-4EB2-9C9D-CA7FFB11AFC9";
layerId = "26724774-F27D-4AF7-90A0-933BB7C1BE55";
width = 600;
},
{
layerId = "B8F43E33-4D80-4AEE-B4E2-DC92E4FCAAE5";
paths = (
{
closed = 1;
nodes = (
"742.5 0 LINE",
"882.5 70 LINE",
"882.5 630 LINE",
"742.5 700 LINE",
"210 700 LINE",
"70 630 LINE",
"70 70 LINE",
"210 0 LINE"
);
},
{
closed = 1;
nodes = (
"210 605 LINE",
"165 560 LINE",
"787.5 560 LINE",
"742.5 605 LINE",
"742.5 95 LINE",
"787.5 140 LINE",
"165 140 LINE",
"210 95 LINE"
);
},
{
closed = 1;
nodes = (
"1482.5 0 LINE",
"1482.5 140 LINE",
"812.5 140 LINE",
"812.5 0 LINE"
);
},
{
closed = 1;
nodes = (
"1442.5 280 LINE",
"1442.5 420 LINE",
"812.5 420 LINE",
"812.5 280 LINE"
);
},
{
closed = 1;
nodes = (
"1482.5 560 LINE",
"1482.5 700 LINE",
"812.5 700 LINE",
"812.5 560 LINE"
);
}
);
width = 1552.5;
},
{
layerId = "198E78DA-6138-42C0-8847-C36925CEE918";
paths = (
{
closed = 1;
nodes = (
"354 0 LINE",
"508 70 LINE",
"626 630 LINE",
"501 700 LINE",
"306 700 LINE",
"151 630 LINE",
"33 70 LINE",
"159 0 LINE"
);
},
{
closed = 1;
nodes = (
"286 605 LINE",
"231 560 LINE",
"516 560 LINE",
"481 605 LINE",
"374 95 LINE",
"429 140 LINE",
"144 140 LINE",
"179 95 LINE"
);
},
{
closed = 1;
nodes = (
"793 0 LINE",
"823 140 LINE",
"453 140 LINE",
"423 0 LINE"
);
},
{
closed = 1;
nodes = (
"763 280 LINE",
"792 420 LINE",
"512 420 LINE",
"483 280 LINE"
);
},
{
closed = 1;
nodes = (
"912 560 LINE",
"942 700 LINE",
"572 700 LINE",
"542 560 LINE"
);
}
);
width = 916;
}
);
leftMetricsKey = O;
rightMetricsKey = E;
unicode = "0152,0153";
},
{
glyphname = P;
lastChange = "2019-03-04 00:16:51 +0000";
layers = (
{
layerId = "72FC769E-0471-4EB2-9C9D-CA7FFB11AFC9";
paths = (
{
closed = 1;
nodes = (
"630 280 LINE",
"770 350 LINE",
"770 630 LINE",
"630 700 LINE",
"141 700 LINE",
"141 560 LINE",
"620 560 LINE",
"620 420 LINE",
"141 420 LINE",
"141 280 LINE"
);
},
{
closed = 1;
nodes = (
"210 0 LINE",
"210 700 LINE",
"70 700 LINE",
"70 0 LINE"
);
}
);
width = 840;
},
{
hints = (
{
horizontal = 1;
origin = "{0, 9}";
target = "{0, 8}";
type = Stem;
},
{
horizontal = 1;
origin = "{0, 5}";
target = "{1, 2}";
type = Stem;
},
{
origin = "{1, 3}";
target = "{1, 0}";
type = Stem;
},
{
origin = "{0, 7}";
target = "{0, 1}";
type = Stem;
}
);
layerId = "E82D559A-267E-4BF3-BBA1-0778DA3FF57C";
paths = (
{
closed = 1;
nodes = (
"515 280 LINE",
"655 350 LINE",
"655 630 LINE",
"515 700 LINE",
"141 700 LINE",
"141 560 LINE",
"505 560 LINE",
"505 420 LINE",
"141 420 LINE",
"141 280 LINE"
);
},
{
closed = 1;
nodes = (
"210 0 LINE",
"210 700 LINE",
"70 700 LINE",
"70 0 LINE"
);
}
);
width = 725;
},
{
associatedMasterId = "72FC769E-0471-4EB2-9C9D-CA7FFB11AFC9";
layerId = "26724774-F27D-4AF7-90A0-933BB7C1BE55";
width = 600;
},
{
layerId = "B8F43E33-4D80-4AEE-B4E2-DC92E4FCAAE5";
paths = (
{
closed = 1;
nodes = (
"802.5 280 LINE",
"942.5 350 LINE",
"942.5 630 LINE",
"802.5 700 LINE",
"141 700 LINE",
"141 560 LINE",
"792.5 560 LINE",
"792.5 420 LINE",
"141 420 LINE",
"141 280 LINE"
);
},
{
closed = 1;
nodes = (
"210 0 LINE",
"210 700 LINE",
"70 700 LINE",
"70 0 LINE"
);
}
);
width = 1012.5;
},
{
layerId = "198E78DA-6138-42C0-8847-C36925CEE918";
paths = (
{
closed = 1;
nodes = (
"522 280 LINE",
"677 350 LINE",
"735 630 LINE",
"610 700 LINE",
"237 700 LINE",
"207 560 LINE",
"571 560 LINE",
"541 420 LINE",
"177 420 LINE",
"148 280 LINE"
);
},
{
closed = 1;
nodes = (
"157 0 LINE",
"306 700 LINE",
"166 700 LINE",
"17 0 LINE"
);
}
);
width = 726;
}
);
unicode = "0050,0070";
},
{
glyphname = Thorn;
lastChange = "2019-03-04 00:41:24 +0000";
layers = (
{
layerId = "72FC769E-0471-4EB2-9C9D-CA7FFB11AFC9";
paths = (
{
closed = 1;
nodes = (
"630 140 LINE",
"770 210 LINE",
"770 490 LINE",
"630 560 LINE",
"141 560 LINE",
"141 420 LINE",
"620 420 LINE",
"620 280 LINE",
"141 280 LINE",
"141 140 LINE"
);
},
{
closed = 1;
nodes = (
"210 0 LINE",
"210 700 LINE",
"70 700 LINE",
"70 0 LINE"
);
}
);
width = 840;
},
{
hints = (
{
horizontal = 1;
origin = "{0, 9}";
target = "{0, 8}";
type = Stem;
},
{
horizontal = 1;
origin = "{0, 5}";
target = "{0, 4}";
type = Stem;
},
{
origin = "{1, 3}";
target = "{1, 0}";
type = Stem;
},
{
origin = "{0, 7}";
target = "{0, 1}";
type = Stem;
}
);
layerId = "E82D559A-267E-4BF3-BBA1-0778DA3FF57C";
paths = (
{
closed = 1;
nodes = (
"515 140 LINE",
"655 210 LINE",
"655 490 LINE",
"515 560 LINE",
"141 560 LINE",
"141 420 LINE",
"505 420 LINE",
"505 280 LINE",
"141 280 LINE",
"141 140 LINE"
);
},
{
closed = 1;
nodes = (
"210 0 LINE",
"210 700 LINE",
"70 700 LINE",
"70 0 LINE"
);
}
);
width = 725;
},
{
associatedMasterId = "72FC769E-0471-4EB2-9C9D-CA7FFB11AFC9";
layerId = "26724774-F27D-4AF7-90A0-933BB7C1BE55";
width = 600;
},
{
layerId = "B8F43E33-4D80-4AEE-B4E2-DC92E4FCAAE5";
paths = (
{
closed = 1;
nodes = (
"802.5 140 LINE",
"942.5 210 LINE",
"942.5 490 LINE",
"802.5 560 LINE",
"141 560 LINE",
"141 420 LINE",
"792.5 420 LINE",
"792.5 280 LINE",
"141 280 LINE",
"141 140 LINE"
);
},
{
closed = 1;
nodes = (
"210 0 LINE",
"210 700 LINE",
"70 700 LINE",
"70 0 LINE"
);
}
);
width = 1012.5;
},
{
layerId = "198E78DA-6138-42C0-8847-C36925CEE918";
paths = (
{
closed = 1;
nodes = (
"492 140 LINE",
"647 210 LINE",
"706 490 LINE",
"581 560 LINE",
"207 560 LINE",
"177 420 LINE",
"541 420 LINE",
"512 280 LINE",
"148 280 LINE",
"118 140 LINE"
);
},
{
closed = 1;
nodes = (
"157 0 LINE",
"306 700 LINE",
"166 700 LINE",
"17 0 LINE"
);
}
);
width = 726;
}
);
leftKerningGroup = Thorn;
rightKerningGroup = Thorn;
unicode = "00DE,00FE";
},
{
glyphname = Q;
lastChange = "2019-03-04 00:16:55 +0000";
layers = (
{
components = (
{
name = O;
}
);
layerId = "72FC769E-0471-4EB2-9C9D-CA7FFB11AFC9";
paths = (
{
closed = 1;
nodes = (
"742 -91 LINE",
"575 289 LINE",
"448 232 LINE",
"615 -148 LINE"
);
}
);
width = 910;
},
{
components = (
{
name = O;
}
);
layerId = "E82D559A-267E-4BF3-BBA1-0778DA3FF57C";
paths = (
{
closed = 1;
nodes = (
"557 -67 LINE",
"418 247 LINE",
"290 190 LINE",
"429 -124 LINE"
);
}
);
width = 735;
},
{
associatedMasterId = "72FC769E-0471-4EB2-9C9D-CA7FFB11AFC9";
layerId = "26724774-F27D-4AF7-90A0-933BB7C1BE55";
width = 600;
},
{
components = (
{
alignment = -1;
name = O;
}
);
layerId = "B8F43E33-4D80-4AEE-B4E2-DC92E4FCAAE5";
paths = (
{
closed = 1;
nodes = (
"1017 -119 LINE",
"825 313 LINE",
"698 256 LINE",
"890 -176 LINE"
);
}
);
width = 1172.5;
},
{
components = (
{
name = O;
}
);
layerId = "198E78DA-6138-42C0-8847-C36925CEE918";
paths = (
{
closed = 1;
nodes = (
"605 -61 LINE",
"459 263 LINE",
"332 206 LINE",
"478 -118 LINE"
);
}
);
width = 741;
}
);
unicode = "0051,0071";
},
{
glyphname = R;
lastChange = "2019-03-04 00:42:14 +0000";
layers = (
{
anchors = (
{
name = above;
position = "{444, 875}";
},
{
name = below;
position = "{421, 0}";
}
);
layerId = "72FC769E-0471-4EB2-9C9D-CA7FFB11AFC9";
paths = (
{
closed = 1;
nodes = (
"630 280 LINE",
"770 350 LINE",
"770 630 LINE",
"630 700 LINE",
"141 700 LINE",
"141 560 LINE",
"620 560 LINE",
"620 420 LINE",
"141 420 LINE",
"141 280 LINE"
);
},
{
closed = 1;
nodes = (
"210 0 LINE",
"210 700 LINE",
"70 700 LINE",
"70 0 LINE"
);
},
{
closed = 1;
nodes = (
"806 0 LINE",
"582 357 LINE",
"463 283 LINE",
"641 0 LINE"
);
}
);
width = 840;
},
{
anchors = (
{
name = above;
position = "{380, 875}";
},
{
name = below;
position = "{357, 0}";
}
);
hints = (
{
horizontal = 1;
origin = "{0, 9}";
target = "{0, 8}";
type = Stem;
},
{
horizontal = 1;
origin = "{0, 5}";
target = "{1, 2}";
type = Stem;
},
{
origin = "{1, 3}";
target = "{1, 0}";
type = Stem;
},
{
origin = "{0, 7}";
target = "{0, 1}";
type = Stem;
}
);
layerId = "E82D559A-267E-4BF3-BBA1-0778DA3FF57C";
paths = (
{
closed = 1;
nodes = (
"515 280 LINE",
"655 350 LINE",
"655 630 LINE",
"515 700 LINE",
"141 700 LINE",
"141 560 LINE",
"505 560 LINE",
"505 420 LINE",
"141 420 LINE",
"141 280 LINE"
);
},
{
closed = 1;
nodes = (
"210 0 LINE",
"210 700 LINE",
"70 700 LINE",
"70 0 LINE"
);
},
{
closed = 1;
nodes = (
"680 0 LINE",
"521 371 LINE",
"396 319 LINE",
"526 0 LINE"
);
}
);
width = 715;
},
{
associatedMasterId = "72FC769E-0471-4EB2-9C9D-CA7FFB11AFC9";
layerId = "26724774-F27D-4AF7-90A0-933BB7C1BE55";
width = 600;
},
{
anchors = (
{
name = above;
position = "{517, 875}";
},
{
name = below;
position = "{517, 0}";
}
);
layerId = "B8F43E33-4D80-4AEE-B4E2-DC92E4FCAAE5";
paths = (
{
closed = 1;
nodes = (
"803 280 LINE",
"943 350 LINE",
"943 630 LINE",
"803 700 LINE",
"141 700 LINE",
"141 560 LINE",
"793 560 LINE",
"793 420 LINE",
"141 420 LINE",
"141 280 LINE"
);
},
{
closed = 1;
nodes = (
"210 0 LINE",
"210 700 LINE",
"70 700 LINE",
"70 0 LINE"
);
},
{
closed = 1;
nodes = (
"1010 0 LINE",
"714 401 LINE",
"601 318 LINE",
"837 0 LINE"
);
}
);
width = 1045;
},
{
anchors = (
{
name = above;
position = "{473, 875}";
},
{
name = below;
position = "{314, 0}";
}
);
layerId = "198E78DA-6138-42C0-8847-C36925CEE918";
paths = (
{
closed = 1;
nodes = (
"522 280 LINE",
"677 350 LINE",
"735 630 LINE",
"610 700 LINE",
"237 700 LINE",
"207 560 LINE",
"571 560 LINE",
"541 420 LINE",
"177 420 LINE",
"148 280 LINE"
);
},
{
closed = 1;
nodes = (
"157 0 LINE",
"306 700 LINE",
"166 700 LINE",
"17 0 LINE"
);
},
{
closed = 1;
nodes = (
"626 0 LINE",
"545 371 LINE",
"411 319 LINE",
"474 0 LINE"
);
}
);
width = 714;
}
);
unicode = "0052,0072";
},
{
glyphname = S;
lastChange = "2019-03-04 00:17:11 +0000";
layers = (
{
anchors = (
{
name = above;
position = "{455, 875}";
},
{
name = below;
position = "{455, 0}";
},
{
name = lowerRight;
position = "{610, 0}";
}
);
layerId = "72FC769E-0471-4EB2-9C9D-CA7FFB11AFC9";
paths = (
{
closed = 1;
nodes = (
"680 0 LINE",
"840 70 LINE",
"840 350 LINE",
"700 420 LINE",
"179 420 LINE",
"210 389 LINE",
"210 601 LINE",
"179 570 LINE",
"731 570 LINE",
"700 601 LINE",
"700 490 LINE",
"840 490 LINE",
"840 630 LINE",
"700 700 LINE",
"210 700 LINE",
"70 630 LINE",
"70 350 LINE",
"210 280 LINE",
"731 280 LINE",
"700 311 LINE",
"700 99 LINE",
"731 130 LINE",
"179 130 LINE",
"210 99 LINE",
"210 210 LINE",
"70 210 LINE",
"70 70 LINE",
"230 0 LINE"
);
}
);
width = 910;
},
{
anchors = (
{
name = above;
position = "{368, 875}";
},
{
name = below;
position = "{369, 0}";
},
{
name = lowerRight;
position = "{470, 0}";
}
);
hints = (
{
horizontal = 1;
origin = "{0, 27}";
target = "{0, 23}";
type = Stem;
},
{
horizontal = 1;
origin = "{0, 17}";
target = "{0, 5}";
type = Stem;
},
{
horizontal = 1;
origin = "{0, 7}";
target = "{0, 14}";
type = Stem;
},
{
origin = "{0, 26}";
target = "{0, 23}";
type = Stem;
},
{
origin = "{0, 21}";
target = "{0, 1}";
type = Stem;
}
);
layerId = "E82D559A-267E-4BF3-BBA1-0778DA3FF57C";
paths = (
{
closed = 1;
nodes = (
"505 0 LINE",
"665 70 LINE",
"665 350 LINE",
"525 420 LINE",
"179 420 LINE",
"210 389 LINE",
"210 601 LINE",
"179 570 LINE",
"556 570 LINE",
"525 601 LINE",
"525 490 LINE",
"665 490 LINE",
"665 630 LINE",
"525 700 LINE",
"210 700 LINE",
"70 630 LINE",
"70 350 LINE",
"210 280 LINE",
"556 280 LINE",
"525 311 LINE",
"525 99 LINE",
"556 130 LINE",
"179 130 LINE",
"210 99 LINE",
"210 210 LINE",
"70 210 LINE",
"70 70 LINE",
"230 0 LINE"
);
}
);
width = 735;
},
{
associatedMasterId = "72FC769E-0471-4EB2-9C9D-CA7FFB11AFC9";
layerId = "26724774-F27D-4AF7-90A0-933BB7C1BE55";
width = 600;
},
{
anchors = (
{
name = above;
position = "{586, 875}";
},
{
name = below;
position = "{584, 0}";
},
{
name = lowerRight;
position = "{820, 0}";
}
);
layerId = "B8F43E33-4D80-4AEE-B4E2-DC92E4FCAAE5";
paths = (
{
closed = 1;
nodes = (
"943 0 LINE",
"1103 70 LINE",
"1103 350 LINE",
"963 420 LINE",
"179 420 LINE",
"210 389 LINE",
"210 601 LINE",
"179 570 LINE",
"994 570 LINE",
"963 601 LINE",
"963 490 LINE",
"1103 490 LINE",
"1103 630 LINE",
"963 700 LINE",
"210 700 LINE",
"70 630 LINE",
"70 350 LINE",
"210 280 LINE",
"994 280 LINE",
"963 311 LINE",
"963 99 LINE",
"994 130 LINE",
"179 130 LINE",
"210 99 LINE",
"210 210 LINE",
"70 210 LINE",
"70 70 LINE",
"230 0 LINE"
);
}
);
width = 1173;
},
{
anchors = (
{
name = above;
position = "{502, 875}";
},
{
name = below;
position = "{317, 0}";
},
{
name = lowerRight;
position = "{418, 0}";
}
);
layerId = "198E78DA-6138-42C0-8847-C36925CEE918";
paths = (
{
closed = 1;
nodes = (
"453 0 LINE",
"628 70 LINE",
"687 350 LINE",
"562 420 LINE",
"216 420 LINE",
"240 389 LINE",
"286 601 LINE",
"248 570 LINE",
"625 570 LINE",
"601 601 LINE",
"577 490 LINE",
"717 490 LINE",
"746 630 LINE",
"621 700 LINE",
"306 700 LINE",
"151 630 LINE",
"93 350 LINE",
"218 280 LINE",
"564 280 LINE",
"540 311 LINE",
"494 99 LINE",
"532 130 LINE",
"155 130 LINE",
"179 99 LINE",
"203 210 LINE",
"63 210 LINE",
"33 70 LINE",
"178 0 LINE"
);
}
);
width = 736;
}
);
unicode = "0053,0073";
},
{
glyphname = Germandbls;
lastChange = "2019-03-04 04:40:37 +0000";
layers = (
{
layerId = "E82D559A-267E-4BF3-BBA1-0778DA3FF57C";
paths = (
{
closed = 1;
nodes = (
"210 0 LINE",
"210 591 LINE",
"179 560 LINE",
"429 560 LINE",
"417 585 LINE",
"305 385 LINE",
"375 280 LINE",
"606 280 LINE",
"575 311 LINE",
"575 109 LINE",
"606 140 LINE",
"280 140 LINE",
"280 0 LINE",
"585 0 LINE",
"725 70 LINE",
"725 350 LINE",
"585 420 LINE",
"454 420 LINE",
"465 396 LINE",
"560 560 LINE",
"485 700 LINE",
"70 700 LINE",
"70 0 LINE"
);
}
);
width = 760;
},
{
layerId = "72FC769E-0471-4EB2-9C9D-CA7FFB11AFC9";
paths = (
{
closed = 1;
nodes = (
"210 0 LINE",
"210 591 LINE",
"179 560 LINE",
"534 560 LINE",
"522 595 LINE",
"350 395 LINE",
"420 280 LINE",
"756 280 LINE",
"725 311 LINE",
"725 109 LINE",
"756 140 LINE",
"315 140 LINE",
"315 0 LINE",
"735 0 LINE",
"875 70 LINE",
"875 350 LINE",
"735 420 LINE",
"499 420 LINE",
"510 356 LINE",
"665 540 LINE",
"610 700 LINE",
"70 700 LINE",
"70 0 LINE"
);
}
);
width = 945;
},
{
layerId = "B8F43E33-4D80-4AEE-B4E2-DC92E4FCAAE5";
paths = (
{
closed = 1;
nodes = (
"210 0 LINE",
"210 591 LINE",
"179 560 LINE",
"615 560 LINE",
"591 574 LINE",
"511 399 LINE",
"607 280 LINE",
"984 280 LINE",
"953 311 LINE",
"953 109 LINE",
"984 140 LINE",
"351 140 LINE",
"351 0 LINE",
"963 0 LINE",
"1103 70 LINE",
"1103 350 LINE",
"963 420 LINE",
"653 420 LINE",
"676 410 LINE",
"746 567 LINE",
"653 700 LINE",
"70 700 LINE",
"70 0 LINE"
);
}
);
width = 1173;
},
{
layerId = "198E78DA-6138-42C0-8847-C36925CEE918";
paths = (
{
closed = 1;
nodes = (
"157 0 LINE",
"282 591 LINE",
"245 560 LINE",
"485 560 LINE",
"476 593 LINE",
"323 393 LINE",
"390 280 LINE",
"622 280 LINE",
"598 311 LINE",
"554 109 LINE",
"591 140 LINE",
"256 140 LINE",
"227 0 LINE",
"542 0 LINE",
"696 70 LINE",
"756 350 LINE",
"631 420 LINE",
"470 420 LINE",
"482 391 LINE",
"617 555 LINE",
"541 700 LINE",
"166 700 LINE",
"17 0 LINE"
);
}
);
width = 770;
}
);
unicode = "1E9E,00DF";
},
{
glyphname = T;
lastChange = "2019-03-04 05:40:02 +0000";
layers = (
{
anchors = (
{
name = above;
position = "{384, 875}";
},
{
name = below;
position = "{384, 0}";
}
);
layerId = "72FC769E-0471-4EB2-9C9D-CA7FFB11AFC9";
paths = (
{
closed = 1;
nodes = (
"735 560 LINE",
"735 700 LINE",
"35 700 LINE",
"35 560 LINE"
);
},
{
closed = 1;
nodes = (
"455 0 LINE",
"455 700 LINE",
"315 700 LINE",
"315 0 LINE"
);
}
);
width = 770;
},
{
anchors = (
{
name = above;
position = "{314, 875}";
},
{
name = below;
position = "{316, 0}";
}
);
hints = (
{
horizontal = 1;
origin = "{0, 3}";
target = "{0, 2}";
type = Stem;
},
{
origin = "{1, 3}";
target = "{1, 0}";
type = Stem;
}
);
layerId = "E82D559A-267E-4BF3-BBA1-0778DA3FF57C";
paths = (
{
closed = 1;
nodes = (
"595 560 LINE",
"595 700 LINE",
"35 700 LINE",
"35 560 LINE"
);
},
{
closed = 1;
nodes = (
"385 0 LINE",
"385 700 LINE",
"245 700 LINE",
"245 0 LINE"
);
}
);
width = 630;
},
{
associatedMasterId = "72FC769E-0471-4EB2-9C9D-CA7FFB11AFC9";
layerId = "26724774-F27D-4AF7-90A0-933BB7C1BE55";
width = 600;
},
{
anchors = (
{
name = above;
position = "{489, 875}";
},
{
name = below;
position = "{486, 0}";
}
);
layerId = "B8F43E33-4D80-4AEE-B4E2-DC92E4FCAAE5";
paths = (
{
closed = 1;
nodes = (
"945 560 LINE",
"945 700 LINE",
"35 700 LINE",
"35 560 LINE"
);
},
{
closed = 1;
nodes = (
"560 0 LINE",
"560 700 LINE",
"420 700 LINE",
"420 0 LINE"
);
}
);
width = 980;
},
{
anchors = (
{
name = above;
position = "{447, 875}";
},
{
name = below;
position = "{263, 0}";
}
);
layerId = "198E78DA-6138-42C0-8847-C36925CEE918";
paths = (
{
closed = 1;
nodes = (
"661 560 LINE",
"691 700 LINE",
"131 700 LINE",
"101 560 LINE"
);
},
{
closed = 1;
nodes = (
"332 0 LINE",
"481 700 LINE",
"341 700 LINE",
"192 0 LINE"
);
}
);
width = 630;
}
);
leftKerningGroup = T;
rightKerningGroup = T;
unicode = "0054,0074";
},
{
glyphname = Tbar;
lastChange = "2019-03-04 01:06:51 +0000";
layers = (
{
components = (
{
name = T;
}
);
layerId = "72FC769E-0471-4EB2-9C9D-CA7FFB11AFC9";
paths = (
{
closed = 1;
nodes = (
"595 280 LINE",
"595 420 LINE",
"175 420 LINE",
"175 280 LINE"
);
}
);
width = 840;
},
{
components = (
{
name = T;
}
);
hints = (
{
horizontal = 1;
origin = "{0, 3}";
target = "{0, 2}";
type = Stem;
}
);
layerId = "E82D559A-267E-4BF3-BBA1-0778DA3FF57C";
paths = (
{
closed = 1;
nodes = (
"490 280 LINE",
"490 420 LINE",
"140 420 LINE",
"140 280 LINE"
);
}
);
width = 700;
},
{
associatedMasterId = "72FC769E-0471-4EB2-9C9D-CA7FFB11AFC9";
layerId = "26724774-F27D-4AF7-90A0-933BB7C1BE55";
width = 600;
},
{
components = (
{
alignment = -1;
name = T;
}
);
layerId = "B8F43E33-4D80-4AEE-B4E2-DC92E4FCAAE5";
paths = (
{
closed = 1;
nodes = (
"735 280 LINE",
"735 420 LINE",
"245 420 LINE",
"245 280 LINE"
);
}
);
width = 1050;
},
{
components = (
{
name = T;
}
);
layerId = "198E78DA-6138-42C0-8847-C36925CEE918";
paths = (
{
closed = 1;
nodes = (
"495 280 LINE",
"524 420 LINE",
"174 420 LINE",
"145 280 LINE"
);
}
);
width = 630;
}
);
unicode = "0166,0167";
},
{
glyphname = U;
lastChange = "2019-03-04 00:17:23 +0000";
layers = (
{
anchors = (
{
name = above;
position = "{455, 875}";
},
{
name = lowerRight;
position = "{630, 0}";
}
);
layerId = "72FC769E-0471-4EB2-9C9D-CA7FFB11AFC9";
paths = (
{
closed = 1;
nodes = (
"700 0 LINE",
"840 70 LINE",
"840 700 LINE",
"700 700 LINE",
"700 140 LINE",
"210 140 LINE",
"210 700 LINE",
"70 700 LINE",
"70 70 LINE",
"210 0 LINE"
);
}
);
width = 910;
},
{
anchors = (
{
name = above;
position = "{368, 875}";
},
{
name = lowerRight;
position = "{489, 0}";
}
);
hints = (
{
horizontal = 1;
origin = "{0, 9}";
target = "{0, 5}";
type = Stem;
},
{
origin = "{0, 8}";
target = "{0, 9}";
type = Stem;
},
{
origin = "{0, 0}";
target = "{0, 1}";
type = Stem;
}
);
layerId = "E82D559A-267E-4BF3-BBA1-0778DA3FF57C";
paths = (
{
closed = 1;
nodes = (
"525 0 LINE",
"665 70 LINE",
"665 700 LINE",
"525 700 LINE",
"525 140 LINE",
"210 140 LINE",
"210 700 LINE",
"70 700 LINE",
"70 70 LINE",
"210 0 LINE"
);
}
);
width = 735;
},
{
associatedMasterId = "72FC769E-0471-4EB2-9C9D-CA7FFB11AFC9";
layerId = "26724774-F27D-4AF7-90A0-933BB7C1BE55";
width = 600;
},
{
anchors = (
{
name = above;
position = "{585.5, 875}";
},
{
name = lowerRight;
position = "{841.5, 0}";
}
);
layerId = "B8F43E33-4D80-4AEE-B4E2-DC92E4FCAAE5";
paths = (
{
closed = 1;
nodes = (
"962.5 0 LINE",
"1102.5 70 LINE",
"1102.5 700 LINE",
"962.5 700 LINE",
"962.5 140 LINE",
"210 140 LINE",
"210 700 LINE",
"70 700 LINE",
"70 70 LINE",
"210 0 LINE"
);
}
);
width = 1172.5;
},
{
anchors = (
{
name = above;
position = "{501, 875}";
},
{
name = lowerRight;
position = "{436, 0}";
}
);
layerId = "198E78DA-6138-42C0-8847-C36925CEE918";
paths = (
{
closed = 1;
nodes = (
"473 0 LINE",
"627 70 LINE",
"761 700 LINE",
"621 700 LINE",
"502 140 LINE",
"187 140 LINE",
"306 700 LINE",
"166 700 LINE",
"32 70 LINE",
"158 0 LINE"
);
}
);
width = 735;
}
);
unicode = "0055,0075";
},
{
glyphname = V;
lastChange = "2019-03-04 00:17:40 +0000";
layers = (
{
layerId = "72FC769E-0471-4EB2-9C9D-CA7FFB11AFC9";
paths = (
{
closed = 1;
nodes = (
"555 0 LINE",
"925 700 LINE",
"764 700 LINE",
"459 123 LINE",
"501 123 LINE",
"196 700 LINE",
"35 700 LINE",
"405 0 LINE"
);
}
);
width = 960;
},
{
layerId = "E82D559A-267E-4BF3-BBA1-0778DA3FF57C";
paths = (
{
closed = 1;
nodes = (
"409 0 LINE",
"675 700 LINE",
"526 700 LINE",
"306 123 LINE",
"403 123 LINE",
"184 700 LINE",
"35 700 LINE",
"301 0 LINE"
);
}
);
width = 710;
},
{
associatedMasterId = "72FC769E-0471-4EB2-9C9D-CA7FFB11AFC9";
layerId = "26724774-F27D-4AF7-90A0-933BB7C1BE55";
width = 600;
},
{
layerId = "B8F43E33-4D80-4AEE-B4E2-DC92E4FCAAE5";
paths = (
{
closed = 1;
nodes = (
"751 0 LINE",
"1295 700 LINE",
"1114 700 LINE",
"649 113 LINE",
"682 113 LINE",
"217 700 LINE",
"35 700 LINE",
"579 0 LINE"
);
}
);
width = 1330;
},
{
layerId = "198E78DA-6138-42C0-8847-C36925CEE918";
paths = (
{
closed = 1;
nodes = (
"351 0 LINE",
"766 700 LINE",
"605 700 LINE",
"262 123 LINE",
"369 123 LINE",
"273 700 LINE",
"131 700 LINE",
"248 0 LINE"
);
}
);
width = 705;
}
);
leftKerningGroup = V;
rightKerningGroup = V;
unicode = "0056,0076";
},
{
glyphname = W;
lastChange = "2019-03-04 04:43:35 +0000";
layers = (
{
anchors = (
{
name = above;
position = "{562, 875}";
}
);
layerId = "72FC769E-0471-4EB2-9C9D-CA7FFB11AFC9";
paths = (
{
closed = 1;
nodes = (
"415 0 LINE",
"576 497 LINE",
"548 497 LINE",
"708 0 LINE",
"848 0 LINE",
"1075 700 LINE",
"925 700 LINE",
"765 204 LINE",
"793 204 LINE",
"632 700 LINE",
"492 700 LINE",
"332 204 LINE",
"360 204 LINE",
"199 700 LINE",
"50 700 LINE",
"275 0 LINE"
);
}
);
width = 1125;
},
{
anchors = (
{
name = above;
position = "{455, 875}";
}
);
layerId = "E82D559A-267E-4BF3-BBA1-0778DA3FF57C";
paths = (
{
closed = 1;
nodes = (
"357 0 LINE",
"466 450 LINE",
"445 450 LINE",
"552 0 LINE",
"691 0 LINE",
"859 700 LINE",
"719 700 LINE",
"610 223 LINE",
"631 223 LINE",
"525 700 LINE",
"384 700 LINE",
"276 223 LINE",
"297 223 LINE",
"191 700 LINE",
"50 700 LINE",
"218 0 LINE"
);
}
);
width = 909;
},
{
associatedMasterId = "72FC769E-0471-4EB2-9C9D-CA7FFB11AFC9";
layerId = "26724774-F27D-4AF7-90A0-933BB7C1BE55";
width = 600;
},
{
anchors = (
{
name = above;
position = "{722.5, 875}";
}
);
layerId = "B8F43E33-4D80-4AEE-B4E2-DC92E4FCAAE5";
paths = (
{
closed = 1;
nodes = (
"502 0 LINE",
"741 567.5 LINE",
"702.5 567.5 LINE",
"942 0 LINE",
"1083.5 0 LINE",
"1399 700 LINE",
"1234 700 LINE",
"997.5 175.5 LINE",
"1036 175.5 LINE",
"792.5 700 LINE",
"654 700 LINE",
"416 175.5 LINE",
"454.5 175.5 LINE",
"211 700 LINE",
"50 700 LINE",
"360.5 0 LINE"
);
}
);
width = 1449;
},
{
anchors = (
{
name = above;
position = "{585, 875}";
}
);
layerId = "198E78DA-6138-42C0-8847-C36925CEE918";
paths = (
{
closed = 1;
nodes = (
"312 0 LINE",
"516 450 LINE",
"480 450 LINE",
"480 0 LINE",
"646 0 LINE",
"962 700 LINE",
"806 700 LINE",
"596 223 LINE",
"620 223 LINE",
"620 700 LINE",
"471 700 LINE",
"262 223 LINE",
"286 223 LINE",
"286 700 LINE",
"146 700 LINE",
"146 0 LINE"
);
}
);
width = 916;
}
);
leftKerningGroup = W;
rightKerningGroup = W;
unicode = "0057,0077";
},
{
glyphname = X;
lastChange = "2019-03-04 00:43:31 +0000";
layers = (
{
layerId = "72FC769E-0471-4EB2-9C9D-CA7FFB11AFC9";
paths = (
{
closed = 1;
nodes = (
"648 700 LINE",
"834 700 LINE",
"227 0 LINE",
"40 0 LINE"
);
},
{
closed = 1;
nodes = (
"40 700 LINE",
"226 700 LINE",
"834 0 LINE",
"647 0 LINE"
);
}
);
width = 874;
},
{
layerId = "E82D559A-267E-4BF3-BBA1-0778DA3FF57C";
paths = (
{
closed = 1;
nodes = (
"493 700 LINE",
"660 700 LINE",
"207 0 LINE",
"40 0 LINE"
);
},
{
closed = 1;
nodes = (
"40 700 LINE",
"207 700 LINE",
"660 0 LINE",
"493 0 LINE"
);
}
);
width = 700;
},
{
associatedMasterId = "72FC769E-0471-4EB2-9C9D-CA7FFB11AFC9";
layerId = "26724774-F27D-4AF7-90A0-933BB7C1BE55";
width = 600;
},
{
layerId = "B8F43E33-4D80-4AEE-B4E2-DC92E4FCAAE5";
paths = (
{
closed = 1;
nodes = (
"880.5 700 LINE",
"1095 700 LINE",
"257 0 LINE",
"40 0 LINE"
);
},
{
closed = 1;
nodes = (
"40 700 LINE",
"254.5 700 LINE",
"1095 0 LINE",
"878 0 LINE"
);
}
);
width = 1135;
},
{
layerId = "198E78DA-6138-42C0-8847-C36925CEE918";
paths = (
{
closed = 1;
nodes = (
"591 700 LINE",
"756 700 LINE",
"154 0 LINE",
"-11 0 LINE"
);
},
{
closed = 1;
nodes = (
"136 700 LINE",
"290 700 LINE",
"609 0 LINE",
"455 0 LINE"
);
}
);
width = 702;
}
);
unicode = "0058,0078";
},
{
glyphname = Y;
lastChange = "2019-03-04 06:46:17 +0000";
layers = (
{
anchors = (
{
name = above;
position = "{415, 875}";
},
{
name = lowerRight;
position = "{475, 0}";
}
);
guideLines = (
{
position = "{-35, 630}";
}
);
layerId = "72FC769E-0471-4EB2-9C9D-CA7FFB11AFC9";
paths = (
{
closed = 1;
nodes = (
"620 700 LINE",
"388 393 LINE",
"442 393 LINE",
"210 700 LINE",
"35 700 LINE",
"345 291 LINE",
"345 0 LINE",
"485 0 LINE",
"485 291 LINE",
"795 700 LINE"
);
}
);
width = 830;
},
{
anchors = (
{
name = above;
position = "{345, 875}";
},
{
name = lowerRight;
position = "{405, 0}";
}
);
hints = (
{
origin = "{0, 6}";
target = "{0, 7}";
type = Stem;
}
);
layerId = "E82D559A-267E-4BF3-BBA1-0778DA3FF57C";
paths = (
{
closed = 1;
nodes = (
"488 700 LINE",
"321 441 LINE",
"369 441 LINE",
"202 700 LINE",
"35 700 LINE",
"275 331 LINE",
"275 0 LINE",
"415 0 LINE",
"415 331 LINE",
"655 700 LINE"
);
}
);
width = 690;
},
{
associatedMasterId = "72FC769E-0471-4EB2-9C9D-CA7FFB11AFC9";
layerId = "26724774-F27D-4AF7-90A0-933BB7C1BE55";
width = 600;
},
{
anchors = (
{
name = above;
position = "{520, 875}";
},
{
name = lowerRight;
position = "{580, 0}";
}
);
layerId = "B8F43E33-4D80-4AEE-B4E2-DC92E4FCAAE5";
paths = (
{
closed = 1;
nodes = (
"818 700 LINE",
"490 325 LINE",
"550 325 LINE",
"222 700 LINE",
"35 700 LINE",
"450 240 LINE",
"450 0 LINE",
"590 0 LINE",
"590 240 LINE",
"1005 700 LINE"
);
}
);
width = 1040;
},
{
anchors = (
{
name = above;
position = "{477, 875}";
},
{
name = lowerRight;
position = "{351, 0}";
}
);
layerId = "198E78DA-6138-42C0-8847-C36925CEE918";
paths = (
{
closed = 1;
nodes = (
"582 700 LINE",
"360 441 LINE",
"408 441 LINE",
"296 700 LINE",
"131 700 LINE",
"292 331 LINE",
"221 0 LINE",
"361 0 LINE",
"432 331 LINE",
"751 700 LINE"
);
}
);
width = 690;
}
);
leftKerningGroup = Y;
rightKerningGroup = Y;
unicode = "0059,0079";
},
{
glyphname = Z;
lastChange = "2019-03-04 00:19:03 +0000";
layers = (
{
anchors = (
{
name = above;
position = "{439, 875}";
},
{
name = lowerRight;
position = "{595, 0}";
}
);
layerId = "72FC769E-0471-4EB2-9C9D-CA7FFB11AFC9";
paths = (
{
closed = 1;
nodes = (
"785 0 LINE",
"785 140 LINE",
"240 140 LINE",
"251 111 LINE",
"805 560 LINE",
"754 700 LINE",
"105 700 LINE",
"105 560 LINE",
"636 560 LINE",
"625 589 LINE",
"70 140 LINE",
"122 0 LINE"
);
}
);
width = 875;
},
{
anchors = (
{
name = above;
position = "{365, 875}";
},
{
name = lowerRight;
position = "{515, 0}";
}
);
hints = (
{
horizontal = 1;
origin = "{0, 11}";
target = "{0, 2}";
type = Stem;
},
{
horizontal = 1;
origin = "{0, 7}";
target = "{0, 6}";
type = Stem;
}
);
layerId = "E82D559A-267E-4BF3-BBA1-0778DA3FF57C";
paths = (
{
closed = 1;
nodes = (
"655 0 LINE",
"655 140 LINE",
"234 140 LINE",
"247 108 LINE",
"662 579 LINE",
"595 700 LINE",
"105 700 LINE",
"105 560 LINE",
"506 560 LINE",
"493 592 LINE",
"70 113 LINE",
"145 0 LINE"
);
}
);
width = 732;
},
{
associatedMasterId = "72FC769E-0471-4EB2-9C9D-CA7FFB11AFC9";
layerId = "26724774-F27D-4AF7-90A0-933BB7C1BE55";
width = 600;
},
{
anchors = (
{
name = above;
position = "{550, 875}";
},
{
name = lowerRight;
position = "{715, 0}";
}
);
layerId = "B8F43E33-4D80-4AEE-B4E2-DC92E4FCAAE5";
paths = (
{
closed = 1;
nodes = (
"980 0 LINE",
"980 140 LINE",
"249 140 LINE",
"257 115.5 LINE",
"1019.5 531.5 LINE",
"992.5 700 LINE",
"105 700 LINE",
"105 560 LINE",
"831 560 LINE",
"823 584.5 LINE",
"70 180.5 LINE",
"87.5 0 LINE"
);
}
);
width = 1089.5;
},
{
anchors = (
{
name = above;
position = "{498, 875}";
},
{
name = lowerRight;
position = "{462, 0}";
}
);
layerId = "198E78DA-6138-42C0-8847-C36925CEE918";
paths = (
{
closed = 1;
nodes = (
"602 0 LINE",
"632 140 LINE",
"212 140 LINE",
"219 108 LINE",
"732 579 LINE",
"690 700 LINE",
"201 700 LINE",
"171 560 LINE",
"571 560 LINE",
"564 592 LINE",
"41 113 LINE",
"93 0 LINE"
);
}
);
width = 732;
}
);
unicode = "005A,007A";
},
{
glyphname = I.ss01;
lastChange = "2019-03-04 00:46:18 +0000";
layers = (
{
anchors = (
{
name = above;
position = "{210, 875}";
},
{
name = lowerRight;
position = "{270, 0}";
}
);
layerId = "72FC769E-0471-4EB2-9C9D-CA7FFB11AFC9";
paths = (
{
closed = 1;
nodes = (
"280 0 LINE",
"280 700 LINE",
"140 700 LINE",
"140 0 LINE"
);
},
{
closed = 1;
nodes = (
"350 0 LINE",
"350 70 LINE",
"70 70 LINE",
"70 0 LINE"
);
},
{
closed = 1;
nodes = (
"350 630 LINE",
"350 700 LINE",
"70 700 LINE",
"70 630 LINE"
);
}
);
width = 420;
},
{
anchors = (
{
name = above;
position = "{175, 875}";
},
{
name = lowerRight;
position = "{235, 0}";
}
);
hints = (
{
origin = "{0, 3}";
target = "{0, 0}";
type = Stem;
}
);
layerId = "E82D559A-267E-4BF3-BBA1-0778DA3FF57C";
paths = (
{
closed = 1;
nodes = (
"245 0 LINE",
"245 700 LINE",
"105 700 LINE",
"105 0 LINE"
);
},
{
closed = 1;
nodes = (
"280 0 LINE",
"280 70 LINE",
"70 70 LINE",
"70 0 LINE"
);
},
{
closed = 1;
nodes = (
"280 630 LINE",
"280 700 LINE",
"70 700 LINE",
"70 630 LINE"
);
}
);
width = 350;
},
{
associatedMasterId = "72FC769E-0471-4EB2-9C9D-CA7FFB11AFC9";
layerId = "26724774-F27D-4AF7-90A0-933BB7C1BE55";
width = 600;
},
{
anchors = (
{
name = above;
position = "{210, 875}";
},
{
name = lowerRight;
position = "{270, 0}";
}
);
layerId = "B8F43E33-4D80-4AEE-B4E2-DC92E4FCAAE5";
paths = (
{
closed = 1;
nodes = (
"280 0 LINE",
"280 700 LINE",
"140 700 LINE",
"140 0 LINE"
);
},
{
closed = 1;
nodes = (
"350 0 LINE",
"350 70 LINE",
"70 70 LINE",
"70 0 LINE"
);
},
{
closed = 1;
nodes = (
"350 630 LINE",
"350 700 LINE",
"70 700 LINE",
"70 630 LINE"
);
}
);
width = 420;
},
{
anchors = (
{
name = above;
position = "{308, 875}";
},
{
name = lowerRight;
position = "{182, 0}";
}
);
layerId = "198E78DA-6138-42C0-8847-C36925CEE918";
paths = (
{
closed = 1;
nodes = (
"192 0 LINE",
"341 700 LINE",
"201 700 LINE",
"52 0 LINE"
);
},
{
closed = 1;
nodes = (
"227 0 LINE",
"242 70 LINE",
"32 70 LINE",
"17 0 LINE"
);
},
{
closed = 1;
nodes = (
"361 630 LINE",
"376 700 LINE",
"166 700 LINE",
"151 630 LINE"
);
}
);
width = 350;
}
);
},
{
glyphname = napostrophe;
lastChange = "2019-03-04 00:46:57 +0000";
layers = (
{
components = (
{
name = N;
transform = "{1, 0, 0, 1, 147, 0}";
}
);
layerId = "E82D559A-267E-4BF3-BBA1-0778DA3FF57C";
paths = (
{
closed = 1;
nodes = (
"147 560 LINE",
"147 700 LINE",
"35 700 LINE",
"35 588 LINE",
"91 588 LINE",
"35 546 LINE",
"69 502 LINE"
);
}
);
width = 907;
},
{
components = (
{
name = N;
transform = "{1, 0, 0, 1, 147, 0}";
}
);
layerId = "72FC769E-0471-4EB2-9C9D-CA7FFB11AFC9";
paths = (
{
closed = 1;
nodes = (
"147 560 LINE",
"147 700 LINE",
"35 700 LINE",
"35 588 LINE",
"91 588 LINE",
"35 546 LINE",
"69 502 LINE"
);
}
);
width = 1057;
},
{
components = (
{
name = N;
transform = "{1, 0, 0, 1, 147, 0}";
}
);
layerId = "B8F43E33-4D80-4AEE-B4E2-DC92E4FCAAE5";
paths = (
{
closed = 1;
nodes = (
"147 560 LINE",
"147 700 LINE",
"35 700 LINE",
"35 588 LINE",
"91 588 LINE",
"35 546 LINE",
"69 502 LINE"
);
}
);
width = 1247;
},
{
components = (
{
name = N;
transform = "{1, 0, 0, 1, 146, 0}";
}
);
layerId = "198E78DA-6138-42C0-8847-C36925CEE918";
paths = (
{
closed = 1;
nodes = (
"214 560 LINE",
"243 700 LINE",
"131 700 LINE",
"107 588 LINE",
"162 588 LINE",
"99 546 LINE",
"125 502 LINE"
);
}
);
width = 906;
}
);
unicode = 0149;
},
{
glyphname = zero;
lastChange = "2019-03-03 07:58:49 +0000";
layers = (
{
layerId = "72FC769E-0471-4EB2-9C9D-CA7FFB11AFC9";
paths = (
{
closed = 1;
nodes = (
"700 0 LINE",
"840 70 LINE",
"840 630 LINE",
"700 700 LINE",
"210 700 LINE",
"70 630 LINE",
"70 70 LINE",
"210 0 LINE"
);
},
{
closed = 1;
nodes = (
"210 605 LINE",
"165 560 LINE",
"745 560 LINE",
"700 605 LINE",
"700 95 LINE",
"745 140 LINE",
"165 140 LINE",
"210 95 LINE"
);
}
);
width = 910;
},
{
hints = (
{
horizontal = 1;
origin = "{0, 7}";
target = "{1, 6}";
type = Stem;
},
{
horizontal = 1;
origin = "{1, 1}";
target = "{0, 4}";
type = Stem;
},
{
origin = "{0, 6}";
target = "{0, 7}";
type = Stem;
},
{
origin = "{0, 0}";
target = "{0, 1}";
type = Stem;
}
);
layerId = "E82D559A-267E-4BF3-BBA1-0778DA3FF57C";
paths = (
{
closed = 1;
nodes = (
"525 0 LINE",
"665 70 LINE",
"665 630 LINE",
"525 700 LINE",
"210 700 LINE",
"70 630 LINE",
"70 70 LINE",
"210 0 LINE"
);
},
{
closed = 1;
nodes = (
"210 605 LINE",
"165 560 LINE",
"570 560 LINE",
"525 605 LINE",
"525 95 LINE",
"570 140 LINE",
"165 140 LINE",
"210 95 LINE"
);
}
);
width = 735;
},
{
associatedMasterId = "72FC769E-0471-4EB2-9C9D-CA7FFB11AFC9";
layerId = "26724774-F27D-4AF7-90A0-933BB7C1BE55";
width = 600;
},
{
layerId = "B8F43E33-4D80-4AEE-B4E2-DC92E4FCAAE5";
paths = (
{
closed = 1;
nodes = (
"788 0 LINE",
"928 70 LINE",
"928 630 LINE",
"788 700 LINE",
"210 700 LINE",
"70 630 LINE",
"70 70 LINE",
"210 0 LINE"
);
},
{
closed = 1;
nodes = (
"210 605 LINE",
"165 560 LINE",
"833 560 LINE",
"788 605 LINE",
"788 95 LINE",
"833 140 LINE",
"165 140 LINE",
"210 95 LINE"
);
}
);
width = 998;
},
{
layerId = "198E78DA-6138-42C0-8847-C36925CEE918";
paths = (
{
closed = 1;
nodes = (
"526 0 LINE",
"680 70 LINE",
"798 630 LINE",
"673 700 LINE",
"358 700 LINE",
"203 630 LINE",
"85 70 LINE",
"211 0 LINE"
);
},
{
closed = 1;
nodes = (
"338 605 LINE",
"283 560 LINE",
"688 560 LINE",
"653 605 LINE",
"546 95 LINE",
"601 140 LINE",
"196 140 LINE",
"231 95 LINE"
);
}
);
width = 735;
}
);
unicode = 0030;
},
{
glyphname = one;
lastChange = "2019-03-03 07:58:52 +0000";
layers = (
{
layerId = "72FC769E-0471-4EB2-9C9D-CA7FFB11AFC9";
paths = (
{
closed = 1;
nodes = (
"210 0 LINE",
"210 700 LINE",
"70 700 LINE",
"70 0 LINE"
);
}
);
width = 280;
},
{
hints = (
{
origin = "{0, 3}";
target = "{0, 0}";
type = Stem;
}
);
layerId = "E82D559A-267E-4BF3-BBA1-0778DA3FF57C";
paths = (
{
closed = 1;
nodes = (
"210 0 LINE",
"210 700 LINE",
"70 700 LINE",
"70 0 LINE"
);
}
);
width = 280;
},
{
associatedMasterId = "72FC769E-0471-4EB2-9C9D-CA7FFB11AFC9";
layerId = "26724774-F27D-4AF7-90A0-933BB7C1BE55";
width = 600;
},
{
layerId = "B8F43E33-4D80-4AEE-B4E2-DC92E4FCAAE5";
paths = (
{
closed = 1;
nodes = (
"210 0 LINE",
"210 700 LINE",
"70 700 LINE",
"70 0 LINE"
);
}
);
width = 280;
},
{
layerId = "198E78DA-6138-42C0-8847-C36925CEE918";
paths = (
{
closed = 1;
nodes = (
"210 0 LINE",
"359 700 LINE",
"219 700 LINE",
"70 0 LINE"
);
}
);
width = 280;
}
);
unicode = 0031;
},
{
glyphname = two;
lastChange = "2019-03-05 04:34:04 +0000";
layers = (
{
layerId = "E82D559A-267E-4BF3-BBA1-0778DA3FF57C";
paths = (
{
closed = 1;
nodes = (
"210 0 LINE",
"210 325 LINE",
"165 280 LINE",
"525 280 LINE",
"665 350 LINE",
"665 630 LINE",
"525 700 LINE",
"210 700 LINE",
"70 630 LINE",
"70 490 LINE",
"210 490 LINE",
"210 605 LINE",
"165 560 LINE",
"570 560 LINE",
"525 605 LINE",
"525 377 LINE",
"570 420 LINE",
"210 420 LINE",
"70 350 LINE",
"70 0 LINE"
);
},
{
closed = 1;
nodes = (
"665 0 LINE",
"665 140 LINE",
"140 140 LINE",
"140 0 LINE"
);
}
);
width = 735;
},
{
layerId = "72FC769E-0471-4EB2-9C9D-CA7FFB11AFC9";
paths = (
{
closed = 1;
nodes = (
"210 0 LINE",
"210 325 LINE",
"165 280 LINE",
"630 280 LINE",
"770 350 LINE",
"770 630 LINE",
"630 700 LINE",
"210 700 LINE",
"70 630 LINE",
"70 490 LINE",
"210 490 LINE",
"210 605 LINE",
"165 560 LINE",
"675 560 LINE",
"630 605 LINE",
"630 377 LINE",
"675 420 LINE",
"210 420 LINE",
"70 350 LINE",
"70 0 LINE"
);
},
{
closed = 1;
nodes = (
"770 0 LINE",
"770 140 LINE",
"140 140 LINE",
"140 0 LINE"
);
}
);
width = 840;
},
{
layerId = "B8F43E33-4D80-4AEE-B4E2-DC92E4FCAAE5";
paths = (
{
closed = 1;
nodes = (
"210 0 LINE",
"210 325 LINE",
"165 280 LINE",
"788 280 LINE",
"928 350 LINE",
"928 630 LINE",
"788 700 LINE",
"210 700 LINE",
"70 630 LINE",
"70 490 LINE",
"210 490 LINE",
"210 605 LINE",
"165 560 LINE",
"833 560 LINE",
"788 605 LINE",
"788 377 LINE",
"833 420 LINE",
"210 420 LINE",
"70 350 LINE",
"70 0 LINE"
);
},
{
closed = 1;
nodes = (
"928 0 LINE",
"928 140 LINE",
"140 140 LINE",
"140 0 LINE"
);
}
);
width = 998;
},
{
layerId = "198E78DA-6138-42C0-8847-C36925CEE918";
paths = (
{
closed = 1;
nodes = (
"157 0 LINE",
"226 325 LINE",
"171 280 LINE",
"531 280 LINE",
"686 350 LINE",
"746 630 LINE",
"620 700 LINE",
"305 700 LINE",
"151 630 LINE",
"121 490 LINE",
"261 490 LINE",
"285 605 LINE",
"231 560 LINE",
"636 560 LINE",
"600 605 LINE",
"552 377 LINE",
"606 420 LINE",
"246 420 LINE",
"91 350 LINE",
"17 0 LINE"
);
},
{
closed = 1;
nodes = (
"612 0 LINE",
"641 140 LINE",
"116 140 LINE",
"87 0 LINE"
);
}
);
width = 735;
}
);
unicode = 0032;
},
{
glyphname = three;
lastChange = "2019-03-03 07:59:00 +0000";
layers = (
{
layerId = "72FC769E-0471-4EB2-9C9D-CA7FFB11AFC9";
paths = (
{
closed = 1;
nodes = (
"630 0 LINE",
"770 70 LINE",
"770 280 LINE",
"668 382 LINE",
"668 318 LINE",
"770 420 LINE",
"770 630 LINE",
"630 700 LINE",
"210 700 LINE",
"70 630 LINE",
"70 490 LINE",
"210 490 LINE",
"210 605 LINE",
"165 560 LINE",
"665 560 LINE",
"620 605 LINE",
"620 375 LINE",
"665 420 LINE",
"350 420 LINE",
"350 280 LINE",
"665 280 LINE",
"620 325 LINE",
"620 95 LINE",
"665 140 LINE",
"165 140 LINE",
"210 95 LINE",
"210 210 LINE",
"70 210 LINE",
"70 70 LINE",
"210 0 LINE"
);
}
);
width = 840;
},
{
hints = (
{
horizontal = 1;
origin = "{0, 29}";
target = "{0, 24}";
type = Stem;
},
{
horizontal = 1;
origin = "{0, 19}";
target = "{0, 18}";
type = Stem;
},
{
horizontal = 1;
origin = "{0, 13}";
target = "{0, 8}";
type = Stem;
},
{
origin = "{0, 28}";
target = "{0, 29}";
type = Stem;
},
{
origin = "{0, 22}";
target = "{0, 1}";
type = Stem;
}
);
layerId = "E82D559A-267E-4BF3-BBA1-0778DA3FF57C";
paths = (
{
closed = 1;
nodes = (
"525 0 LINE",
"665 70 LINE",
"665 280 LINE",
"563 382 LINE",
"563 318 LINE",
"665 420 LINE",
"665 630 LINE",
"525 700 LINE",
"210 700 LINE",
"70 630 LINE",
"70 490 LINE",
"210 490 LINE",
"210 605 LINE",
"165 560 LINE",
"560 560 LINE",
"515 605 LINE",
"515 375 LINE",
"560 420 LINE",
"280 420 LINE",
"280 280 LINE",
"560 280 LINE",
"515 325 LINE",
"515 95 LINE",
"560 140 LINE",
"165 140 LINE",
"210 95 LINE",
"210 210 LINE",
"70 210 LINE",
"70 70 LINE",
"210 0 LINE"
);
}
);
width = 735;
},
{
associatedMasterId = "72FC769E-0471-4EB2-9C9D-CA7FFB11AFC9";
layerId = "26724774-F27D-4AF7-90A0-933BB7C1BE55";
width = 600;
},
{
layerId = "B8F43E33-4D80-4AEE-B4E2-DC92E4FCAAE5";
paths = (
{
closed = 1;
nodes = (
"787.5 0 LINE",
"927.5 70 LINE",
"927.5 280 LINE",
"825.5 382 LINE",
"825.5 318 LINE",
"927.5 420 LINE",
"927.5 630 LINE",
"787.5 700 LINE",
"210 700 LINE",
"70 630 LINE",
"70 490 LINE",
"210 490 LINE",
"210 605 LINE",
"165 560 LINE",
"822.5 560 LINE",
"777.5 605 LINE",
"777.5 375 LINE",
"822.5 420 LINE",
"455 420 LINE",
"455 280 LINE",
"822.5 280 LINE",
"777.5 325 LINE",
"777.5 95 LINE",
"822.5 140 LINE",
"165 140 LINE",
"210 95 LINE",
"210 210 LINE",
"70 210 LINE",
"70 70 LINE",
"210 0 LINE"
);
}
);
width = 997.5;
},
{
layerId = "198E78DA-6138-42C0-8847-C36925CEE918";
paths = (
{
closed = 1;
nodes = (
"526 0 LINE",
"680 70 LINE",
"723 280 LINE",
"643 382 LINE",
"632 318 LINE",
"755 420 LINE",
"798 630 LINE",
"673 700 LINE",
"358 700 LINE",
"203 630 LINE",
"174 490 LINE",
"314 490 LINE",
"338 605 LINE",
"283 560 LINE",
"678 560 LINE",
"643 605 LINE",
"596 375 LINE",
"650 420 LINE",
"369 420 LINE",
"340 280 LINE",
"618 280 LINE",
"583 325 LINE",
"536 95 LINE",
"591 140 LINE",
"196 140 LINE",
"231 95 LINE",
"255 210 LINE",
"115 210 LINE",
"85 70 LINE",
"211 0 LINE"
);
}
);
width = 735;
}
);
unicode = 0033;
},
{
glyphname = four;
lastChange = "2019-03-03 07:59:16 +0000";
layers = (
{
layerId = "72FC769E-0471-4EB2-9C9D-CA7FFB11AFC9";
paths = (
{
closed = 1;
nodes = (
"735 0 LINE",
"735 700 LINE",
"517 700 LINE",
"35 280 LINE",
"70 140 LINE",
"855 140 LINE",
"855 280 LINE",
"201 280 LINE",
"212 250 LINE",
"629 613 LINE",
"595 628 LINE",
"595 0 LINE"
);
}
);
width = 925;
},
{
hints = (
{
horizontal = 1;
origin = "{0, 4}";
target = "{0, 7}";
type = Stem;
},
{
origin = "{0, 11}";
target = "{0, 0}";
type = Stem;
}
);
layerId = "E82D559A-267E-4BF3-BBA1-0778DA3FF57C";
paths = (
{
closed = 1;
nodes = (
"600 0 LINE",
"600 700 LINE",
"380 700 LINE",
"35 253 LINE",
"90 140 LINE",
"690 140 LINE",
"690 280 LINE",
"177 280 LINE",
"195 244 LINE",
"487 626 LINE",
"460 635 LINE",
"460 0 LINE"
);
}
);
width = 760;
},
{
associatedMasterId = "72FC769E-0471-4EB2-9C9D-CA7FFB11AFC9";
layerId = "26724774-F27D-4AF7-90A0-933BB7C1BE55";
width = 600;
},
{
layerId = "B8F43E33-4D80-4AEE-B4E2-DC92E4FCAAE5";
paths = (
{
closed = 1;
nodes = (
"937.5 0 LINE",
"937.5 700 LINE",
"722.5 700 LINE",
"35 320.5 LINE",
"40 140 LINE",
"1102.5 140 LINE",
"1102.5 280 LINE",
"237 280 LINE",
"237.5 259 LINE",
"842 593.5 LINE",
"797.5 617.5 LINE",
"797.5 0 LINE"
);
}
);
width = 1172.5;
},
{
layerId = "198E78DA-6138-42C0-8847-C36925CEE918";
paths = (
{
closed = 1;
nodes = (
"600 0 LINE",
"749 700 LINE",
"528 700 LINE",
"89 253 LINE",
"121 140 LINE",
"720 140 LINE",
"750 280 LINE",
"238 280 LINE",
"249 244 LINE",
"621 626 LINE",
"595 635 LINE",
"460 0 LINE"
);
}
);
width = 760;
}
);
unicode = 0034;
},
{
glyphname = five;
lastChange = "2019-03-05 04:19:56 +0000";
layers = (
{
layerId = "72FC769E-0471-4EB2-9C9D-CA7FFB11AFC9";
paths = (
{
closed = 1;
nodes = (
"770 560 LINE",
"770 700 LINE",
"140 700 LINE",
"140 560 LINE"
);
},
{
closed = 1;
nodes = (
"210 315 LINE",
"675 315 LINE",
"630 358 LINE",
"630 95 LINE",
"675 140 LINE",
"165 140 LINE",
"210 95 LINE",
"210 210 LINE",
"70 210 LINE",
"70 70 LINE",
"210 0 LINE",
"630 0 LINE",
"770 70 LINE",
"770 385 LINE",
"630 455 LINE",
"165 455 LINE",
"210 410 LINE",
"210 700 LINE",
"70 700 LINE",
"70 385 LINE"
);
}
);
width = 840;
},
{
hints = (
{
horizontal = 1;
origin = "{1, 10}";
target = "{1, 5}";
type = Stem;
},
{
horizontal = 1;
origin = "{1, 0}";
target = "{1, 15}";
type = Stem;
},
{
horizontal = 1;
origin = "{0, 3}";
target = "{1, 18}";
type = Stem;
},
{
origin = "{1, 9}";
target = "{1, 10}";
type = Stem;
},
{
origin = "{1, 11}";
target = "{1, 12}";
type = Stem;
}
);
layerId = "E82D559A-267E-4BF3-BBA1-0778DA3FF57C";
paths = (
{
closed = 1;
nodes = (
"665 560 LINE",
"665 700 LINE",
"140 700 LINE",
"140 560 LINE"
);
},
{
closed = 1;
nodes = (
"210 315 LINE",
"570 315 LINE",
"525 358 LINE",
"525 95 LINE",
"570 140 LINE",
"165 140 LINE",
"210 95 LINE",
"210 210 LINE",
"70 210 LINE",
"70 70 LINE",
"210 0 LINE",
"525 0 LINE",
"665 70 LINE",
"665 385 LINE",
"525 455 LINE",
"165 455 LINE",
"210 410 LINE",
"210 700 LINE",
"70 700 LINE",
"70 385 LINE"
);
}
);
width = 735;
},
{
associatedMasterId = "72FC769E-0471-4EB2-9C9D-CA7FFB11AFC9";
layerId = "26724774-F27D-4AF7-90A0-933BB7C1BE55";
width = 600;
},
{
layerId = "B8F43E33-4D80-4AEE-B4E2-DC92E4FCAAE5";
paths = (
{
closed = 1;
nodes = (
"927.5 560 LINE",
"927.5 700 LINE",
"140 700 LINE",
"140 560 LINE"
);
},
{
closed = 1;
nodes = (
"210 315 LINE",
"832.5 315 LINE",
"787.5 358 LINE",
"787.5 95 LINE",
"832.5 140 LINE",
"165 140 LINE",
"210 95 LINE",
"210 210 LINE",
"70 210 LINE",
"70 70 LINE",
"210 0 LINE",
"787.5 0 LINE",
"927.5 70 LINE",
"927.5 385 LINE",
"787.5 455 LINE",
"165 455 LINE",
"210 410 LINE",
"210 700 LINE",
"70 700 LINE",
"70 385 LINE"
);
}
);
width = 997.5;
},
{
layerId = "198E78DA-6138-42C0-8847-C36925CEE918";
paths = (
{
closed = 1;
nodes = (
"731 560 LINE",
"761 700 LINE",
"236 700 LINE",
"206 560 LINE"
);
},
{
closed = 1;
nodes = (
"224 315 LINE",
"583 315 LINE",
"547 358 LINE",
"493 95 LINE",
"548 140 LINE",
"143 140 LINE",
"178 95 LINE",
"202 210 LINE",
"62 210 LINE",
"32 70 LINE",
"158 0 LINE",
"473 0 LINE",
"627 70 LINE",
"693 385 LINE",
"568 455 LINE",
"210 455 LINE",
"245 410 LINE",
"306 700 LINE",
"166 700 LINE",
"99 385 LINE"
);
}
);
width = 735;
}
);
unicode = 0035;
},
{
glyphname = six;
lastChange = "2019-03-03 07:59:23 +0000";
layers = (
{
layerId = "72FC769E-0471-4EB2-9C9D-CA7FFB11AFC9";
paths = (
{
closed = 1;
nodes = (
"630 0 LINE",
"770 70 LINE",
"770 350 LINE",
"630 420 LINE",
"140 420 LINE",
"140 280 LINE",
"675 280 LINE",
"630 325 LINE",
"630 95 LINE",
"675 140 LINE",
"165 140 LINE",
"210 95 LINE",
"210 605 LINE",
"165 560 LINE",
"675 560 LINE",
"630 605 LINE",
"630 525 LINE",
"770 525 LINE",
"770 630 LINE",
"630 700 LINE",
"210 700 LINE",
"70 630 LINE",
"70 70 LINE",
"210 0 LINE"
);
}
);
width = 840;
},
{
hints = (
{
horizontal = 1;
origin = "{0, 23}";
target = "{0, 10}";
type = Stem;
},
{
horizontal = 1;
origin = "{0, 5}";
target = "{0, 4}";
type = Stem;
},
{
horizontal = 1;
origin = "{0, 13}";
target = "{0, 20}";
type = Stem;
},
{
origin = "{0, 22}";
target = "{0, 23}";
type = Stem;
},
{
origin = "{0, 0}";
target = "{0, 1}";
type = Stem;
}
);
layerId = "E82D559A-267E-4BF3-BBA1-0778DA3FF57C";
paths = (
{
closed = 1;
nodes = (
"525 0 LINE",
"665 70 LINE",
"665 350 LINE",
"525 420 LINE",
"140 420 LINE",
"140 280 LINE",
"570 280 LINE",
"525 325 LINE",
"525 95 LINE",
"570 140 LINE",
"165 140 LINE",
"210 95 LINE",
"210 605 LINE",
"165 560 LINE",
"570 560 LINE",
"525 605 LINE",
"525 525 LINE",
"665 525 LINE",
"665 630 LINE",
"525 700 LINE",
"210 700 LINE",
"70 630 LINE",
"70 70 LINE",
"210 0 LINE"
);
}
);
width = 735;
},
{
associatedMasterId = "72FC769E-0471-4EB2-9C9D-CA7FFB11AFC9";
layerId = "26724774-F27D-4AF7-90A0-933BB7C1BE55";
width = 600;
},
{
layerId = "B8F43E33-4D80-4AEE-B4E2-DC92E4FCAAE5";
paths = (
{
closed = 1;
nodes = (
"787.5 0 LINE",
"927.5 70 LINE",
"927.5 350 LINE",
"787.5 420 LINE",
"140 420 LINE",
"140 280 LINE",
"832.5 280 LINE",
"787.5 325 LINE",
"787.5 95 LINE",
"832.5 140 LINE",
"165 140 LINE",
"210 95 LINE",
"210 605 LINE",
"165 560 LINE",
"832.5 560 LINE",
"787.5 605 LINE",
"787.5 525 LINE",
"927.5 525 LINE",
"927.5 630 LINE",
"787.5 700 LINE",
"210 700 LINE",
"70 630 LINE",
"70 70 LINE",
"210 0 LINE"
);
}
);
width = 997.5;
},
{
layerId = "198E78DA-6138-42C0-8847-C36925CEE918";
paths = (
{
closed = 1;
nodes = (
"526 0 LINE",
"680 70 LINE",
"739 350 LINE",
"614 420 LINE",
"229 420 LINE",
"200 280 LINE",
"628 280 LINE",
"593 325 LINE",
"546 95 LINE",
"601 140 LINE",
"196 140 LINE",
"231 95 LINE",
"338 605 LINE",
"283 560 LINE",
"688 560 LINE",
"653 605 LINE",
"637 525 LINE",
"777 525 LINE",
"798 630 LINE",
"673 700 LINE",
"358 700 LINE",
"203 630 LINE",
"85 70 LINE",
"211 0 LINE"
);
}
);
width = 735;
}
);
unicode = 0036;
},
{
glyphname = seven;
lastChange = "2019-03-03 07:59:28 +0000";
layers = (
{
layerId = "72FC769E-0471-4EB2-9C9D-CA7FFB11AFC9";
paths = (
{
closed = 1;
nodes = (
"428 0 LINE",
"806 606 LINE",
"750 700 LINE",
"70 700 LINE",
"70 490 LINE",
"210 490 LINE",
"210 605 LINE",
"165 560 LINE",
"657 560 LINE",
"636 598 LINE",
"263 0 LINE"
);
}
);
width = 841;
},
{
hints = (
{
horizontal = 1;
origin = "{0, 7}";
target = "{0, 3}";
type = Stem;
},
{
origin = "{0, 4}";
target = "{0, 5}";
type = Stem;
}
);
layerId = "E82D559A-267E-4BF3-BBA1-0778DA3FF57C";
paths = (
{
closed = 1;
nodes = (
"379 0 LINE",
"664 582 LINE",
"606 700 LINE",
"70 700 LINE",
"70 490 LINE",
"210 490 LINE",
"210 605 LINE",
"165 560 LINE",
"541 560 LINE",
"516 600 LINE",
"222 0 LINE"
);
}
);
width = 699;
},
{
associatedMasterId = "72FC769E-0471-4EB2-9C9D-CA7FFB11AFC9";
layerId = "26724774-F27D-4AF7-90A0-933BB7C1BE55";
width = 600;
},
{
layerId = "B8F43E33-4D80-4AEE-B4E2-DC92E4FCAAE5";
paths = (
{
closed = 1;
nodes = (
"501.5 0 LINE",
"1019 642 LINE",
"966 700 LINE",
"70 700 LINE",
"70 490 LINE",
"210 490 LINE",
"210 605 LINE",
"165 560 LINE",
"831 560 LINE",
"816 595 LINE",
"324.5 0 LINE"
);
}
);
width = 1054;
},
{
layerId = "198E78DA-6138-42C0-8847-C36925CEE918";
paths = (
{
closed = 1;
nodes = (
"380 0 LINE",
"788 582 LINE",
"754 700 LINE",
"219 700 LINE",
"174 490 LINE",
"314 490 LINE",
"338 605 LINE",
"283 560 LINE",
"659 560 LINE",
"641 600 LINE",
"221 0 LINE"
);
}
);
width = 699;
}
);
unicode = 0037;
},
{
glyphname = eight;
lastChange = "2019-03-03 07:59:32 +0000";
layers = (
{
layerId = "72FC769E-0471-4EB2-9C9D-CA7FFB11AFC9";
paths = (
{
closed = 1;
nodes = (
"630 0 LINE",
"770 70 LINE",
"770 280 LINE",
"668 382 LINE",
"668 318 LINE",
"770 420 LINE",
"770 630 LINE",
"630 700 LINE",
"210 700 LINE",
"70 630 LINE",
"70 420 LINE",
"172 318 LINE",
"172 382 LINE",
"70 280 LINE",
"70 70 LINE",
"210 0 LINE"
);
},
{
closed = 1;
nodes = (
"220 325 LINE",
"175 280 LINE",
"665 280 LINE",
"620 325 LINE",
"620 95 LINE",
"665 140 LINE",
"175 140 LINE",
"220 95 LINE"
);
},
{
closed = 1;
nodes = (
"220 605 LINE",
"175 560 LINE",
"665 560 LINE",
"620 605 LINE",
"620 375 LINE",
"665 420 LINE",
"175 420 LINE",
"220 375 LINE"
);
}
);
width = 840;
},
{
hints = (
{
horizontal = 1;
origin = "{0, 15}";
target = "{1, 6}";
type = Stem;
},
{
horizontal = 1;
origin = "{0, 13}";
target = "{0, 10}";
type = Stem;
},
{
horizontal = 1;
origin = "{2, 1}";
target = "{0, 8}";
type = Stem;
},
{
origin = "{0, 14}";
target = "{1, 7}";
type = Stem;
},
{
origin = "{1, 4}";
target = "{0, 1}";
type = Stem;
}
);
layerId = "E82D559A-267E-4BF3-BBA1-0778DA3FF57C";
paths = (
{
closed = 1;
nodes = (
"525 0 LINE",
"665 70 LINE",
"665 280 LINE",
"563 382 LINE",
"563 318 LINE",
"665 420 LINE",
"665 630 LINE",
"525 700 LINE",
"210 700 LINE",
"70 630 LINE",
"70 420 LINE",
"172 318 LINE",
"172 382 LINE",
"70 280 LINE",
"70 70 LINE",
"210 0 LINE"
);
},
{
closed = 1;
nodes = (
"220 325 LINE",
"175 280 LINE",
"560 280 LINE",
"515 325 LINE",
"515 95 LINE",
"560 140 LINE",
"175 140 LINE",
"220 95 LINE"
);
},
{
closed = 1;
nodes = (
"220 605 LINE",
"175 560 LINE",
"560 560 LINE",
"515 605 LINE",
"515 375 LINE",
"560 420 LINE",
"175 420 LINE",
"220 375 LINE"
);
}
);
width = 735;
},
{
associatedMasterId = "72FC769E-0471-4EB2-9C9D-CA7FFB11AFC9";
layerId = "26724774-F27D-4AF7-90A0-933BB7C1BE55";
width = 600;
},
{
layerId = "B8F43E33-4D80-4AEE-B4E2-DC92E4FCAAE5";
paths = (
{
closed = 1;
nodes = (
"787.5 0 LINE",
"927.5 70 LINE",
"927.5 280 LINE",
"825.5 382 LINE",
"825.5 318 LINE",
"927.5 420 LINE",
"927.5 630 LINE",
"787.5 700 LINE",
"210 700 LINE",
"70 630 LINE",
"70 420 LINE",
"172 318 LINE",
"172 382 LINE",
"70 280 LINE",
"70 70 LINE",
"210 0 LINE"
);
},
{
closed = 1;
nodes = (
"220 325 LINE",
"175 280 LINE",
"822.5 280 LINE",
"777.5 325 LINE",
"777.5 95 LINE",
"822.5 140 LINE",
"175 140 LINE",
"220 95 LINE"
);
},
{
closed = 1;
nodes = (
"220 605 LINE",
"175 560 LINE",
"822.5 560 LINE",
"777.5 605 LINE",
"777.5 375 LINE",
"822.5 420 LINE",
"175 420 LINE",
"220 375 LINE"
);
}
);
width = 997.5;
},
{
layerId = "198E78DA-6138-42C0-8847-C36925CEE918";
paths = (
{
closed = 1;
nodes = (
"526 0 LINE",
"680 70 LINE",
"723 280 LINE",
"643 382 LINE",
"632 318 LINE",
"755 420 LINE",
"798 630 LINE",
"673 700 LINE",
"358 700 LINE",
"203 630 LINE",
"160 420 LINE",
"241 318 LINE",
"252 382 LINE",
"128 280 LINE",
"85 70 LINE",
"211 0 LINE"
);
},
{
closed = 1;
nodes = (
"288 325 LINE",
"233 280 LINE",
"618 280 LINE",
"583 325 LINE",
"536 95 LINE",
"591 140 LINE",
"206 140 LINE",
"241 95 LINE"
);
},
{
closed = 1;
nodes = (
"348 605 LINE",
"293 560 LINE",
"678 560 LINE",
"643 605 LINE",
"596 375 LINE",
"650 420 LINE",
"265 420 LINE",
"301 375 LINE"
);
}
);
width = 735;
}
);
unicode = 0038;
},
{
glyphname = nine;
lastChange = "2019-03-03 07:59:35 +0000";
layers = (
{
layerId = "72FC769E-0471-4EB2-9C9D-CA7FFB11AFC9";
paths = (
{
closed = 1;
nodes = (
"630 0 LINE",
"770 70 LINE",
"770 630 LINE",
"630 700 LINE",
"210 700 LINE",
"70 630 LINE",
"70 350 LINE",
"210 280 LINE",
"700 280 LINE",
"700 420 LINE",
"165 420 LINE",
"210 375 LINE",
"210 605 LINE",
"165 560 LINE",
"675 560 LINE",
"630 605 LINE",
"630 95 LINE",
"675 140 LINE",
"165 140 LINE",
"210 95 LINE",
"210 175 LINE",
"70 175 LINE",
"70 70 LINE",
"210 0 LINE"
);
}
);
width = 840;
},
{
hints = (
{
horizontal = 1;
origin = "{0, 23}";
target = "{0, 18}";
type = Stem;
},
{
horizontal = 1;
origin = "{0, 7}";
target = "{0, 10}";
type = Stem;
},
{
horizontal = 1;
origin = "{0, 13}";
target = "{0, 4}";
type = Stem;
},
{
origin = "{0, 22}";
target = "{0, 23}";
type = Stem;
},
{
origin = "{0, 0}";
target = "{0, 1}";
type = Stem;
}
);
layerId = "E82D559A-267E-4BF3-BBA1-0778DA3FF57C";
paths = (
{
closed = 1;
nodes = (
"525 0 LINE",
"665 70 LINE",
"665 630 LINE",
"525 700 LINE",
"210 700 LINE",
"70 630 LINE",
"70 350 LINE",
"210 280 LINE",
"595 280 LINE",
"595 420 LINE",
"165 420 LINE",
"210 375 LINE",
"210 605 LINE",
"165 560 LINE",
"570 560 LINE",
"525 605 LINE",
"525 95 LINE",
"570 140 LINE",
"165 140 LINE",
"210 95 LINE",
"210 175 LINE",
"70 175 LINE",
"70 70 LINE",
"210 0 LINE"
);
}
);
width = 735;
},
{
associatedMasterId = "72FC769E-0471-4EB2-9C9D-CA7FFB11AFC9";
layerId = "26724774-F27D-4AF7-90A0-933BB7C1BE55";
width = 600;
},
{
layerId = "B8F43E33-4D80-4AEE-B4E2-DC92E4FCAAE5";
paths = (
{
closed = 1;
nodes = (
"788 0 LINE",
"928 70 LINE",
"928 630 LINE",
"788 700 LINE",
"210 700 LINE",
"70 630 LINE",
"70 350 LINE",
"210 280 LINE",
"858 280 LINE",
"858 420 LINE",
"165 420 LINE",
"210 375 LINE",
"210 605 LINE",
"165 560 LINE",
"833 560 LINE",
"788 605 LINE",
"788 95 LINE",
"833 140 LINE",
"165 140 LINE",
"210 95 LINE",
"210 175 LINE",
"70 175 LINE",
"70 70 LINE",
"210 0 LINE"
);
}
);
width = 997.5;
},
{
layerId = "198E78DA-6138-42C0-8847-C36925CEE918";
paths = (
{
closed = 1;
nodes = (
"526 0 LINE",
"680 70 LINE",
"798 630 LINE",
"673 700 LINE",
"358 700 LINE",
"203 630 LINE",
"145 350 LINE",
"270 280 LINE",
"655 280 LINE",
"684 420 LINE",
"255 420 LINE",
"291 375 LINE",
"338 605 LINE",
"283 560 LINE",
"688 560 LINE",
"653 605 LINE",
"546 95 LINE",
"601 140 LINE",
"196 140 LINE",
"231 95 LINE",
"247 175 LINE",
"107 175 LINE",
"85 70 LINE",
"211 0 LINE"
);
}
);
width = 735;
}
);
unicode = 0039;
},
{
glyphname = one.ss01;
lastChange = "2019-03-03 20:46:48 +0000";
layers = (
{
layerId = "72FC769E-0471-4EB2-9C9D-CA7FFB11AFC9";
paths = (
{
closed = 1;
nodes = (
"394 0 LINE",
"394 700 LINE",
"254 700 LINE",
"254 0 LINE"
);
},
{
closed = 1;
nodes = (
"127 465 LINE",
"394 700 LINE",
"182 700 LINE",
"35 570 LINE"
);
}
);
width = 464;
},
{
hints = (
{
origin = "{0, 3}";
target = "{0, 0}";
type = Stem;
}
);
layerId = "E82D559A-267E-4BF3-BBA1-0778DA3FF57C";
paths = (
{
closed = 1;
nodes = (
"394 0 LINE",
"394 700 LINE",
"254 700 LINE",
"254 0 LINE"
);
},
{
closed = 1;
nodes = (
"127 465 LINE",
"394 700 LINE",
"182 700 LINE",
"35 570 LINE"
);
}
);
width = 464;
},
{
associatedMasterId = "72FC769E-0471-4EB2-9C9D-CA7FFB11AFC9";
layerId = "26724774-F27D-4AF7-90A0-933BB7C1BE55";
width = 600;
},
{
layerId = "B8F43E33-4D80-4AEE-B4E2-DC92E4FCAAE5";
paths = (
{
closed = 1;
nodes = (
"394 0 LINE",
"394 700 LINE",
"254 700 LINE",
"254 0 LINE"
);
},
{
closed = 1;
nodes = (
"127 465 LINE",
"394 700 LINE",
"182 700 LINE",
"35 570 LINE"
);
}
);
width = 464;
},
{
layerId = "198E78DA-6138-42C0-8847-C36925CEE918";
paths = (
{
closed = 1;
nodes = (
"394 0 LINE",
"543 700 LINE",
"403 700 LINE",
"254 0 LINE"
);
},
{
closed = 1;
nodes = (
"228 465 LINE",
"544 700 LINE",
"330 700 LINE",
"156 570 LINE"
);
}
);
width = 464;
}
);
},
{
glyphname = two.ss01;
lastChange = "2019-03-05 04:15:57 +0000";
layers = (
{
layerId = "72FC769E-0471-4EB2-9C9D-CA7FFB11AFC9";
paths = (
{
closed = 1;
nodes = (
"770 0 LINE",
"770 140 LINE",
"285 140 LINE",
"292 116 LINE",
"770 420 LINE",
"770 630 LINE",
"630 700 LINE",
"210 700 LINE",
"70 630 LINE",
"70 490 LINE",
"210 490 LINE",
"210 605 LINE",
"165 560 LINE",
"675 560 LINE",
"630 605 LINE",
"630 496 LINE",
"70 140 LINE",
"110 0 LINE"
);
}
);
width = 840;
},
{
hints = (
{
horizontal = 1;
origin = "{0, 17}";
target = "{0, 2}";
type = Stem;
},
{
horizontal = 1;
origin = "{0, 12}";
target = "{0, 7}";
type = Stem;
},
{
origin = "{0, 9}";
target = "{0, 10}";
type = Stem;
},
{
origin = "{0, 15}";
target = "{0, 0}";
type = Stem;
}
);
layerId = "E82D559A-267E-4BF3-BBA1-0778DA3FF57C";
paths = (
{
closed = 1;
nodes = (
"665 0 LINE",
"665 140 LINE",
"285 140 LINE",
"292 116 LINE",
"665 440 LINE",
"665 630 LINE",
"525 700 LINE",
"210 700 LINE",
"70 630 LINE",
"70 490 LINE",
"210 490 LINE",
"210 605 LINE",
"165 560 LINE",
"570 560 LINE",
"525 605 LINE",
"525 501 LINE",
"76 108 LINE",
"120 0 LINE"
);
}
);
width = 735;
},
{
associatedMasterId = "72FC769E-0471-4EB2-9C9D-CA7FFB11AFC9";
layerId = "26724774-F27D-4AF7-90A0-933BB7C1BE55";
width = 600;
},
{
layerId = "B8F43E33-4D80-4AEE-B4E2-DC92E4FCAAE5";
paths = (
{
closed = 1;
nodes = (
"927.5 0 LINE",
"927.5 140 LINE",
"285 140 LINE",
"292 116 LINE",
"927.5 390 LINE",
"927.5 630 LINE",
"787.5 700 LINE",
"210 700 LINE",
"70 630 LINE",
"70 490 LINE",
"210 490 LINE",
"210 605 LINE",
"165 560 LINE",
"832.5 560 LINE",
"787.5 605 LINE",
"787.5 488.5 LINE",
"61 188 LINE",
"95 0 LINE"
);
}
);
width = 997.5;
},
{
layerId = "198E78DA-6138-42C0-8847-C36925CEE918";
paths = (
{
closed = 1;
nodes = (
"665 0 LINE",
"695 140 LINE",
"316 140 LINE",
"318 116 LINE",
"759 440 LINE",
"798 630 LINE",
"673 700 LINE",
"358 700 LINE",
"203 630 LINE",
"174 490 LINE",
"314 490 LINE",
"338 605 LINE",
"283 560 LINE",
"688 560 LINE",
"653 605 LINE",
"631 501 LINE",
"99 108 LINE",
"121 0 LINE"
);
}
);
width = 735;
}
);
},
{
glyphname = zero.zero;
lastChange = "2019-03-03 20:46:48 +0000";
layers = (
{
components = (
{
name = zero;
}
);
layerId = "72FC769E-0471-4EB2-9C9D-CA7FFB11AFC9";
paths = (
{
closed = 1;
nodes = (
"785 535 LINE",
"695 643 LINE",
"126 165 LINE",
"216 57 LINE"
);
}
);
width = 910;
},
{
components = (
{
name = zero;
}
);
layerId = "E82D559A-267E-4BF3-BBA1-0778DA3FF57C";
paths = (
{
closed = 1;
nodes = (
"608 570 LINE",
"493 651 LINE",
"128 130 LINE",
"243 49 LINE"
);
}
);
width = 735;
},
{
associatedMasterId = "72FC769E-0471-4EB2-9C9D-CA7FFB11AFC9";
layerId = "26724774-F27D-4AF7-90A0-933BB7C1BE55";
width = 600;
},
{
components = (
{
alignment = -1;
name = zero;
}
);
layerId = "B8F43E33-4D80-4AEE-B4E2-DC92E4FCAAE5";
paths = (
{
closed = 1;
nodes = (
"844 507 LINE",
"764 621 LINE",
"154 194 LINE",
"234 80 LINE"
);
}
);
width = 998;
},
{
components = (
{
name = zero;
}
);
layerId = "198E78DA-6138-42C0-8847-C36925CEE918";
paths = (
{
closed = 1;
nodes = (
"729 570 LINE",
"629 651 LINE",
"155 130 LINE",
"255 49 LINE"
);
}
);
width = 735;
}
);
leftMetricsKey = zero;
rightMetricsKey = zero;
},
{
glyphname = period;
lastChange = "2019-03-04 05:04:03 +0000";
layers = (
{
layerId = "72FC769E-0471-4EB2-9C9D-CA7FFB11AFC9";
paths = (
{
closed = 1;
nodes = (
"210 0 LINE",
"210 140 LINE",
"70 140 LINE",
"70 0 LINE"
);
}
);
width = 280;
},
{
layerId = "E82D559A-267E-4BF3-BBA1-0778DA3FF57C";
paths = (
{
closed = 1;
nodes = (
"210 0 LINE",
"210 140 LINE",
"70 140 LINE",
"70 0 LINE"
);
}
);
width = 280;
},
{
associatedMasterId = "72FC769E-0471-4EB2-9C9D-CA7FFB11AFC9";
layerId = "26724774-F27D-4AF7-90A0-933BB7C1BE55";
width = 600;
},
{
layerId = "B8F43E33-4D80-4AEE-B4E2-DC92E4FCAAE5";
paths = (
{
closed = 1;
nodes = (
"210 0 LINE",
"210 140 LINE",
"70 140 LINE",
"70 0 LINE"
);
}
);
width = 280;
},
{
layerId = "198E78DA-6138-42C0-8847-C36925CEE918";
paths = (
{
closed = 1;
nodes = (
"157 0 LINE",
"187 140 LINE",
"47 140 LINE",
"17 0 LINE"
);
}
);
width = 280;
}
);
unicode = 002E;
},
{
glyphname = comma;
lastChange = "2019-03-04 05:04:11 +0000";
layers = (
{
layerId = "72FC769E-0471-4EB2-9C9D-CA7FFB11AFC9";
paths = (
{
closed = 1;
nodes = (
"210 -35 LINE",
"210 140 LINE",
"70 140 LINE",
"70 0 LINE",
"140 0 LINE",
"70 -52 LINE",
"113 -108 LINE"
);
}
);
width = 280;
},
{
layerId = "E82D559A-267E-4BF3-BBA1-0778DA3FF57C";
paths = (
{
closed = 1;
nodes = (
"210 -35 LINE",
"210 140 LINE",
"70 140 LINE",
"70 0 LINE",
"140 0 LINE",
"70 -52 LINE",
"113 -108 LINE"
);
}
);
width = 280;
},
{
associatedMasterId = "72FC769E-0471-4EB2-9C9D-CA7FFB11AFC9";
layerId = "26724774-F27D-4AF7-90A0-933BB7C1BE55";
width = 600;
},
{
layerId = "B8F43E33-4D80-4AEE-B4E2-DC92E4FCAAE5";
paths = (
{
closed = 1;
nodes = (
"210 -35 LINE",
"210 140 LINE",
"70 140 LINE",
"70 0 LINE",
"140 0 LINE",
"70 -52 LINE",
"113 -108 LINE"
);
}
);
width = 280;
},
{
layerId = "198E78DA-6138-42C0-8847-C36925CEE918";
paths = (
{
closed = 1;
nodes = (
"150 -35 LINE",
"187 140 LINE",
"47 140 LINE",
"17 0 LINE",
"86 0 LINE",
"6 -52 LINE",
"39 -108 LINE"
);
}
);
width = 281;
}
);
unicode = 002C;
},
{
glyphname = colon;
lastChange = "2019-03-03 21:48:25 +0000";
layers = (
{
layerId = "E82D559A-267E-4BF3-BBA1-0778DA3FF57C";
paths = (
{
closed = 1;
nodes = (
"210 0 LINE",
"210 140 LINE",
"70 140 LINE",
"70 0 LINE"
);
},
{
closed = 1;
nodes = (
"210 350 LINE",
"210 490 LINE",
"70 490 LINE",
"70 350 LINE"
);
}
);
width = 280;
},
{
layerId = "72FC769E-0471-4EB2-9C9D-CA7FFB11AFC9";
paths = (
{
closed = 1;
nodes = (
"210 0 LINE",
"210 140 LINE",
"70 140 LINE",
"70 0 LINE"
);
},
{
closed = 1;
nodes = (
"210 350 LINE",
"210 490 LINE",
"70 490 LINE",
"70 350 LINE"
);
}
);
width = 280;
},
{
layerId = "B8F43E33-4D80-4AEE-B4E2-DC92E4FCAAE5";
paths = (
{
closed = 1;
nodes = (
"210 0 LINE",
"210 140 LINE",
"70 140 LINE",
"70 0 LINE"
);
},
{
closed = 1;
nodes = (
"210 350 LINE",
"210 490 LINE",
"70 490 LINE",
"70 350 LINE"
);
}
);
width = 280;
},
{
layerId = "198E78DA-6138-42C0-8847-C36925CEE918";
paths = (
{
closed = 1;
nodes = (
"227 0 LINE",
"257 140 LINE",
"117 140 LINE",
"87 0 LINE"
);
},
{
closed = 1;
nodes = (
"301 350 LINE",
"331 490 LINE",
"191 490 LINE",
"161 350 LINE"
);
}
);
width = 280;
}
);
unicode = 003A;
},
{
glyphname = semicolon;
lastChange = "2019-03-03 21:48:49 +0000";
layers = (
{
layerId = "E82D559A-267E-4BF3-BBA1-0778DA3FF57C";
paths = (
{
closed = 1;
nodes = (
"210 -35 LINE",
"210 140 LINE",
"70 140 LINE",
"70 0 LINE",
"140 0 LINE",
"70 -52 LINE",
"113 -108 LINE"
);
},
{
closed = 1;
nodes = (
"210 350 LINE",
"210 490 LINE",
"70 490 LINE",
"70 350 LINE"
);
}
);
width = 280;
},
{
layerId = "198E78DA-6138-42C0-8847-C36925CEE918";
paths = (
{
closed = 1;
nodes = (
"220 -35 LINE",
"257 140 LINE",
"117 140 LINE",
"87 0 LINE",
"156 0 LINE",
"76 -52 LINE",
"109 -108 LINE"
);
},
{
closed = 1;
nodes = (
"301 350 LINE",
"331 490 LINE",
"191 490 LINE",
"161 350 LINE"
);
}
);
width = 281;
},
{
layerId = "B8F43E33-4D80-4AEE-B4E2-DC92E4FCAAE5";
paths = (
{
closed = 1;
nodes = (
"210 -35 LINE",
"210 140 LINE",
"70 140 LINE",
"70 0 LINE",
"140 0 LINE",
"70 -52 LINE",
"113 -108 LINE"
);
},
{
closed = 1;
nodes = (
"210 350 LINE",
"210 490 LINE",
"70 490 LINE",
"70 350 LINE"
);
}
);
width = 280;
},
{
layerId = "72FC769E-0471-4EB2-9C9D-CA7FFB11AFC9";
paths = (
{
closed = 1;
nodes = (
"210 -35 LINE",
"210 140 LINE",
"70 140 LINE",
"70 0 LINE",
"140 0 LINE",
"70 -52 LINE",
"113 -108 LINE"
);
},
{
closed = 1;
nodes = (
"210 350 LINE",
"210 490 LINE",
"70 490 LINE",
"70 350 LINE"
);
}
);
width = 280;
}
);
unicode = 003B;
},
{
glyphname = exclam;
lastChange = "2019-03-03 22:53:15 +0000";
layers = (
{
layerId = "72FC769E-0471-4EB2-9C9D-CA7FFB11AFC9";
paths = (
{
closed = 1;
nodes = (
"210 0 LINE",
"210 140 LINE",
"70 140 LINE",
"70 0 LINE"
);
},
{
closed = 1;
nodes = (
"175 210 LINE",
"210 490 LINE",
"210 700 LINE",
"70 700 LINE",
"70 490 LINE",
"105 210 LINE"
);
}
);
width = 280;
},
{
hints = (
{
horizontal = 1;
origin = "{0, 3}";
target = "{0, 2}";
type = Stem;
},
{
origin = "{0, 3}";
target = "{0, 0}";
type = Stem;
}
);
layerId = "E82D559A-267E-4BF3-BBA1-0778DA3FF57C";
paths = (
{
closed = 1;
nodes = (
"210 0 LINE",
"210 140 LINE",
"70 140 LINE",
"70 0 LINE"
);
},
{
closed = 1;
nodes = (
"175 210 LINE",
"210 490 LINE",
"210 700 LINE",
"70 700 LINE",
"70 490 LINE",
"105 210 LINE"
);
}
);
width = 280;
},
{
associatedMasterId = "72FC769E-0471-4EB2-9C9D-CA7FFB11AFC9";
layerId = "26724774-F27D-4AF7-90A0-933BB7C1BE55";
width = 600;
},
{
layerId = "B8F43E33-4D80-4AEE-B4E2-DC92E4FCAAE5";
paths = (
{
closed = 1;
nodes = (
"210 0 LINE",
"210 140 LINE",
"70 140 LINE",
"70 0 LINE"
);
},
{
closed = 1;
nodes = (
"175 210 LINE",
"210 490 LINE",
"210 700 LINE",
"70 700 LINE",
"70 490 LINE",
"105 210 LINE"
);
}
);
width = 280;
},
{
layerId = "198E78DA-6138-42C0-8847-C36925CEE918";
paths = (
{
closed = 1;
nodes = (
"157 0 LINE",
"187 140 LINE",
"47 140 LINE",
"17 0 LINE"
);
},
{
closed = 1;
nodes = (
"167 210 LINE",
"262 490 LINE",
"306 700 LINE",
"166 700 LINE",
"122 490 LINE",
"97 210 LINE"
);
}
);
width = 281;
}
);
unicode = 0021;
},
{
glyphname = question;
lastChange = "2019-03-03 21:42:04 +0000";
layers = (
{
layerId = "72FC769E-0471-4EB2-9C9D-CA7FFB11AFC9";
paths = (
{
closed = 1;
nodes = (
"490 210 LINE",
"490 246 LINE",
"770 455 LINE",
"770 630 LINE",
"630 700 LINE",
"210 700 LINE",
"70 630 LINE",
"70 490 LINE",
"210 490 LINE",
"210 610 LINE",
"165 565 LINE",
"665 565 LINE",
"620 610 LINE",
"620 518 LINE",
"350 316 LINE",
"350 210 LINE"
);
},
{
closed = 1;
nodes = (
"490 0 LINE",
"490 140 LINE",
"350 140 LINE",
"350 0 LINE"
);
}
);
width = 840;
},
{
hints = (
{
horizontal = 1;
origin = "{1, 3}";
target = "{1, 2}";
type = Stem;
},
{
horizontal = 1;
origin = "{0, 10}";
target = "{0, 5}";
type = Stem;
},
{
origin = "{0, 7}";
target = "{0, 8}";
type = Stem;
},
{
origin = "{1, 3}";
target = "{1, 0}";
type = Stem;
},
{
origin = "{0, 13}";
target = "{0, 2}";
type = Stem;
}
);
layerId = "E82D559A-267E-4BF3-BBA1-0778DA3FF57C";
paths = (
{
closed = 1;
nodes = (
"402 210 LINE",
"402 271 LINE",
"595 480 LINE",
"595 630 LINE",
"455 700 LINE",
"210 700 LINE",
"70 630 LINE",
"70 490 LINE",
"210 490 LINE",
"210 615 LINE",
"165 570 LINE",
"490 570 LINE",
"445 615 LINE",
"445 498 LINE",
"262 296 LINE",
"262 210 LINE"
);
},
{
closed = 1;
nodes = (
"402 0 LINE",
"402 140 LINE",
"262 140 LINE",
"262 0 LINE"
);
}
);
width = 665;
},
{
associatedMasterId = "72FC769E-0471-4EB2-9C9D-CA7FFB11AFC9";
layerId = "26724774-F27D-4AF7-90A0-933BB7C1BE55";
width = 600;
},
{
layerId = "B8F43E33-4D80-4AEE-B4E2-DC92E4FCAAE5";
paths = (
{
closed = 1;
nodes = (
"587 210 LINE",
"587 257 LINE",
"963 408 LINE",
"963 630 LINE",
"823 700 LINE",
"210 700 LINE",
"70 630 LINE",
"70 490 LINE",
"210 490 LINE",
"210 605 LINE",
"165 560 LINE",
"868 560 LINE",
"823 605 LINE",
"823 495 LINE",
"447 345 LINE",
"447 210 LINE"
);
},
{
closed = 1;
nodes = (
"587 0 LINE",
"587 140 LINE",
"447 140 LINE",
"447 0 LINE"
);
}
);
width = 1033;
},
{
layerId = "198E78DA-6138-42C0-8847-C36925CEE918";
paths = (
{
closed = 1;
nodes = (
"447 210 LINE",
"461 271 LINE",
"698 480 LINE",
"728 630 LINE",
"603 700 LINE",
"358 700 LINE",
"203 630 LINE",
"174 490 LINE",
"314 490 LINE",
"340 614 LINE",
"285 569 LINE",
"610 569 LINE",
"575 614 LINE",
"550 498 LINE",
"324 296 LINE",
"307 210 LINE"
);
},
{
closed = 1;
nodes = (
"402 0 LINE",
"432 140 LINE",
"292 140 LINE",
"262 0 LINE"
);
}
);
width = 665;
}
);
unicode = 003F;
},
{
glyphname = asterisk;
lastChange = "2019-03-05 05:34:25 +0000";
layers = (
{
layerId = "E82D559A-267E-4BF3-BBA1-0778DA3FF57C";
paths = (
{
closed = 1;
nodes = (
"266 532 LINE",
"228 532 LINE",
"322 404 LINE",
"378 445 LINE",
"284 573 LINE",
"273 538 LINE",
"424 587 LINE",
"403 653 LINE",
"252 604 LINE",
"282 583 LINE",
"282 741 LINE",
"212 741 LINE",
"212 583 LINE",
"242 604 LINE",
"91 653 LINE",
"70 587 LINE",
"221 538 LINE",
"210 573 LINE",
"116 445 LINE",
"172 404 LINE"
);
}
);
width = 494;
},
{
layerId = "72FC769E-0471-4EB2-9C9D-CA7FFB11AFC9";
paths = (
{
closed = 1;
nodes = (
"266 532 LINE",
"228 532 LINE",
"322 404 LINE",
"378 445 LINE",
"284 573 LINE",
"273 538 LINE",
"424 587 LINE",
"403 653 LINE",
"252 604 LINE",
"282 583 LINE",
"282 741 LINE",
"212 741 LINE",
"212 583 LINE",
"242 604 LINE",
"91 653 LINE",
"70 587 LINE",
"221 538 LINE",
"210 573 LINE",
"116 445 LINE",
"172 404 LINE"
);
}
);
width = 494;
},
{
layerId = "B8F43E33-4D80-4AEE-B4E2-DC92E4FCAAE5";
paths = (
{
closed = 1;
nodes = (
"266 532 LINE",
"228 532 LINE",
"322 404 LINE",
"378 445 LINE",
"284 573 LINE",
"273 538 LINE",
"424 587 LINE",
"403 653 LINE",
"252 604 LINE",
"282 583 LINE",
"282 741 LINE",
"212 741 LINE",
"212 583 LINE",
"242 604 LINE",
"91 653 LINE",
"70 587 LINE",
"221 538 LINE",
"210 573 LINE",
"116 445 LINE",
"172 404 LINE"
);
}
);
width = 494;
},
{
layerId = "198E78DA-6138-42C0-8847-C36925CEE918";
paths = (
{
closed = 1;
nodes = (
"329 529 LINE",
"292 537 LINE",
"357 392 LINE",
"421 421 LINE",
"355 565 LINE",
"337 533 LINE",
"495 550 LINE",
"488 619 LINE",
"330 602 LINE",
"355 575 LINE",
"388 730 LINE",
"320 745 LINE",
"287 590 LINE",
"321 604 LINE",
"183 684 LINE",
"149 623 LINE",
"286 544 LINE",
"283 581 LINE",
"164 475 LINE",
"211 423 LINE"
);
}
);
width = 501;
}
);
unicode = 002A;
},
{
glyphname = numbersign;
lastChange = "2019-03-05 07:11:13 +0000";
layers = (
{
layerId = "E82D559A-267E-4BF3-BBA1-0778DA3FF57C";
paths = (
{
closed = 1;
nodes = (
"314 5 LINE",
"454 660 LINE",
"384 660 LINE",
"244 5 LINE"
);
},
{
closed = 1;
nodes = (
"465 175 LINE",
"465 245 LINE",
"35 245 LINE",
"35 175 LINE"
);
},
{
closed = 1;
nodes = (
"174 5 LINE",
"314 660 LINE",
"244 660 LINE",
"104 5 LINE"
);
},
{
closed = 1;
nodes = (
"515 420 LINE",
"515 490 LINE",
"85 490 LINE",
"85 420 LINE"
);
}
);
width = 550;
},
{
layerId = "198E78DA-6138-42C0-8847-C36925CEE918";
paths = (
{
closed = 1;
nodes = (
"262 5 LINE",
"542 660 LINE",
"472 660 LINE",
"192 5 LINE"
);
},
{
closed = 1;
nodes = (
"450 175 LINE",
"464 245 LINE",
"34 245 LINE",
"20 175 LINE"
);
},
{
closed = 1;
nodes = (
"122 5 LINE",
"402 660 LINE",
"332 660 LINE",
"52 5 LINE"
);
},
{
closed = 1;
nodes = (
"552 420 LINE",
"566 490 LINE",
"136 490 LINE",
"122 420 LINE"
);
}
);
width = 551;
},
{
layerId = "72FC769E-0471-4EB2-9C9D-CA7FFB11AFC9";
paths = (
{
closed = 1;
nodes = (
"384 5 LINE",
"524 660 LINE",
"454 660 LINE",
"314 5 LINE"
);
},
{
closed = 1;
nodes = (
"535 175 LINE",
"535 245 LINE",
"35 245 LINE",
"35 175 LINE"
);
},
{
closed = 1;
nodes = (
"174 5 LINE",
"314 660 LINE",
"244 660 LINE",
"104 5 LINE"
);
},
{
closed = 1;
nodes = (
"585 420 LINE",
"585 490 LINE",
"85 490 LINE",
"85 420 LINE"
);
}
);
width = 620;
},
{
layerId = "B8F43E33-4D80-4AEE-B4E2-DC92E4FCAAE5";
paths = (
{
closed = 1;
nodes = (
"454 5 LINE",
"594 660 LINE",
"524 660 LINE",
"384 5 LINE"
);
},
{
closed = 1;
nodes = (
"605 175 LINE",
"605 245 LINE",
"35 245 LINE",
"35 175 LINE"
);
},
{
closed = 1;
nodes = (
"174 5 LINE",
"314 660 LINE",
"244 660 LINE",
"104 5 LINE"
);
},
{
closed = 1;
nodes = (
"655 420 LINE",
"655 490 LINE",
"85 490 LINE",
"85 420 LINE"
);
}
);
width = 690;
}
);
unicode = 0023;
},
{
glyphname = slash;
lastChange = "2019-03-03 23:01:02 +0000";
layers = (
{
layerId = "E82D559A-267E-4BF3-BBA1-0778DA3FF57C";
paths = (
{
closed = 1;
nodes = (
"510 758 LINE",
"445 787 LINE",
"70 -58 LINE",
"135 -87 LINE"
);
}
);
width = 580;
},
{
layerId = "72FC769E-0471-4EB2-9C9D-CA7FFB11AFC9";
paths = (
{
closed = 1;
nodes = (
"510 758 LINE",
"445 787 LINE",
"70 -58 LINE",
"135 -87 LINE"
);
}
);
width = 580;
},
{
layerId = "B8F43E33-4D80-4AEE-B4E2-DC92E4FCAAE5";
paths = (
{
closed = 1;
nodes = (
"510 758 LINE",
"445 787 LINE",
"70 -58 LINE",
"135 -87 LINE"
);
}
);
width = 580;
},
{
layerId = "198E78DA-6138-42C0-8847-C36925CEE918";
paths = (
{
closed = 1;
nodes = (
"630 749 LINE",
"571 788 LINE",
"6 -51 LINE",
"65 -90 LINE"
);
}
);
width = 594;
}
);
unicode = 002F;
},
{
glyphname = backslash;
lastChange = "2019-03-03 23:00:53 +0000";
layers = (
{
layerId = "E82D559A-267E-4BF3-BBA1-0778DA3FF57C";
paths = (
{
closed = 1;
nodes = (
"510 -58 LINE",
"135 787 LINE",
"70 758 LINE",
"445 -87 LINE"
);
}
);
width = 580;
},
{
layerId = "72FC769E-0471-4EB2-9C9D-CA7FFB11AFC9";
paths = (
{
closed = 1;
nodes = (
"510 -58 LINE",
"135 787 LINE",
"70 758 LINE",
"445 -87 LINE"
);
}
);
width = 580;
},
{
layerId = "B8F43E33-4D80-4AEE-B4E2-DC92E4FCAAE5";
paths = (
{
closed = 1;
nodes = (
"510 -58 LINE",
"135 787 LINE",
"70 758 LINE",
"445 -87 LINE"
);
}
);
width = 580;
},
{
layerId = "198E78DA-6138-42C0-8847-C36925CEE918";
paths = (
{
closed = 1;
nodes = (
"419 -94 LINE",
"249 777 LINE",
"179 763 LINE",
"349 -108 LINE"
);
}
);
width = 562;
}
);
unicode = 005C;
},
{
glyphname = parenleft;
lastChange = "2019-03-04 09:28:47 +0000";
layers = (
{
layerId = "E82D559A-267E-4BF3-BBA1-0778DA3FF57C";
paths = (
{
closed = 1;
nodes = (
"379 -136 LINE",
"210 -10 LINE",
"210 710 LINE",
"379 836 LINE",
"336 892 LINE",
"70 694 LINE",
"70 6 LINE",
"336 -192 LINE"
);
}
);
width = 379;
},
{
layerId = "72FC769E-0471-4EB2-9C9D-CA7FFB11AFC9";
paths = (
{
closed = 1;
nodes = (
"379 -137 LINE",
"210 -11 LINE",
"210 709 LINE",
"379 835 LINE",
"336 891 LINE",
"70 693 LINE",
"70 5 LINE",
"336 -193 LINE"
);
}
);
width = 449;
},
{
layerId = "B8F43E33-4D80-4AEE-B4E2-DC92E4FCAAE5";
paths = (
{
closed = 1;
nodes = (
"379 -136 LINE",
"210 -10 LINE",
"210 710 LINE",
"379 836 LINE",
"336 892 LINE",
"70 694 LINE",
"70 6 LINE",
"336 -192 LINE"
);
}
);
width = 449;
},
{
layerId = "198E78DA-6138-42C0-8847-C36925CEE918";
paths = (
{
closed = 1;
nodes = (
"283 -140 LINE",
"150 -22 LINE",
"304 704 LINE",
"505 833 LINE",
"467 892 LINE",
"159 694 LINE",
"13 6 LINE",
"237 -192 LINE"
);
}
);
width = 386;
}
);
unicode = 0028;
},
{
glyphname = parenright;
lastChange = "2019-03-04 04:32:12 +0000";
layers = (
{
layerId = "E82D559A-267E-4BF3-BBA1-0778DA3FF57C";
paths = (
{
closed = 1;
nodes = (
"309 6 LINE",
"309 694 LINE",
"43 892 LINE",
"0 836 LINE",
"169 710 LINE",
"169 -10 LINE",
"0 -136 LINE",
"43 -192 LINE"
);
}
);
width = 379;
},
{
layerId = "198E78DA-6138-42C0-8847-C36925CEE918";
paths = (
{
closed = 1;
nodes = (
"259 6 LINE",
"405 694 LINE",
"181 892 LINE",
"135 840 LINE",
"268 722 LINE",
"113 -5 LINE",
"-87 -133 LINE",
"-49 -192 LINE"
);
}
);
width = 386;
},
{
layerId = "B8F43E33-4D80-4AEE-B4E2-DC92E4FCAAE5";
paths = (
{
closed = 1;
nodes = (
"379 6 LINE",
"379 694 LINE",
"113 892 LINE",
"70 836 LINE",
"239 710 LINE",
"239 -10 LINE",
"70 -136 LINE",
"113 -192 LINE"
);
}
);
width = 449;
},
{
layerId = "72FC769E-0471-4EB2-9C9D-CA7FFB11AFC9";
paths = (
{
closed = 1;
nodes = (
"379 6 LINE",
"379 694 LINE",
"113 892 LINE",
"70 836 LINE",
"239 710 LINE",
"239 -10 LINE",
"70 -136 LINE",
"113 -192 LINE"
);
}
);
width = 449;
}
);
unicode = 0029;
},
{
glyphname = braceleft;
lastChange = "2019-03-04 04:47:51 +0000";
layers = (
{
layerId = "E82D559A-267E-4BF3-BBA1-0778DA3FF57C";
paths = (
{
closed = 1;
nodes = (
"315 -150 LINE",
"315 -80 LINE",
"214 -80 LINE",
"245 -111 LINE",
"245 230 LINE",
"103 372 LINE",
"103 328 LINE",
"245 470 LINE",
"245 811 LINE",
"214 780 LINE",
"315 780 LINE",
"315 850 LINE",
"175 850 LINE",
"105 780 LINE",
"105 420 LINE",
"35 350 LINE",
"105 280 LINE",
"105 -80 LINE",
"175 -150 LINE"
);
}
);
width = 385;
},
{
layerId = "72FC769E-0471-4EB2-9C9D-CA7FFB11AFC9";
paths = (
{
closed = 1;
nodes = (
"315 -150 LINE",
"315 -80 LINE",
"214 -80 LINE",
"245 -111 LINE",
"245 230 LINE",
"103 372 LINE",
"103 328 LINE",
"245 470 LINE",
"245 811 LINE",
"214 780 LINE",
"315 780 LINE",
"315 850 LINE",
"175 850 LINE",
"105 780 LINE",
"105 420 LINE",
"35 350 LINE",
"105 280 LINE",
"105 -80 LINE",
"175 -150 LINE"
);
}
);
width = 385;
},
{
layerId = "B8F43E33-4D80-4AEE-B4E2-DC92E4FCAAE5";
paths = (
{
closed = 1;
nodes = (
"315 -150 LINE",
"315 -80 LINE",
"214 -80 LINE",
"245 -111 LINE",
"245 230 LINE",
"103 372 LINE",
"103 328 LINE",
"245 470 LINE",
"245 811 LINE",
"214 780 LINE",
"315 780 LINE",
"315 850 LINE",
"175 850 LINE",
"105 780 LINE",
"105 420 LINE",
"35 350 LINE",
"105 280 LINE",
"105 -80 LINE",
"175 -150 LINE"
);
}
);
width = 385;
},
{
layerId = "198E78DA-6138-42C0-8847-C36925CEE918";
paths = (
{
closed = 1;
nodes = (
"230 -150 LINE",
"245 -80 LINE",
"144 -80 LINE",
"168 -111 LINE",
"240 221 LINE",
"129 363 LINE",
"119 319 LINE",
"292 461 LINE",
"364 811 LINE",
"326 780 LINE",
"427 780 LINE",
"442 850 LINE",
"302 850 LINE",
"217 780 LINE",
"141 420 LINE",
"56 350 LINE",
"111 280 LINE",
"35 -80 LINE",
"90 -150 LINE"
);
}
);
width = 385;
}
);
unicode = 007B;
},
{
glyphname = braceright;
lastChange = "2019-03-04 04:48:53 +0000";
layers = (
{
layerId = "E82D559A-267E-4BF3-BBA1-0778DA3FF57C";
paths = (
{
closed = 1;
nodes = (
"210 -150 LINE",
"280 -80 LINE",
"280 280 LINE",
"350 350 LINE",
"280 420 LINE",
"280 780 LINE",
"210 850 LINE",
"70 850 LINE",
"70 780 LINE",
"171 780 LINE",
"140 811 LINE",
"140 470 LINE",
"282 328 LINE",
"282 372 LINE",
"140 230 LINE",
"140 -111 LINE",
"171 -80 LINE",
"70 -80 LINE",
"70 -150 LINE"
);
}
);
width = 385;
},
{
layerId = "72FC769E-0471-4EB2-9C9D-CA7FFB11AFC9";
paths = (
{
closed = 1;
nodes = (
"210 -150 LINE",
"280 -80 LINE",
"280 280 LINE",
"350 350 LINE",
"280 420 LINE",
"280 780 LINE",
"210 850 LINE",
"70 850 LINE",
"70 780 LINE",
"171 780 LINE",
"140 811 LINE",
"140 470 LINE",
"282 328 LINE",
"282 372 LINE",
"140 230 LINE",
"140 -111 LINE",
"171 -80 LINE",
"70 -80 LINE",
"70 -150 LINE"
);
}
);
width = 385;
},
{
layerId = "B8F43E33-4D80-4AEE-B4E2-DC92E4FCAAE5";
paths = (
{
closed = 1;
nodes = (
"210 -150 LINE",
"280 -80 LINE",
"280 280 LINE",
"350 350 LINE",
"280 420 LINE",
"280 780 LINE",
"210 850 LINE",
"70 850 LINE",
"70 780 LINE",
"171 780 LINE",
"140 811 LINE",
"140 470 LINE",
"282 328 LINE",
"282 372 LINE",
"140 230 LINE",
"140 -111 LINE",
"171 -80 LINE",
"70 -80 LINE",
"70 -150 LINE"
);
}
);
width = 385;
},
{
layerId = "198E78DA-6138-42C0-8847-C36925CEE918";
paths = (
{
closed = 1;
nodes = (
"126 -150 LINE",
"211 -80 LINE",
"287 280 LINE",
"372 350 LINE",
"317 420 LINE",
"393 780 LINE",
"338 850 LINE",
"198 850 LINE",
"183 780 LINE",
"284 780 LINE",
"260 811 LINE",
"189 479 LINE",
"300 337 LINE",
"310 381 LINE",
"137 239 LINE",
"64 -111 LINE",
"102 -80 LINE",
"1 -80 LINE",
"-14 -150 LINE"
);
}
);
width = 386;
}
);
unicode = 007D;
},
{
glyphname = bracketleft;
lastChange = "2019-03-04 02:31:55 +0000";
layers = (
{
layerId = "E82D559A-267E-4BF3-BBA1-0778DA3FF57C";
paths = (
{
closed = 1;
nodes = (
"280 850 LINE",
"70 850 LINE",
"70 -150 LINE",
"280 -150 LINE",
"280 -80 LINE",
"179 -80 LINE",
"210 -111 LINE",
"210 811 LINE",
"179 780 LINE",
"280 780 LINE"
);
}
);
width = 350;
},
{
layerId = "72FC769E-0471-4EB2-9C9D-CA7FFB11AFC9";
paths = (
{
closed = 1;
nodes = (
"280 850 LINE",
"70 850 LINE",
"70 -150 LINE",
"280 -150 LINE",
"280 -80 LINE",
"179 -80 LINE",
"210 -111 LINE",
"210 811 LINE",
"179 780 LINE",
"280 780 LINE"
);
}
);
width = 350;
},
{
layerId = "B8F43E33-4D80-4AEE-B4E2-DC92E4FCAAE5";
paths = (
{
closed = 1;
nodes = (
"280 850 LINE",
"70 850 LINE",
"70 -150 LINE",
"280 -150 LINE",
"280 -80 LINE",
"179 -80 LINE",
"210 -111 LINE",
"210 811 LINE",
"179 780 LINE",
"280 780 LINE"
);
}
);
width = 350;
},
{
layerId = "198E78DA-6138-42C0-8847-C36925CEE918";
paths = (
{
closed = 1;
nodes = (
"408 850 LINE",
"198 850 LINE",
"-14 -150 LINE",
"196 -150 LINE",
"211 -80 LINE",
"110 -80 LINE",
"134 -111 LINE",
"330 811 LINE",
"292 780 LINE",
"393 780 LINE"
);
}
);
width = 351;
}
);
unicode = 005B;
},
{
glyphname = bracketright;
lastChange = "2019-03-04 02:32:04 +0000";
layers = (
{
layerId = "E82D559A-267E-4BF3-BBA1-0778DA3FF57C";
paths = (
{
closed = 1;
nodes = (
"280 -150 LINE",
"280 850 LINE",
"70 850 LINE",
"70 780 LINE",
"171 780 LINE",
"140 811 LINE",
"140 -111 LINE",
"171 -80 LINE",
"70 -80 LINE",
"70 -150 LINE"
);
}
);
width = 350;
},
{
layerId = "72FC769E-0471-4EB2-9C9D-CA7FFB11AFC9";
paths = (
{
closed = 1;
nodes = (
"280 -150 LINE",
"280 850 LINE",
"70 850 LINE",
"70 780 LINE",
"171 780 LINE",
"140 811 LINE",
"140 -111 LINE",
"171 -80 LINE",
"70 -80 LINE",
"70 -150 LINE"
);
}
);
width = 350;
},
{
layerId = "B8F43E33-4D80-4AEE-B4E2-DC92E4FCAAE5";
paths = (
{
closed = 1;
nodes = (
"280 -150 LINE",
"280 850 LINE",
"70 850 LINE",
"70 780 LINE",
"171 780 LINE",
"140 811 LINE",
"140 -111 LINE",
"171 -80 LINE",
"70 -80 LINE",
"70 -150 LINE"
);
}
);
width = 350;
},
{
layerId = "198E78DA-6138-42C0-8847-C36925CEE918";
paths = (
{
closed = 1;
nodes = (
"196 -150 LINE",
"408 850 LINE",
"198 850 LINE",
"183 780 LINE",
"284 780 LINE",
"260 811 LINE",
"64 -111 LINE",
"102 -80 LINE",
"1 -80 LINE",
"-14 -150 LINE"
);
}
);
width = 351;
}
);
unicode = 005D;
},
{
glyphname = hyphen;
lastChange = "2019-03-03 21:36:33 +0000";
layers = (
{
layerId = "72FC769E-0471-4EB2-9C9D-CA7FFB11AFC9";
paths = (
{
closed = 1;
nodes = (
"560 280 LINE",
"560 420 LINE",
"70 420 LINE",
"70 280 LINE"
);
}
);
width = 630;
},
{
hints = (
{
horizontal = 1;
origin = "{0, 3}";
target = "{0, 2}";
type = Stem;
}
);
layerId = "E82D559A-267E-4BF3-BBA1-0778DA3FF57C";
paths = (
{
closed = 1;
nodes = (
"490 280 LINE",
"490 420 LINE",
"70 420 LINE",
"70 280 LINE"
);
}
);
width = 560;
},
{
associatedMasterId = "72FC769E-0471-4EB2-9C9D-CA7FFB11AFC9";
layerId = "26724774-F27D-4AF7-90A0-933BB7C1BE55";
width = 600;
},
{
layerId = "B8F43E33-4D80-4AEE-B4E2-DC92E4FCAAE5";
paths = (
{
closed = 1;
nodes = (
"665 280 LINE",
"665 420 LINE",
"70 420 LINE",
"70 280 LINE"
);
}
);
width = 735;
},
{
layerId = "198E78DA-6138-42C0-8847-C36925CEE918";
paths = (
{
closed = 1;
nodes = (
"497 280 LINE",
"526 420 LINE",
"106 420 LINE",
"77 280 LINE"
);
}
);
width = 561;
}
);
unicode = 002D;
},
{
glyphname = endash;
lastChange = "2019-03-03 21:40:59 +0000";
layers = (
{
layerId = "E82D559A-267E-4BF3-BBA1-0778DA3FF57C";
paths = (
{
closed = 1;
nodes = (
"620 280 LINE",
"620 420 LINE",
"70 420 LINE",
"70 280 LINE"
);
}
);
width = 690;
},
{
layerId = "72FC769E-0471-4EB2-9C9D-CA7FFB11AFC9";
paths = (
{
closed = 1;
nodes = (
"770 280 LINE",
"770 420 LINE",
"70 420 LINE",
"70 280 LINE"
);
}
);
width = 840;
},
{
layerId = "B8F43E33-4D80-4AEE-B4E2-DC92E4FCAAE5";
paths = (
{
closed = 1;
nodes = (
"960 280 LINE",
"960 420 LINE",
"70 420 LINE",
"70 280 LINE"
);
}
);
width = 1030;
},
{
layerId = "198E78DA-6138-42C0-8847-C36925CEE918";
paths = (
{
closed = 1;
nodes = (
"627 280 LINE",
"656 420 LINE",
"106 420 LINE",
"77 280 LINE"
);
}
);
width = 691;
}
);
unicode = 2013;
},
{
glyphname = emdash;
lastChange = "2019-03-03 21:41:07 +0000";
layers = (
{
layerId = "E82D559A-267E-4BF3-BBA1-0778DA3FF57C";
paths = (
{
closed = 1;
nodes = (
"710 280 LINE",
"710 420 LINE",
"70 420 LINE",
"70 280 LINE"
);
}
);
width = 780;
},
{
layerId = "198E78DA-6138-42C0-8847-C36925CEE918";
paths = (
{
closed = 1;
nodes = (
"727 280 LINE",
"756 420 LINE",
"106 420 LINE",
"77 280 LINE"
);
}
);
width = 791;
},
{
layerId = "B8F43E33-4D80-4AEE-B4E2-DC92E4FCAAE5";
paths = (
{
closed = 1;
nodes = (
"1140 280 LINE",
"1140 420 LINE",
"70 420 LINE",
"70 280 LINE"
);
}
);
width = 1210;
},
{
layerId = "72FC769E-0471-4EB2-9C9D-CA7FFB11AFC9";
paths = (
{
closed = 1;
nodes = (
"890 280 LINE",
"890 420 LINE",
"70 420 LINE",
"70 280 LINE"
);
}
);
width = 960;
}
);
unicode = 2014;
},
{
glyphname = quoteright;
lastChange = "2019-03-04 01:01:28 +0000";
layers = (
{
layerId = "E82D559A-267E-4BF3-BBA1-0778DA3FF57C";
paths = (
{
closed = 1;
nodes = (
"210 525 LINE",
"210 700 LINE",
"70 700 LINE",
"70 560 LINE",
"140 560 LINE",
"70 508 LINE",
"113 452 LINE"
);
}
);
width = 280;
},
{
layerId = "72FC769E-0471-4EB2-9C9D-CA7FFB11AFC9";
paths = (
{
closed = 1;
nodes = (
"210 525 LINE",
"210 700 LINE",
"70 700 LINE",
"70 560 LINE",
"140 560 LINE",
"70 508 LINE",
"113 452 LINE"
);
}
);
width = 280;
},
{
layerId = "B8F43E33-4D80-4AEE-B4E2-DC92E4FCAAE5";
paths = (
{
closed = 1;
nodes = (
"210 525 LINE",
"210 700 LINE",
"70 700 LINE",
"70 560 LINE",
"140 560 LINE",
"70 508 LINE",
"113 452 LINE"
);
}
);
width = 280;
},
{
layerId = "198E78DA-6138-42C0-8847-C36925CEE918";
paths = (
{
closed = 1;
nodes = (
"269 525 LINE",
"306 700 LINE",
"166 700 LINE",
"136 560 LINE",
"205 560 LINE",
"125 508 LINE",
"158 452 LINE"
);
}
);
width = 281;
}
);
unicode = 2019;
},
{
glyphname = quotesingle;
lastChange = "2019-03-04 01:00:59 +0000";
layers = (
{
layerId = "E82D559A-267E-4BF3-BBA1-0778DA3FF57C";
paths = (
{
closed = 1;
nodes = (
"210 525 LINE",
"210 700 LINE",
"70 700 LINE",
"70 560 LINE",
"140 560 LINE",
"70 508 LINE",
"113 452 LINE"
);
}
);
width = 280;
},
{
layerId = "72FC769E-0471-4EB2-9C9D-CA7FFB11AFC9";
paths = (
{
closed = 1;
nodes = (
"210 525 LINE",
"210 700 LINE",
"70 700 LINE",
"70 560 LINE",
"140 560 LINE",
"70 508 LINE",
"113 452 LINE"
);
}
);
width = 280;
},
{
layerId = "B8F43E33-4D80-4AEE-B4E2-DC92E4FCAAE5";
paths = (
{
closed = 1;
nodes = (
"210 525 LINE",
"210 700 LINE",
"70 700 LINE",
"70 560 LINE",
"140 560 LINE",
"70 508 LINE",
"113 452 LINE"
);
}
);
width = 280;
},
{
layerId = "198E78DA-6138-42C0-8847-C36925CEE918";
paths = (
{
closed = 1;
nodes = (
"269 525 LINE",
"306 700 LINE",
"166 700 LINE",
"136 560 LINE",
"205 560 LINE",
"125 508 LINE",
"158 452 LINE"
);
}
);
width = 281;
}
);
unicode = 0027;
},
{
glyphname = cent;
lastChange = "2019-03-04 09:26:49 +0000";
layers = (
{
layerId = "E82D559A-267E-4BF3-BBA1-0778DA3FF57C";
paths = (
{
closed = 1;
nodes = (
"490 70 LINE",
"630 140 LINE",
"630 280 LINE",
"490 280 LINE",
"490 165 LINE",
"535 210 LINE",
"165 210 LINE",
"210 165 LINE",
"210 535 LINE",
"165 490 LINE",
"535 490 LINE",
"490 535 LINE",
"490 420 LINE",
"630 420 LINE",
"630 560 LINE",
"490 630 LINE",
"210 630 LINE",
"70 560 LINE",
"70 140 LINE",
"210 70 LINE"
);
},
{
closed = 1;
nodes = (
"573 758 LINE",
"508 787 LINE",
"133 -58 LINE",
"198 -87 LINE"
);
}
);
width = 700;
},
{
layerId = "72FC769E-0471-4EB2-9C9D-CA7FFB11AFC9";
paths = (
{
closed = 1;
nodes = (
"571 70 LINE",
"711 140 LINE",
"711 280 LINE",
"571 280 LINE",
"571 165 LINE",
"616 210 LINE",
"176 210 LINE",
"221 165 LINE",
"221 535 LINE",
"176 490 LINE",
"616 490 LINE",
"571 535 LINE",
"571 420 LINE",
"711 420 LINE",
"711 560 LINE",
"571 630 LINE",
"221 630 LINE",
"81 560 LINE",
"81 140 LINE",
"221 70 LINE"
);
},
{
closed = 1;
nodes = (
"722 756 LINE",
"664 796 LINE",
"70 -55 LINE",
"128 -95 LINE"
);
}
);
width = 792;
},
{
layerId = "B8F43E33-4D80-4AEE-B4E2-DC92E4FCAAE5";
paths = (
{
closed = 1;
nodes = (
"738 70 LINE",
"878 140 LINE",
"878 280 LINE",
"738 280 LINE",
"738 165 LINE",
"783 210 LINE",
"168 210 LINE",
"213 165 LINE",
"213 535 LINE",
"168 490 LINE",
"783 490 LINE",
"738 535 LINE",
"738 420 LINE",
"878 420 LINE",
"878 560 LINE",
"738 630 LINE",
"213 630 LINE",
"73 560 LINE",
"73 140 LINE",
"213 70 LINE"
);
},
{
closed = 1;
nodes = (
"948 731 LINE",
"901 782 LINE",
"0 -32 LINE",
"47 -83 LINE"
);
}
);
width = 948;
},
{
layerId = "198E78DA-6138-42C0-8847-C36925CEE918";
paths = (
{
closed = 1;
nodes = (
"452 70 LINE",
"607 140 LINE",
"637 280 LINE",
"497 280 LINE",
"473 165 LINE",
"527 210 LINE",
"157 210 LINE",
"193 165 LINE",
"271 535 LINE",
"217 490 LINE",
"587 490 LINE",
"551 535 LINE",
"527 420 LINE",
"667 420 LINE",
"697 560 LINE",
"571 630 LINE",
"291 630 LINE",
"137 560 LINE",
"47 140 LINE",
"172 70 LINE"
);
},
{
closed = 1;
nodes = (
"679 758 LINE",
"618 787 LINE",
"64 -58 LINE",
"125 -87 LINE"
);
}
);
width = 701;
}
);
unicode = 00A2;
},
{
glyphname = dollar;
lastChange = "2019-03-04 09:21:54 +0000";
layers = (
{
hints = (
{
horizontal = 1;
origin = "{0, 22}";
target = "{0, 27}";
type = Stem;
},
{
horizontal = 1;
origin = "{0, 4}";
target = "{0, 17}";
type = Stem;
},
{
horizontal = 1;
origin = "{0, 7}";
target = "{0, 14}";
type = Stem;
},
{
origin = "{0, 26}";
target = "{0, 23}";
type = Stem;
},
{
origin = "{1, 3}";
target = "{1, 0}";
type = Stem;
},
{
origin = "{0, 20}";
target = "{0, 1}";
type = Stem;
}
);
layerId = "E82D559A-267E-4BF3-BBA1-0778DA3FF57C";
paths = (
{
closed = 1;
nodes = (
"505 35 LINE",
"665 105 LINE",
"665 350 LINE",
"525 420 LINE",
"179 420 LINE",
"210 389 LINE",
"210 566 LINE",
"179 535 LINE",
"556 535 LINE",
"525 566 LINE",
"525 490 LINE",
"665 490 LINE",
"665 595 LINE",
"525 665 LINE",
"210 665 LINE",
"70 595 LINE",
"70 350 LINE",
"210 280 LINE",
"556 280 LINE",
"525 311 LINE",
"525 134 LINE",
"556 165 LINE",
"179 165 LINE",
"210 134 LINE",
"210 210 LINE",
"70 210 LINE",
"70 105 LINE",
"230 35 LINE"
);
},
{
closed = 1;
nodes = (
"437 -35 LINE",
"437 105 LINE",
"297 105 LINE",
"297 -35 LINE"
);
},
{
closed = 1;
nodes = (
"437 595 LINE",
"437 735 LINE",
"297 735 LINE",
"297 595 LINE"
);
}
);
width = 735;
},
{
layerId = "72FC769E-0471-4EB2-9C9D-CA7FFB11AFC9";
paths = (
{
closed = 1;
nodes = (
"680 35 LINE",
"840 105 LINE",
"840 350 LINE",
"700 420 LINE",
"179 420 LINE",
"210 389 LINE",
"210 566 LINE",
"179 535 LINE",
"731 535 LINE",
"700 566 LINE",
"700 490 LINE",
"840 490 LINE",
"840 595 LINE",
"700 665 LINE",
"210 665 LINE",
"70 595 LINE",
"70 350 LINE",
"210 280 LINE",
"731 280 LINE",
"700 311 LINE",
"700 134 LINE",
"731 165 LINE",
"179 165 LINE",
"210 134 LINE",
"210 210 LINE",
"70 210 LINE",
"70 105 LINE",
"230 35 LINE"
);
},
{
closed = 1;
nodes = (
"525 -35 LINE",
"525 105 LINE",
"385 105 LINE",
"385 -35 LINE"
);
},
{
closed = 1;
nodes = (
"525 595 LINE",
"525 735 LINE",
"385 735 LINE",
"385 595 LINE"
);
}
);
width = 910;
},
{
layerId = "B8F43E33-4D80-4AEE-B4E2-DC92E4FCAAE5";
paths = (
{
closed = 1;
nodes = (
"943 35 LINE",
"1103 105 LINE",
"1103 350 LINE",
"963 420 LINE",
"179 420 LINE",
"210 389 LINE",
"210 566 LINE",
"179 535 LINE",
"994 535 LINE",
"963 566 LINE",
"963 490 LINE",
"1103 490 LINE",
"1103 595 LINE",
"963 665 LINE",
"210 665 LINE",
"70 595 LINE",
"70 350 LINE",
"210 280 LINE",
"994 280 LINE",
"963 311 LINE",
"963 134 LINE",
"994 165 LINE",
"179 165 LINE",
"210 134 LINE",
"210 210 LINE",
"70 210 LINE",
"70 105 LINE",
"230 35 LINE"
);
},
{
closed = 1;
nodes = (
"657 -35 LINE",
"657 105 LINE",
"517 105 LINE",
"517 -35 LINE"
);
},
{
closed = 1;
nodes = (
"657 595 LINE",
"657 735 LINE",
"517 735 LINE",
"517 595 LINE"
);
}
);
width = 1173;
},
{
layerId = "198E78DA-6138-42C0-8847-C36925CEE918";
paths = (
{
closed = 1;
nodes = (
"459 35 LINE",
"634 105 LINE",
"686 350 LINE",
"561 420 LINE",
"215 420 LINE",
"239 389 LINE",
"277 566 LINE",
"239 535 LINE",
"616 535 LINE",
"592 566 LINE",
"576 490 LINE",
"716 490 LINE",
"738 595 LINE",
"613 665 LINE",
"298 665 LINE",
"143 595 LINE",
"91 350 LINE",
"216 280 LINE",
"562 280 LINE",
"538 311 LINE",
"500 134 LINE",
"538 165 LINE",
"161 165 LINE",
"185 134 LINE",
"201 210 LINE",
"61 210 LINE",
"39 105 LINE",
"184 35 LINE"
);
},
{
closed = 1;
nodes = (
"376 -35 LINE",
"406 105 LINE",
"266 105 LINE",
"236 -35 LINE"
);
},
{
closed = 1;
nodes = (
"510 595 LINE",
"540 735 LINE",
"400 735 LINE",
"370 595 LINE"
);
}
);
width = 735;
}
);
unicode = 0024;
},
{
glyphname = euro;
lastChange = "2019-03-04 08:45:10 +0000";
layers = (
{
hints = (
{
horizontal = 1;
origin = "{0, 11}";
target = "{0, 2}";
type = Stem;
},
{
horizontal = 1;
origin = "{2, 0}";
target = "{2, 3}";
type = Stem;
},
{
horizontal = 1;
origin = "{1, 0}";
target = "{1, 3}";
type = Stem;
},
{
horizontal = 1;
origin = "{0, 5}";
target = "{0, 8}";
type = Stem;
},
{
origin = "{0, 10}";
target = "{0, 11}";
type = Stem;
}
);
layerId = "E82D559A-267E-4BF3-BBA1-0778DA3FF57C";
paths = (
{
closed = 1;
nodes = (
"669 0 LINE",
"669 140 LINE",
"239 140 LINE",
"284 95 LINE",
"284 605 LINE",
"239 560 LINE",
"669 560 LINE",
"669 700 LINE",
"284 700 LINE",
"144 560 LINE",
"144 140 LINE",
"284 0 LINE"
);
},
{
closed = 1;
nodes = (
"70 385 LINE",
"424 385 LINE",
"424 455 LINE",
"70 455 LINE"
);
},
{
closed = 1;
nodes = (
"70 245 LINE",
"424 245 LINE",
"424 315 LINE",
"70 315 LINE"
);
}
);
width = 739;
},
{
layerId = "72FC769E-0471-4EB2-9C9D-CA7FFB11AFC9";
paths = (
{
closed = 1;
nodes = (
"779 0 LINE",
"779 140 LINE",
"239 140 LINE",
"284 95 LINE",
"284 605 LINE",
"239 560 LINE",
"779 560 LINE",
"779 700 LINE",
"284 700 LINE",
"144 560 LINE",
"144 140 LINE",
"284 0 LINE"
);
},
{
closed = 1;
nodes = (
"70 385 LINE",
"459 385 LINE",
"459 455 LINE",
"70 455 LINE"
);
},
{
closed = 1;
nodes = (
"70 245 LINE",
"459 245 LINE",
"459 315 LINE",
"70 315 LINE"
);
}
);
width = 849;
},
{
layerId = "B8F43E33-4D80-4AEE-B4E2-DC92E4FCAAE5";
paths = (
{
closed = 1;
nodes = (
"919 0 LINE",
"919 140 LINE",
"239 140 LINE",
"284 95 LINE",
"284 605 LINE",
"239 560 LINE",
"919 560 LINE",
"919 700 LINE",
"284 700 LINE",
"144 560 LINE",
"144 140 LINE",
"284 0 LINE"
);
},
{
closed = 1;
nodes = (
"70 385 LINE",
"564 385 LINE",
"564 455 LINE",
"70 455 LINE"
);
},
{
closed = 1;
nodes = (
"70 245 LINE",
"564 245 LINE",
"564 315 LINE",
"70 315 LINE"
);
}
);
width = 989;
},
{
layerId = "198E78DA-6138-42C0-8847-C36925CEE918";
paths = (
{
closed = 1;
nodes = (
"616 0 LINE",
"646 140 LINE",
"216 140 LINE",
"251 95 LINE",
"360 605 LINE",
"305 560 LINE",
"735 560 LINE",
"765 700 LINE",
"380 700 LINE",
"210 560 LINE",
"121 140 LINE",
"231 0 LINE"
);
},
{
closed = 1;
nodes = (
"99 385 LINE",
"453 385 LINE",
"468 455 LINE",
"114 455 LINE"
);
},
{
closed = 1;
nodes = (
"69 245 LINE",
"423 245 LINE",
"438 315 LINE",
"84 315 LINE"
);
}
);
width = 739;
}
);
unicode = 20AC;
},
{
glyphname = sterling;
lastChange = "2019-03-04 08:38:52 +0000";
layers = (
{
layerId = "E82D559A-267E-4BF3-BBA1-0778DA3FF57C";
paths = (
{
closed = 1;
nodes = (
"282 0 LINE",
"282 313 LINE",
"212 605 LINE",
"165 560 LINE",
"535 560 LINE",
"490 605 LINE",
"490 420 LINE",
"630 420 LINE",
"630 630 LINE",
"490 700 LINE",
"190 700 LINE",
"70 593 LINE",
"140 307 LINE",
"140 0 LINE"
);
},
{
closed = 1;
nodes = (
"630 0 LINE",
"630 140 LINE",
"70 140 LINE",
"70 0 LINE"
);
},
{
closed = 1;
nodes = (
"350 280 LINE",
"350 350 LINE",
"70 350 LINE",
"70 280 LINE"
);
}
);
width = 700;
},
{
layerId = "72FC769E-0471-4EB2-9C9D-CA7FFB11AFC9";
paths = (
{
closed = 1;
nodes = (
"315 0 LINE",
"315 325 LINE",
"217 605 LINE",
"165 560 LINE",
"675 560 LINE",
"630 605 LINE",
"630 420 LINE",
"770 420 LINE",
"770 630 LINE",
"630 700 LINE",
"190 700 LINE",
"79 589 LINE",
"175 311 LINE",
"175 0 LINE"
);
},
{
closed = 1;
nodes = (
"770 0 LINE",
"770 140 LINE",
"70 140 LINE",
"70 0 LINE"
);
},
{
closed = 1;
nodes = (
"420 280 LINE",
"420 350 LINE",
"70 350 LINE",
"70 280 LINE"
);
}
);
width = 840;
},
{
layerId = "B8F43E33-4D80-4AEE-B4E2-DC92E4FCAAE5";
paths = (
{
closed = 1;
nodes = (
"385 0 LINE",
"385 331 LINE",
"217 611 LINE",
"165 560 LINE",
"815 560 LINE",
"770 605 LINE",
"770 420 LINE",
"910 420 LINE",
"910 630 LINE",
"770 700 LINE",
"183 700 LINE",
"86 560 LINE",
"225 323 LINE",
"225 0 LINE"
);
},
{
closed = 1;
nodes = (
"910 0 LINE",
"910 140 LINE",
"70 140 LINE",
"70 0 LINE"
);
},
{
closed = 1;
nodes = (
"560 280 LINE",
"560 350 LINE",
"70 350 LINE",
"70 280 LINE"
);
}
);
width = 980;
},
{
layerId = "198E78DA-6138-42C0-8847-C36925CEE918";
paths = (
{
closed = 1;
nodes = (
"189 0 LINE",
"296 313 LINE",
"296 605 LINE",
"239 560 LINE",
"601 560 LINE",
"566 605 LINE",
"526 420 LINE",
"666 420 LINE",
"711 630 LINE",
"586 700 LINE",
"294 700 LINE",
"152 593 LINE",
"152 307 LINE",
"47 0 LINE"
);
},
{
closed = 1;
nodes = (
"577 0 LINE",
"607 140 LINE",
"47 140 LINE",
"17 0 LINE"
);
},
{
closed = 1;
nodes = (
"357 280 LINE",
"371 350 LINE",
"91 350 LINE",
"77 280 LINE"
);
}
);
width = 700;
}
);
unicode = 00A3;
},
{
glyphname = plus;
lastChange = "2019-03-03 22:04:54 +0000";
layers = (
{
hints = (
{
horizontal = 1;
origin = "{0, 3}";
target = "{0, 2}";
type = Stem;
}
);
layerId = "E82D559A-267E-4BF3-BBA1-0778DA3FF57C";
paths = (
{
closed = 1;
nodes = (
"560 315 LINE",
"560 385 LINE",
"70 385 LINE",
"70 315 LINE"
);
},
{
closed = 1;
nodes = (
"280 105 LINE",
"350 105 LINE",
"350 595 LINE",
"280 595 LINE"
);
}
);
width = 630;
},
{
layerId = "72FC769E-0471-4EB2-9C9D-CA7FFB11AFC9";
paths = (
{
closed = 1;
nodes = (
"560 315 LINE",
"560 385 LINE",
"70 385 LINE",
"70 315 LINE"
);
},
{
closed = 1;
nodes = (
"280 105 LINE",
"350 105 LINE",
"350 595 LINE",
"280 595 LINE"
);
}
);
width = 630;
},
{
layerId = "B8F43E33-4D80-4AEE-B4E2-DC92E4FCAAE5";
paths = (
{
closed = 1;
nodes = (
"560 315 LINE",
"560 385 LINE",
"70 385 LINE",
"70 315 LINE"
);
},
{
closed = 1;
nodes = (
"280 105 LINE",
"350 105 LINE",
"350 595 LINE",
"280 595 LINE"
);
}
);
width = 630;
},
{
layerId = "198E78DA-6138-42C0-8847-C36925CEE918";
paths = (
{
closed = 1;
nodes = (
"574 315 LINE",
"589 385 LINE",
"99 385 LINE",
"84 315 LINE"
);
},
{
closed = 1;
nodes = (
"249 105 LINE",
"319 105 LINE",
"423 595 LINE",
"353 595 LINE"
);
}
);
width = 630;
}
);
unicode = 002B;
},
{
glyphname = minus;
lastChange = "2019-03-03 22:06:03 +0000";
layers = (
{
layerId = "E82D559A-267E-4BF3-BBA1-0778DA3FF57C";
paths = (
{
closed = 1;
nodes = (
"560 315 LINE",
"560 385 LINE",
"70 385 LINE",
"70 315 LINE"
);
}
);
width = 630;
},
{
layerId = "72FC769E-0471-4EB2-9C9D-CA7FFB11AFC9";
paths = (
{
closed = 1;
nodes = (
"560 315 LINE",
"560 385 LINE",
"70 385 LINE",
"70 315 LINE"
);
}
);
width = 600;
},
{
layerId = "B8F43E33-4D80-4AEE-B4E2-DC92E4FCAAE5";
paths = (
{
closed = 1;
nodes = (
"560 315 LINE",
"560 385 LINE",
"70 385 LINE",
"70 315 LINE"
);
}
);
width = 630;
},
{
layerId = "198E78DA-6138-42C0-8847-C36925CEE918";
paths = (
{
closed = 1;
nodes = (
"574 315 LINE",
"589 385 LINE",
"99 385 LINE",
"84 315 LINE"
);
}
);
width = 630;
}
);
unicode = 2212;
},
{
glyphname = equal;
lastChange = "2019-03-03 22:03:52 +0000";
layers = (
{
hints = (
{
horizontal = 1;
origin = "{0, 3}";
target = "{0, 2}";
type = Stem;
}
);
layerId = "E82D559A-267E-4BF3-BBA1-0778DA3FF57C";
paths = (
{
closed = 1;
nodes = (
"490 385 LINE",
"490 455 LINE",
"70 455 LINE",
"70 385 LINE"
);
},
{
closed = 1;
nodes = (
"490 245 LINE",
"490 315 LINE",
"70 315 LINE",
"70 245 LINE"
);
}
);
width = 560;
},
{
layerId = "72FC769E-0471-4EB2-9C9D-CA7FFB11AFC9";
paths = (
{
closed = 1;
nodes = (
"490 385 LINE",
"490 455 LINE",
"70 455 LINE",
"70 385 LINE"
);
},
{
closed = 1;
nodes = (
"490 245 LINE",
"490 315 LINE",
"70 315 LINE",
"70 245 LINE"
);
}
);
width = 560;
},
{
layerId = "B8F43E33-4D80-4AEE-B4E2-DC92E4FCAAE5";
paths = (
{
closed = 1;
nodes = (
"490 385 LINE",
"490 455 LINE",
"70 455 LINE",
"70 385 LINE"
);
},
{
closed = 1;
nodes = (
"490 245 LINE",
"490 315 LINE",
"70 315 LINE",
"70 245 LINE"
);
}
);
width = 560;
},
{
layerId = "198E78DA-6138-42C0-8847-C36925CEE918";
paths = (
{
closed = 1;
nodes = (
"519 385 LINE",
"534 455 LINE",
"114 455 LINE",
"99 385 LINE"
);
},
{
closed = 1;
nodes = (
"489 245 LINE",
"504 315 LINE",
"84 315 LINE",
"69 245 LINE"
);
}
);
width = 560;
}
);
unicode = 003D;
},
{
glyphname = greater;
lastChange = "2019-03-03 22:01:23 +0000";
layers = (
{
layerId = "72FC769E-0471-4EB2-9C9D-CA7FFB11AFC9";
paths = (
{
closed = 1;
nodes = (
"430 313 LINE",
"430 386 LINE",
"107 590 LINE",
"70 530 LINE",
"383 333 LINE",
"383 367 LINE",
"70 170 LINE",
"107 110 LINE"
);
}
);
width = 500;
},
{
layerId = "E82D559A-267E-4BF3-BBA1-0778DA3FF57C";
paths = (
{
closed = 1;
nodes = (
"430 313 LINE",
"430 386 LINE",
"107 590 LINE",
"70 530 LINE",
"383 333 LINE",
"383 367 LINE",
"70 170 LINE",
"107 110 LINE"
);
}
);
width = 500;
},
{
layerId = "B8F43E33-4D80-4AEE-B4E2-DC92E4FCAAE5";
paths = (
{
closed = 1;
nodes = (
"430 313 LINE",
"430 386 LINE",
"107 590 LINE",
"70 530 LINE",
"383 333 LINE",
"383 367 LINE",
"70 170 LINE",
"107 110 LINE"
);
}
);
width = 500;
},
{
layerId = "198E78DA-6138-42C0-8847-C36925CEE918";
paths = (
{
closed = 1;
nodes = (
"445 313 LINE",
"459 386 LINE",
"179 590 LINE",
"130 530 LINE",
"403 331 LINE",
"406 365 LINE",
"55 170 LINE",
"80 110 LINE"
);
}
);
width = 502;
}
);
unicode = 003E;
},
{
glyphname = less;
lastChange = "2019-03-03 22:02:34 +0000";
layers = (
{
layerId = "72FC769E-0471-4EB2-9C9D-CA7FFB11AFC9";
paths = (
{
closed = 1;
nodes = (
"430 170 LINE",
"117 367 LINE",
"117 333 LINE",
"430 530 LINE",
"393 590 LINE",
"70 386 LINE",
"70 313 LINE",
"393 110 LINE"
);
}
);
width = 500;
},
{
layerId = "E82D559A-267E-4BF3-BBA1-0778DA3FF57C";
paths = (
{
closed = 1;
nodes = (
"430 170 LINE",
"117 367 LINE",
"117 333 LINE",
"430 530 LINE",
"393 590 LINE",
"70 386 LINE",
"70 313 LINE",
"393 110 LINE"
);
}
);
width = 500;
},
{
layerId = "198E78DA-6138-42C0-8847-C36925CEE918";
paths = (
{
closed = 1;
nodes = (
"415 170 LINE",
"142 367 LINE",
"137 333 LINE",
"490 530 LINE",
"465 590 LINE",
"99 386 LINE",
"85 313 LINE",
"366 110 LINE"
);
}
);
width = 502;
},
{
layerId = "B8F43E33-4D80-4AEE-B4E2-DC92E4FCAAE5";
paths = (
{
closed = 1;
nodes = (
"430 170 LINE",
"117 367 LINE",
"117 333 LINE",
"430 530 LINE",
"393 590 LINE",
"70 386 LINE",
"70 313 LINE",
"393 110 LINE"
);
}
);
width = 500;
}
);
unicode = 003C;
},
{
glyphname = asciitilde;
lastChange = "2019-03-05 02:26:01 +0000";
layers = (
{
layerId = "E82D559A-267E-4BF3-BBA1-0778DA3FF57C";
paths = (
{
closed = 1;
nodes = (
"479 372 OFFCURVE",
"444 352 OFFCURVE",
"402 352 CURVE SMOOTH",
"373 352 OFFCURVE",
"350 364 OFFCURVE",
"325 377 CURVE SMOOTH",
"297 392 OFFCURVE",
"267 408 OFFCURVE",
"226 408 CURVE SMOOTH",
"165 408 OFFCURVE",
"104 377 OFFCURVE",
"70 327 CURVE",
"127 287 LINE",
"149 319 OFFCURVE",
"184 338 OFFCURVE",
"227 338 CURVE SMOOTH",
"254 338 OFFCURVE",
"277 326 OFFCURVE",
"302 313 CURVE SMOOTH",
"331 298 OFFCURVE",
"362 282 OFFCURVE",
"403 282 CURVE SMOOTH",
"463 282 OFFCURVE",
"524 314 OFFCURVE",
"558 363 CURVE",
"501 403 LINE"
);
}
);
width = 628;
},
{
layerId = "72FC769E-0471-4EB2-9C9D-CA7FFB11AFC9";
paths = (
{
closed = 1;
nodes = (
"479 372 OFFCURVE",
"444 352 OFFCURVE",
"402 352 CURVE SMOOTH",
"373 352 OFFCURVE",
"350 364 OFFCURVE",
"325 377 CURVE SMOOTH",
"297 392 OFFCURVE",
"267 408 OFFCURVE",
"226 408 CURVE SMOOTH",
"165 408 OFFCURVE",
"104 377 OFFCURVE",
"70 327 CURVE",
"127 287 LINE",
"149 319 OFFCURVE",
"184 338 OFFCURVE",
"227 338 CURVE SMOOTH",
"254 338 OFFCURVE",
"277 326 OFFCURVE",
"302 313 CURVE SMOOTH",
"331 298 OFFCURVE",
"362 282 OFFCURVE",
"403 282 CURVE SMOOTH",
"463 282 OFFCURVE",
"524 314 OFFCURVE",
"558 363 CURVE",
"501 403 LINE"
);
}
);
width = 628;
},
{
layerId = "B8F43E33-4D80-4AEE-B4E2-DC92E4FCAAE5";
paths = (
{
closed = 1;
nodes = (
"479 372 OFFCURVE",
"444 352 OFFCURVE",
"402 352 CURVE SMOOTH",
"373 352 OFFCURVE",
"350 364 OFFCURVE",
"325 377 CURVE SMOOTH",
"297 392 OFFCURVE",
"267 408 OFFCURVE",
"226 408 CURVE SMOOTH",
"165 408 OFFCURVE",
"104 377 OFFCURVE",
"70 327 CURVE",
"127 287 LINE",
"149 319 OFFCURVE",
"184 338 OFFCURVE",
"227 338 CURVE SMOOTH",
"254 338 OFFCURVE",
"277 326 OFFCURVE",
"302 313 CURVE SMOOTH",
"331 298 OFFCURVE",
"362 282 OFFCURVE",
"403 282 CURVE SMOOTH",
"463 282 OFFCURVE",
"524 314 OFFCURVE",
"558 363 CURVE",
"501 403 LINE"
);
}
);
width = 628;
},
{
layerId = "198E78DA-6138-42C0-8847-C36925CEE918";
paths = (
{
closed = 1;
nodes = (
"495 372 OFFCURVE",
"460 352 OFFCURVE",
"418 352 CURVE SMOOTH",
"389 352 OFFCURVE",
"366 364 OFFCURVE",
"341 377 CURVE SMOOTH",
"313 392 OFFCURVE",
"283 408 OFFCURVE",
"242 408 CURVE SMOOTH",
"181 408 OFFCURVE",
"120 377 OFFCURVE",
"86 327 CURVE",
"143 287 LINE",
"165 319 OFFCURVE",
"200 338 OFFCURVE",
"243 338 CURVE SMOOTH",
"270 338 OFFCURVE",
"293 326 OFFCURVE",
"318 313 CURVE SMOOTH",
"347 298 OFFCURVE",
"378 282 OFFCURVE",
"419 282 CURVE SMOOTH",
"479 282 OFFCURVE",
"540 314 OFFCURVE",
"574 363 CURVE",
"517 403 LINE"
);
}
);
width = 620;
}
);
unicode = 007E;
},
{
glyphname = asciicircum;
lastChange = "2019-03-05 07:16:16 +0000";
layers = (
{
layerId = "E82D559A-267E-4BF3-BBA1-0778DA3FF57C";
paths = (
{
closed = 1;
nodes = (
"240 653 LINE",
"206 653 LINE",
"350 423 LINE",
"410 460 LINE",
"260 700 LINE",
"187 700 LINE",
"35 460 LINE",
"95 423 LINE"
);
}
);
width = 445;
},
{
layerId = "198E78DA-6138-42C0-8847-C36925CEE918";
paths = (
{
closed = 1;
nodes = (
"332 650 LINE",
"298 656 LINE",
"398 420 LINE",
"460 454 LINE",
"356 700 LINE",
"283 700 LINE",
"80 460 LINE",
"139 420 LINE"
);
}
);
width = 452;
},
{
layerId = "72FC769E-0471-4EB2-9C9D-CA7FFB11AFC9";
paths = (
{
closed = 1;
nodes = (
"271 645 LINE",
"253 645 LINE",
"436 443 LINE",
"488 490 LINE",
"299 700 LINE",
"226 700 LINE",
"35 490 LINE",
"87 443 LINE"
);
}
);
width = 523;
},
{
layerId = "B8F43E33-4D80-4AEE-B4E2-DC92E4FCAAE5";
paths = (
{
closed = 1;
nodes = (
"301 662 LINE",
"233 662 LINE",
"454 474 LINE",
"500 528 LINE",
"297 700 LINE",
"237 700 LINE",
"35 528 LINE",
"81 474 LINE"
);
}
);
width = 535;
}
);
unicode = 005E;
},
{
glyphname = percent;
lastChange = "2019-03-05 07:40:07 +0000";
layers = (
{
layerId = "E82D559A-267E-4BF3-BBA1-0778DA3FF57C";
paths = (
{
closed = 1;
nodes = (
"793 664 LINE",
"741 712 LINE",
"111 36 LINE",
"163 -13 LINE"
);
},
{
closed = 1;
nodes = (
"346 365 OFFCURVE",
"426 444 OFFCURVE",
"426 542 CURVE SMOOTH",
"426 640 OFFCURVE",
"346 720 OFFCURVE",
"248 720 CURVE SMOOTH",
"150 720 OFFCURVE",
"70 640 OFFCURVE",
"70 542 CURVE SMOOTH",
"70 444 OFFCURVE",
"150 365 OFFCURVE",
"248 365 CURVE SMOOTH"
);
},
{
closed = 1;
nodes = (
"189 435 OFFCURVE",
"141 483 OFFCURVE",
"141 542 CURVE SMOOTH",
"141 601 OFFCURVE",
"189 650 OFFCURVE",
"248 650 CURVE SMOOTH",
"307 650 OFFCURVE",
"356 601 OFFCURVE",
"356 542 CURVE SMOOTH",
"356 483 OFFCURVE",
"307 435 OFFCURVE",
"248 435 CURVE SMOOTH"
);
},
{
closed = 1;
nodes = (
"753 -20 OFFCURVE",
"833 59 OFFCURVE",
"833 157 CURVE SMOOTH",
"833 255 OFFCURVE",
"753 335 OFFCURVE",
"655 335 CURVE SMOOTH",
"557 335 OFFCURVE",
"477 255 OFFCURVE",
"477 157 CURVE SMOOTH",
"477 59 OFFCURVE",
"557 -20 OFFCURVE",
"655 -20 CURVE SMOOTH"
);
},
{
closed = 1;
nodes = (
"596 50 OFFCURVE",
"548 98 OFFCURVE",
"548 157 CURVE SMOOTH",
"548 216 OFFCURVE",
"596 265 OFFCURVE",
"655 265 CURVE SMOOTH",
"714 265 OFFCURVE",
"763 216 OFFCURVE",
"763 157 CURVE SMOOTH",
"763 98 OFFCURVE",
"714 50 OFFCURVE",
"655 50 CURVE SMOOTH"
);
}
);
width = 903;
},
{
layerId = "198E78DA-6138-42C0-8847-C36925CEE918";
paths = (
{
closed = 1;
nodes = (
"874 565 LINE",
"836 625 LINE",
"52 135 LINE",
"90 74 LINE"
);
},
{
closed = 1;
nodes = (
"376 391 OFFCURVE",
"473 470 OFFCURVE",
"494 568 CURVE SMOOTH",
"515 666 OFFCURVE",
"452 746 OFFCURVE",
"354 746 CURVE SMOOTH",
"256 746 OFFCURVE",
"159 666 OFFCURVE",
"138 568 CURVE SMOOTH",
"117 470 OFFCURVE",
"180 391 OFFCURVE",
"278 391 CURVE SMOOTH"
);
},
{
closed = 1;
nodes = (
"234 461 OFFCURVE",
"196 509 OFFCURVE",
"209 568 CURVE SMOOTH",
"222 627 OFFCURVE",
"280 676 OFFCURVE",
"339 676 CURVE SMOOTH",
"398 676 OFFCURVE",
"436 627 OFFCURVE",
"424 568 CURVE SMOOTH",
"412 509 OFFCURVE",
"352 461 OFFCURVE",
"293 461 CURVE SMOOTH"
);
},
{
closed = 1;
nodes = (
"670 -46 OFFCURVE",
"766 33 OFFCURVE",
"787 131 CURVE SMOOTH",
"808 229 OFFCURVE",
"745 309 OFFCURVE",
"647 309 CURVE SMOOTH",
"549 309 OFFCURVE",
"452 229 OFFCURVE",
"431 131 CURVE SMOOTH",
"410 33 OFFCURVE",
"474 -46 OFFCURVE",
"572 -46 CURVE SMOOTH"
);
},
{
closed = 1;
nodes = (
"527 24 OFFCURVE",
"490 72 OFFCURVE",
"502 131 CURVE SMOOTH",
"514 190 OFFCURVE",
"573 239 OFFCURVE",
"632 239 CURVE SMOOTH",
"691 239 OFFCURVE",
"730 190 OFFCURVE",
"717 131 CURVE SMOOTH",
"704 72 OFFCURVE",
"645 24 OFFCURVE",
"586 24 CURVE SMOOTH"
);
}
);
width = 882;
},
{
layerId = "72FC769E-0471-4EB2-9C9D-CA7FFB11AFC9";
paths = (
{
closed = 1;
nodes = (
"793 664 LINE",
"741 712 LINE",
"111 36 LINE",
"163 -13 LINE"
);
},
{
closed = 1;
nodes = (
"346 365 OFFCURVE",
"426 444 OFFCURVE",
"426 542 CURVE SMOOTH",
"426 640 OFFCURVE",
"346 720 OFFCURVE",
"248 720 CURVE SMOOTH",
"150 720 OFFCURVE",
"70 640 OFFCURVE",
"70 542 CURVE SMOOTH",
"70 444 OFFCURVE",
"150 365 OFFCURVE",
"248 365 CURVE SMOOTH"
);
},
{
closed = 1;
nodes = (
"189 435 OFFCURVE",
"141 483 OFFCURVE",
"141 542 CURVE SMOOTH",
"141 601 OFFCURVE",
"189 650 OFFCURVE",
"248 650 CURVE SMOOTH",
"307 650 OFFCURVE",
"356 601 OFFCURVE",
"356 542 CURVE SMOOTH",
"356 483 OFFCURVE",
"307 435 OFFCURVE",
"248 435 CURVE SMOOTH"
);
},
{
closed = 1;
nodes = (
"753 -20 OFFCURVE",
"833 59 OFFCURVE",
"833 157 CURVE SMOOTH",
"833 255 OFFCURVE",
"753 335 OFFCURVE",
"655 335 CURVE SMOOTH",
"557 335 OFFCURVE",
"477 255 OFFCURVE",
"477 157 CURVE SMOOTH",
"477 59 OFFCURVE",
"557 -20 OFFCURVE",
"655 -20 CURVE SMOOTH"
);
},
{
closed = 1;
nodes = (
"596 50 OFFCURVE",
"548 98 OFFCURVE",
"548 157 CURVE SMOOTH",
"548 216 OFFCURVE",
"596 265 OFFCURVE",
"655 265 CURVE SMOOTH",
"714 265 OFFCURVE",
"763 216 OFFCURVE",
"763 157 CURVE SMOOTH",
"763 98 OFFCURVE",
"714 50 OFFCURVE",
"655 50 CURVE SMOOTH"
);
}
);
width = 903;
},
{
layerId = "B8F43E33-4D80-4AEE-B4E2-DC92E4FCAAE5";
paths = (
{
closed = 1;
nodes = (
"793 664 LINE",
"741 712 LINE",
"111 36 LINE",
"163 -13 LINE"
);
},
{
closed = 1;
nodes = (
"346 365 OFFCURVE",
"426 444 OFFCURVE",
"426 542 CURVE SMOOTH",
"426 640 OFFCURVE",
"346 720 OFFCURVE",
"248 720 CURVE SMOOTH",
"150 720 OFFCURVE",
"70 640 OFFCURVE",
"70 542 CURVE SMOOTH",
"70 444 OFFCURVE",
"150 365 OFFCURVE",
"248 365 CURVE SMOOTH"
);
},
{
closed = 1;
nodes = (
"189 435 OFFCURVE",
"141 483 OFFCURVE",
"141 542 CURVE SMOOTH",
"141 601 OFFCURVE",
"189 650 OFFCURVE",
"248 650 CURVE SMOOTH",
"307 650 OFFCURVE",
"356 601 OFFCURVE",
"356 542 CURVE SMOOTH",
"356 483 OFFCURVE",
"307 435 OFFCURVE",
"248 435 CURVE SMOOTH"
);
},
{
closed = 1;
nodes = (
"753 -20 OFFCURVE",
"833 59 OFFCURVE",
"833 157 CURVE SMOOTH",
"833 255 OFFCURVE",
"753 335 OFFCURVE",
"655 335 CURVE SMOOTH",
"557 335 OFFCURVE",
"477 255 OFFCURVE",
"477 157 CURVE SMOOTH",
"477 59 OFFCURVE",
"557 -20 OFFCURVE",
"655 -20 CURVE SMOOTH"
);
},
{
closed = 1;
nodes = (
"596 50 OFFCURVE",
"548 98 OFFCURVE",
"548 157 CURVE SMOOTH",
"548 216 OFFCURVE",
"596 265 OFFCURVE",
"655 265 CURVE SMOOTH",
"714 265 OFFCURVE",
"763 216 OFFCURVE",
"763 157 CURVE SMOOTH",
"763 98 OFFCURVE",
"714 50 OFFCURVE",
"655 50 CURVE SMOOTH"
);
}
);
width = 903;
}
);
unicode = 0025;
},
{
glyphname = ampersand;
lastChange = "2019-03-03 20:33:51 +0000";
layers = (
{
layerId = "72FC769E-0471-4EB2-9C9D-CA7FFB11AFC9";
paths = (
{
closed = 1;
nodes = (
"724 0 LINE",
"274 598 LINE",
"253 560 LINE",
"535 560 LINE",
"490 605 LINE",
"490 490 LINE",
"630 490 LINE",
"630 700 LINE",
"160 700 LINE",
"104 591 LINE",
"550 0 LINE"
);
},
{
closed = 1;
nodes = (
"402 0 LINE",
"732 248 LINE",
"648 359 LINE",
"356 140 LINE",
"175 140 LINE",
"220 95 LINE",
"220 325 LINE",
"175 280 LINE",
"350 280 LINE",
"350 420 LINE",
"172 420 LINE",
"70 318 LINE",
"70 70 LINE",
"210 0 LINE"
);
}
);
width = 767;
},
{
hints = (
{
horizontal = 1;
origin = "{1, 13}";
target = "{1, 4}";
type = Stem;
},
{
horizontal = 1;
origin = "{1, 7}";
target = "{1, 10}";
type = Stem;
},
{
horizontal = 1;
origin = "{0, 2}";
target = "{0, 8}";
type = Stem;
},
{
origin = "{1, 12}";
target = "{1, 5}";
type = Stem;
},
{
origin = "{0, 5}";
target = "{0, 6}";
type = Stem;
}
);
layerId = "E82D559A-267E-4BF3-BBA1-0778DA3FF57C";
paths = (
{
closed = 1;
nodes = (
"609 0 LINE",
"274 598 LINE",
"253 560 LINE",
"460 560 LINE",
"415 605 LINE",
"415 490 LINE",
"555 490 LINE",
"555 700 LINE",
"160 700 LINE",
"104 591 LINE",
"435 0 LINE"
);
},
{
closed = 1;
nodes = (
"332 0 LINE",
"639 182 LINE",
"569 304 LINE",
"284 140 LINE",
"175 140 LINE",
"220 95 LINE",
"220 305 LINE",
"175 260 LINE",
"350 260 LINE",
"350 400 LINE",
"172 400 LINE",
"70 298 LINE",
"70 70 LINE",
"210 0 LINE"
);
}
);
width = 644;
},
{
associatedMasterId = "72FC769E-0471-4EB2-9C9D-CA7FFB11AFC9";
layerId = "26724774-F27D-4AF7-90A0-933BB7C1BE55";
width = 600;
},
{
layerId = "B8F43E33-4D80-4AEE-B4E2-DC92E4FCAAE5";
paths = (
{
closed = 1;
nodes = (
"864 0 LINE",
"274 598 LINE",
"253 560 LINE",
"645 560 LINE",
"600 605 LINE",
"600 490 LINE",
"740 490 LINE",
"740 700 LINE",
"180 700 LINE",
"110 565 LINE",
"667 0 LINE"
);
},
{
closed = 1;
nodes = (
"528 0 LINE",
"816 288 LINE",
"717 387 LINE",
"470 140 LINE",
"175 140 LINE",
"220 95 LINE",
"220 355 LINE",
"175 310 LINE",
"380 310 LINE",
"380 450 LINE",
"172 450 LINE",
"70 348 LINE",
"70 70 LINE",
"210 0 LINE"
);
}
);
width = 899;
},
{
layerId = "198E78DA-6138-42C0-8847-C36925CEE918";
paths = (
{
closed = 1;
nodes = (
"656 0 LINE",
"333 619 LINE",
"308 560 LINE",
"538 560 LINE",
"503 605 LINE",
"479 490 LINE",
"619 490 LINE",
"664 700 LINE",
"268 700 LINE",
"190 591 LINE",
"493 0 LINE"
);
},
{
closed = 1;
nodes = (
"302 0 LINE",
"685 237 LINE",
"611 356 LINE",
"262 140 LINE",
"166 140 LINE",
"201 95 LINE",
"244 305 LINE",
"189 260 LINE",
"395 260 LINE",
"395 400 LINE",
"216 400 LINE",
"92 298 LINE",
"45 70 LINE",
"171 0 LINE"
);
}
);
width = 691;
}
);
unicode = 0026;
},
{
glyphname = paragraph;
lastChange = "2019-03-03 21:57:41 +0000";
layers = (
{
hints = (
{
horizontal = 1;
origin = "{0, 3}";
target = "{0, 2}";
type = Stem;
},
{
horizontal = 1;
origin = "{0, 5}";
target = "{0, 4}";
type = Stem;
}
);
layerId = "198E78DA-6138-42C0-8847-C36925CEE918";
paths = (
{
closed = 1;
nodes = (
"463 0 LINE",
"612 700 LINE",
"306 700 LINE",
"151 630 LINE",
"93 350 LINE",
"218 280 LINE",
"453 280 LINE",
"393 0 LINE"
);
},
{
closed = 1;
nodes = (
"603 0 LINE",
"752 700 LINE",
"682 700 LINE",
"533 0 LINE"
);
}
);
width = 726;
},
{
hints = (
{
origin = "{0, 7}";
target = "{0, 0}";
type = Stem;
},
{
origin = "{1, 3}";
target = "{1, 0}";
type = Stem;
},
{
horizontal = 1;
origin = "{0, 3}";
target = "{0, 2}";
type = Stem;
},
{
horizontal = 1;
origin = "{0, 5}";
target = "{0, 4}";
type = Stem;
},
{
origin = "{0, 4}";
target = "{0, 5}";
type = Stem;
}
);
layerId = "E82D559A-267E-4BF3-BBA1-0778DA3FF57C";
paths = (
{
closed = 1;
nodes = (
"515 0 LINE",
"515 700 LINE",
"210 700 LINE",
"70 630 LINE",
"70 350 LINE",
"210 280 LINE",
"445 280 LINE",
"445 0 LINE"
);
},
{
closed = 1;
nodes = (
"655 0 LINE",
"655 700 LINE",
"585 700 LINE",
"585 0 LINE"
);
}
);
width = 725;
},
{
hints = (
{
origin = "{0, 7}";
target = "{0, 0}";
type = Stem;
},
{
origin = "{1, 3}";
target = "{1, 0}";
type = Stem;
},
{
horizontal = 1;
origin = "{0, 5}";
target = "{0, 4}";
type = Stem;
},
{
horizontal = 1;
origin = "{0, 3}";
target = "{0, 2}";
type = Stem;
},
{
origin = "{0, 3}";
target = "{0, 2}";
type = Stem;
}
);
layerId = "72FC769E-0471-4EB2-9C9D-CA7FFB11AFC9";
paths = (
{
closed = 1;
nodes = (
"515 0 LINE",
"515 700 LINE",
"210 700 LINE",
"70 630 LINE",
"70 350 LINE",
"210 280 LINE",
"445 280 LINE",
"445 0 LINE"
);
},
{
closed = 1;
nodes = (
"655 0 LINE",
"655 700 LINE",
"585 700 LINE",
"585 0 LINE"
);
}
);
width = 725;
},
{
hints = (
{
origin = "{0, 7}";
target = "{0, 0}";
type = Stem;
},
{
origin = "{1, 3}";
target = "{1, 0}";
type = Stem;
},
{
horizontal = 1;
origin = "{0, 3}";
target = "{0, 2}";
type = Stem;
},
{
origin = "{0, 3}";
target = "{0, 2}";
type = Stem;
},
{
horizontal = 1;
origin = "{0, 5}";
target = "{0, 4}";
type = Stem;
}
);
layerId = "B8F43E33-4D80-4AEE-B4E2-DC92E4FCAAE5";
paths = (
{
closed = 1;
nodes = (
"515 0 LINE",
"515 700 LINE",
"210 700 LINE",
"70 630 LINE",
"70 350 LINE",
"210 280 LINE",
"445 280 LINE",
"445 0 LINE"
);
},
{
closed = 1;
nodes = (
"655 0 LINE",
"655 700 LINE",
"585 700 LINE",
"585 0 LINE"
);
}
);
width = 725;
}
);
unicode = 00B6;
},
{
glyphname = bar;
lastChange = "2019-03-04 05:57:03 +0000";
layers = (
{
layerId = "E82D559A-267E-4BF3-BBA1-0778DA3FF57C";
paths = (
{
closed = 1;
nodes = (
"140 -150 LINE",
"140 850 LINE",
"70 850 LINE",
"70 -150 LINE"
);
}
);
width = 210;
},
{
layerId = "72FC769E-0471-4EB2-9C9D-CA7FFB11AFC9";
paths = (
{
closed = 1;
nodes = (
"140 -150 LINE",
"140 850 LINE",
"70 850 LINE",
"70 -150 LINE"
);
}
);
width = 210;
},
{
layerId = "B8F43E33-4D80-4AEE-B4E2-DC92E4FCAAE5";
paths = (
{
closed = 1;
nodes = (
"140 -150 LINE",
"140 850 LINE",
"70 850 LINE",
"70 -150 LINE"
);
}
);
width = 210;
},
{
layerId = "198E78DA-6138-42C0-8847-C36925CEE918";
paths = (
{
closed = 1;
nodes = (
"56 -150 LINE",
"268 850 LINE",
"198 850 LINE",
"-14 -150 LINE"
);
}
);
width = 211;
}
);
unicode = 007C;
},
{
glyphname = ampersand.ss01;
lastChange = "2019-03-03 20:46:52 +0000";
layers = (
{
layerId = "72FC769E-0471-4EB2-9C9D-CA7FFB11AFC9";
paths = (
{
closed = 1;
nodes = (
"700 0 LINE",
"700 350 LINE",
"560 350 LINE",
"560 95 LINE",
"605 140 LINE",
"175 140 LINE",
"220 95 LINE",
"220 325 LINE",
"175 280 LINE",
"770 280 LINE",
"770 420 LINE",
"175 420 LINE",
"220 375 LINE",
"220 605 LINE",
"175 560 LINE",
"630 560 LINE",
"630 700 LINE",
"210 700 LINE",
"70 630 LINE",
"70 420 LINE",
"172 318 LINE",
"172 382 LINE",
"70 280 LINE",
"70 70 LINE",
"210 0 LINE"
);
}
);
width = 840;
},
{
hints = (
{
horizontal = 1;
origin = "{0, 24}";
target = "{0, 5}";
type = Stem;
},
{
horizontal = 1;
origin = "{0, 22}";
target = "{0, 19}";
type = Stem;
},
{
horizontal = 1;
origin = "{0, 14}";
target = "{0, 17}";
type = Stem;
},
{
origin = "{0, 23}";
target = "{0, 6}";
type = Stem;
},
{
origin = "{0, 3}";
target = "{0, 0}";
type = Stem;
}
);
layerId = "E82D559A-267E-4BF3-BBA1-0778DA3FF57C";
paths = (
{
closed = 1;
nodes = (
"595 0 LINE",
"595 350 LINE",
"455 350 LINE",
"455 95 LINE",
"500 140 LINE",
"175 140 LINE",
"220 95 LINE",
"220 325 LINE",
"175 280 LINE",
"665 280 LINE",
"665 420 LINE",
"175 420 LINE",
"220 375 LINE",
"220 605 LINE",
"175 560 LINE",
"525 560 LINE",
"525 700 LINE",
"210 700 LINE",
"70 630 LINE",
"70 420 LINE",
"172 318 LINE",
"172 382 LINE",
"70 280 LINE",
"70 70 LINE",
"210 0 LINE"
);
}
);
width = 735;
},
{
associatedMasterId = "72FC769E-0471-4EB2-9C9D-CA7FFB11AFC9";
layerId = "26724774-F27D-4AF7-90A0-933BB7C1BE55";
width = 600;
},
{
layerId = "B8F43E33-4D80-4AEE-B4E2-DC92E4FCAAE5";
paths = (
{
closed = 1;
nodes = (
"857.5 0 LINE",
"857.5 350 LINE",
"717.5 350 LINE",
"717.5 95 LINE",
"762.5 140 LINE",
"175 140 LINE",
"220 95 LINE",
"220 325 LINE",
"175 280 LINE",
"927.5 280 LINE",
"927.5 420 LINE",
"175 420 LINE",
"220 375 LINE",
"220 605 LINE",
"175 560 LINE",
"787.5 560 LINE",
"787.5 700 LINE",
"210 700 LINE",
"70 630 LINE",
"70 420 LINE",
"172 318 LINE",
"172 382 LINE",
"70 280 LINE",
"70 70 LINE",
"210 0 LINE"
);
}
);
width = 997.5;
},
{
layerId = "198E78DA-6138-42C0-8847-C36925CEE918";
paths = (
{
closed = 1;
nodes = (
"595 0 LINE",
"669 350 LINE",
"529 350 LINE",
"476 95 LINE",
"531 140 LINE",
"206 140 LINE",
"241 95 LINE",
"288 325 LINE",
"233 280 LINE",
"725 280 LINE",
"754 420 LINE",
"265 420 LINE",
"301 375 LINE",
"348 605 LINE",
"293 560 LINE",
"644 560 LINE",
"674 700 LINE",
"358 700 LINE",
"203 630 LINE",
"160 420 LINE",
"241 318 LINE",
"252 382 LINE",
"128 280 LINE",
"85 70 LINE",
"211 0 LINE"
);
}
);
width = 735;
}
);
},
{
glyphname = commaaccentcomb;
lastChange = "2019-03-03 21:29:54 +0000";
layers = (
{
anchors = (
{
name = _after;
position = "{53, -70}";
},
{
name = _below;
position = "{56, 0}";
}
);
layerId = "72FC769E-0471-4EB2-9C9D-CA7FFB11AFC9";
paths = (
{
closed = 1;
nodes = (
"112 -210 LINE",
"112 -70 LINE",
"0 -70 LINE",
"0 -182 LINE",
"56 -182 LINE",
"0 -224 LINE",
"34 -268 LINE"
);
}
);
width = 112;
},
{
anchors = (
{
name = _after;
position = "{53, -70}";
},
{
name = _below;
position = "{56, 0}";
}
);
layerId = "E82D559A-267E-4BF3-BBA1-0778DA3FF57C";
paths = (
{
closed = 1;
nodes = (
"112 -210 LINE",
"112 -70 LINE",
"0 -70 LINE",
"0 -182 LINE",
"56 -182 LINE",
"0 -224 LINE",
"34 -268 LINE"
);
}
);
width = 112;
},
{
associatedMasterId = "72FC769E-0471-4EB2-9C9D-CA7FFB11AFC9";
layerId = "26724774-F27D-4AF7-90A0-933BB7C1BE55";
width = 600;
},
{
anchors = (
{
name = _after;
position = "{53, -70}";
},
{
name = _below;
position = "{56, 0}";
}
);
layerId = "B8F43E33-4D80-4AEE-B4E2-DC92E4FCAAE5";
paths = (
{
closed = 1;
nodes = (
"112 -210 LINE",
"112 -70 LINE",
"0 -70 LINE",
"0 -182 LINE",
"56 -182 LINE",
"0 -224 LINE",
"34 -268 LINE"
);
}
);
width = 112;
},
{
anchors = (
{
name = _after;
position = "{-8, -70}";
},
{
name = _below;
position = "{8, 0}";
}
);
layerId = "198E78DA-6138-42C0-8847-C36925CEE918";
paths = (
{
closed = 1;
nodes = (
"15 -210 LINE",
"44 -70 LINE",
"-68 -70 LINE",
"-92 -182 LINE",
"-37 -182 LINE",
"-100 -224 LINE",
"-74 -268 LINE"
);
}
);
width = 113;
}
);
unicode = 0326;
},
{
glyphname = acute;
lastChange = "2019-03-03 04:59:47 +0000";
layers = (
{
anchors = (
{
name = _above;
position = "{41, 910}";
}
);
layerId = "72FC769E-0471-4EB2-9C9D-CA7FFB11AFC9";
paths = (
{
closed = 1;
nodes = (
"0 840 LINE",
"80 840 LINE",
"210 1120 LINE",
"130 1120 LINE"
);
}
);
width = 210;
},
{
anchors = (
{
name = _above;
position = "{41, 910}";
}
);
layerId = "E82D559A-267E-4BF3-BBA1-0778DA3FF57C";
paths = (
{
closed = 1;
nodes = (
"0 840 LINE",
"80 840 LINE",
"210 1120 LINE",
"130 1120 LINE"
);
}
);
width = 210;
},
{
associatedMasterId = "72FC769E-0471-4EB2-9C9D-CA7FFB11AFC9";
layerId = "26724774-F27D-4AF7-90A0-933BB7C1BE55";
width = 600;
},
{
anchors = (
{
name = _above;
position = "{41, 910}";
}
);
layerId = "B8F43E33-4D80-4AEE-B4E2-DC92E4FCAAE5";
paths = (
{
closed = 1;
nodes = (
"0 840 LINE",
"80 840 LINE",
"210 1120 LINE",
"130 1120 LINE"
);
}
);
width = 210;
},
{
anchors = (
{
name = _above;
position = "{234, 910}";
}
);
layerId = "198E78DA-6138-42C0-8847-C36925CEE918";
paths = (
{
closed = 1;
nodes = (
"178 840 LINE",
"260 840 LINE",
"449 1120 LINE",
"367 1120 LINE"
);
}
);
width = 210;
}
);
unicode = 00B4;
},
{
glyphname = breve;
lastChange = "2019-03-04 00:24:54 +0000";
layers = (
{
anchors = (
{
name = _above;
position = "{195, 875}";
}
);
layerId = "72FC769E-0471-4EB2-9C9D-CA7FFB11AFC9";
paths = (
{
closed = 1;
nodes = (
"302 767 OFFCURVE",
"390 855 OFFCURVE",
"390 962 CURVE",
"320 962 LINE",
"320 893 OFFCURVE",
"264 837 OFFCURVE",
"195 837 CURVE SMOOTH",
"126 837 OFFCURVE",
"70 893 OFFCURVE",
"70 962 CURVE",
"0 962 LINE",
"0 855 OFFCURVE",
"88 767 OFFCURVE",
"195 767 CURVE SMOOTH"
);
}
);
width = 390;
},
{
anchors = (
{
name = _above;
position = "{195, 875}";
}
);
layerId = "E82D559A-267E-4BF3-BBA1-0778DA3FF57C";
paths = (
{
closed = 1;
nodes = (
"302 767 OFFCURVE",
"390 855 OFFCURVE",
"390 962 CURVE",
"320 962 LINE",
"320 893 OFFCURVE",
"264 837 OFFCURVE",
"195 837 CURVE SMOOTH",
"126 837 OFFCURVE",
"70 893 OFFCURVE",
"70 962 CURVE",
"0 962 LINE",
"0 855 OFFCURVE",
"88 767 OFFCURVE",
"195 767 CURVE SMOOTH"
);
}
);
width = 390;
},
{
associatedMasterId = "72FC769E-0471-4EB2-9C9D-CA7FFB11AFC9";
layerId = "26724774-F27D-4AF7-90A0-933BB7C1BE55";
width = 600;
},
{
anchors = (
{
name = _above;
position = "{195, 875}";
}
);
layerId = "B8F43E33-4D80-4AEE-B4E2-DC92E4FCAAE5";
paths = (
{
closed = 1;
nodes = (
"302 767 OFFCURVE",
"390 855 OFFCURVE",
"390 962 CURVE",
"320 962 LINE",
"320 893 OFFCURVE",
"264 837 OFFCURVE",
"195 837 CURVE SMOOTH",
"126 837 OFFCURVE",
"70 893 OFFCURVE",
"70 962 CURVE",
"0 962 LINE",
"0 855 OFFCURVE",
"88 767 OFFCURVE",
"195 767 CURVE SMOOTH"
);
}
);
width = 390;
},
{
anchors = (
{
name = _above;
position = "{381, 875}";
}
);
layerId = "198E78DA-6138-42C0-8847-C36925CEE918";
paths = (
{
closed = 1;
nodes = (
"468 767 OFFCURVE",
"569 843 OFFCURVE",
"591 959 CURVE",
"521 959 LINE",
"506 896 OFFCURVE",
"439 836 OFFCURVE",
"375 836 CURVE SMOOTH",
"301 836 OFFCURVE",
"260 890 OFFCURVE",
"275 959 CURVE",
"205 959 LINE",
"179 846 OFFCURVE",
"260 768 OFFCURVE",
"364 767 CURVE SMOOTH"
);
}
);
width = 390;
}
);
unicode = 02D8;
},
{
glyphname = caron;
lastChange = "2019-03-03 04:59:47 +0000";
layers = (
{
anchors = (
{
name = _above;
position = "{233, 845}";
}
);
layerId = "72FC769E-0471-4EB2-9C9D-CA7FFB11AFC9";
paths = (
{
closed = 1;
nodes = (
"0 924 LINE",
"202 752 LINE",
"262 752 LINE",
"465 924 LINE",
"419 978 LINE",
"198 790 LINE",
"266 790 LINE",
"46 978 LINE"
);
}
);
width = 465;
},
{
anchors = (
{
name = _above;
position = "{233, 845}";
}
);
layerId = "E82D559A-267E-4BF3-BBA1-0778DA3FF57C";
paths = (
{
closed = 1;
nodes = (
"0 924 LINE",
"202 752 LINE",
"262 752 LINE",
"465 924 LINE",
"419 978 LINE",
"198 790 LINE",
"266 790 LINE",
"46 978 LINE"
);
}
);
width = 600;
},
{
associatedMasterId = "72FC769E-0471-4EB2-9C9D-CA7FFB11AFC9";
layerId = "26724774-F27D-4AF7-90A0-933BB7C1BE55";
width = 600;
},
{
anchors = (
{
name = _above;
position = "{233, 845}";
}
);
layerId = "B8F43E33-4D80-4AEE-B4E2-DC92E4FCAAE5";
paths = (
{
closed = 1;
nodes = (
"0 924 LINE",
"202 752 LINE",
"262 752 LINE",
"465 924 LINE",
"419 978 LINE",
"198 790 LINE",
"266 790 LINE",
"46 978 LINE"
);
}
);
width = 262.5;
},
{
anchors = (
{
name = _above;
position = "{413, 845}";
}
);
layerId = "198E78DA-6138-42C0-8847-C36925CEE918";
paths = (
{
closed = 1;
nodes = (
"196 924 LINE",
"363 752 LINE",
"423 752 LINE",
"661 924 LINE",
"625 978 LINE",
"365 790 LINE",
"433 790 LINE",
"252 978 LINE"
);
}
);
width = 600;
}
);
unicode = 02C7;
},
{
glyphname = cedilla;
lastChange = "2019-03-03 04:59:47 +0000";
layers = (
{
anchors = (
{
name = _below;
position = "{113, 0}";
}
);
layerId = "72FC769E-0471-4EB2-9C9D-CA7FFB11AFC9";
paths = (
{
closed = 1;
nodes = (
"70 -250 LINE SMOOTH",
"194 -250 OFFCURVE",
"241 -186 OFFCURVE",
"241 -127 CURVE SMOOTH",
"241 -77 OFFCURVE",
"208 -32 OFFCURVE",
"158 -32 CURVE SMOOTH",
"138 -32 LINE",
"149 0 LINE",
"79 0 LINE",
"52 -75 LINE",
"122 -75 LINE SMOOTH",
"152 -75 OFFCURVE",
"167 -95 OFFCURVE",
"167 -117 CURVE SMOOTH",
"167 -146 OFFCURVE",
"141 -180 OFFCURVE",
"85 -180 CURVE SMOOTH",
"0 -180 LINE",
"0 -250 LINE"
);
}
);
width = 241;
},
{
anchors = (
{
name = _below;
position = "{414, 0}";
}
);
layerId = "E82D559A-267E-4BF3-BBA1-0778DA3FF57C";
paths = (
{
closed = 1;
nodes = (
"371 -250 LINE SMOOTH",
"495 -250 OFFCURVE",
"542 -186 OFFCURVE",
"542 -127 CURVE SMOOTH",
"542 -77 OFFCURVE",
"509 -32 OFFCURVE",
"459 -32 CURVE SMOOTH",
"439 -32 LINE",
"450 0 LINE",
"380 0 LINE",
"353 -75 LINE",
"423 -75 LINE SMOOTH",
"453 -75 OFFCURVE",
"468 -95 OFFCURVE",
"468 -117 CURVE SMOOTH",
"468 -146 OFFCURVE",
"442 -180 OFFCURVE",
"386 -180 CURVE SMOOTH",
"301 -180 LINE",
"301 -250 LINE"
);
}
);
width = 600;
},
{
associatedMasterId = "72FC769E-0471-4EB2-9C9D-CA7FFB11AFC9";
layerId = "26724774-F27D-4AF7-90A0-933BB7C1BE55";
width = 600;
},
{
anchors = (
{
name = _below;
position = "{-338.5, 0}";
}
);
layerId = "B8F43E33-4D80-4AEE-B4E2-DC92E4FCAAE5";
paths = (
{
closed = 1;
nodes = (
"-381.5 -250 LINE SMOOTH",
"-257.5 -250 OFFCURVE",
"-210.5 -186 OFFCURVE",
"-210.5 -127 CURVE SMOOTH",
"-210.5 -77 OFFCURVE",
"-243.5 -32 OFFCURVE",
"-293.5 -32 CURVE SMOOTH",
"-313.5 -32 LINE",
"-302.5 0 LINE",
"-372.5 0 LINE",
"-399.5 -75 LINE",
"-329.5 -75 LINE SMOOTH",
"-299.5 -75 OFFCURVE",
"-284.5 -95 OFFCURVE",
"-284.5 -117 CURVE SMOOTH",
"-284.5 -146 OFFCURVE",
"-310.5 -180 OFFCURVE",
"-366.5 -180 CURVE SMOOTH",
"-451.5 -180 LINE",
"-451.5 -250 LINE"
);
}
);
width = 0;
},
{
anchors = (
{
name = _below;
position = "{414, 0}";
}
);
layerId = "198E78DA-6138-42C0-8847-C36925CEE918";
paths = (
{
closed = 1;
nodes = (
"321 -250 LINE SMOOTH",
"445 -250 OFFCURVE",
"502 -189 OFFCURVE",
"514 -133 CURVE SMOOTH",
"525 -80 OFFCURVE",
"499 -32 OFFCURVE",
"449 -32 CURVE SMOOTH",
"433 -32 LINE",
"451 0 LINE",
"379 0 LINE",
"336 -75 LINE",
"410 -75 LINE SMOOTH",
"440 -75 OFFCURVE",
"448 -92 OFFCURVE",
"444 -111 CURVE SMOOTH",
"438 -143 OFFCURVE",
"401 -180 OFFCURVE",
"345 -180 CURVE SMOOTH",
"263 -180 LINE",
"248 -250 LINE"
);
}
);
width = 600;
}
);
unicode = 00B8;
},
{
glyphname = circumflex;
lastChange = "2019-03-03 04:59:47 +0000";
layers = (
{
anchors = (
{
name = _above;
position = "{233, 865}";
}
);
layerId = "72FC769E-0471-4EB2-9C9D-CA7FFB11AFC9";
paths = (
{
closed = 1;
nodes = (
"266 942 LINE",
"198 942 LINE",
"419 754 LINE",
"465 808 LINE",
"262 980 LINE",
"202 980 LINE",
"0 808 LINE",
"46 754 LINE"
);
}
);
width = 465;
},
{
anchors = (
{
name = _above;
position = "{233, 865}";
}
);
layerId = "E82D559A-267E-4BF3-BBA1-0778DA3FF57C";
paths = (
{
closed = 1;
nodes = (
"266 942 LINE",
"198 942 LINE",
"419 754 LINE",
"465 808 LINE",
"262 980 LINE",
"202 980 LINE",
"0 808 LINE",
"46 754 LINE"
);
}
);
width = 600;
},
{
associatedMasterId = "72FC769E-0471-4EB2-9C9D-CA7FFB11AFC9";
layerId = "26724774-F27D-4AF7-90A0-933BB7C1BE55";
width = 600;
},
{
anchors = (
{
name = _above;
position = "{233, 865}";
}
);
layerId = "B8F43E33-4D80-4AEE-B4E2-DC92E4FCAAE5";
paths = (
{
closed = 1;
nodes = (
"266 942 LINE",
"198 942 LINE",
"419 754 LINE",
"465 808 LINE",
"262 980 LINE",
"202 980 LINE",
"0 808 LINE",
"46 754 LINE"
);
}
);
width = 262.5;
},
{
anchors = (
{
name = _above;
position = "{417, 865}";
}
);
layerId = "198E78DA-6138-42C0-8847-C36925CEE918";
paths = (
{
closed = 1;
nodes = (
"467 942 LINE",
"399 942 LINE",
"581 754 LINE",
"637 808 LINE",
"469 980 LINE",
"409 980 LINE",
"172 808 LINE",
"208 754 LINE"
);
}
);
width = 600;
}
);
unicode = 02C6;
},
{
glyphname = dieresis;
lastChange = "2019-03-03 04:59:47 +0000";
layers = (
{
anchors = (
{
name = _above;
position = "{192, 875}";
}
);
layerId = "72FC769E-0471-4EB2-9C9D-CA7FFB11AFC9";
paths = (
{
closed = 1;
nodes = (
"0 805 LINE",
"140 805 LINE",
"140 945 LINE",
"0 945 LINE"
);
},
{
closed = 1;
nodes = (
"245 805 LINE",
"385 805 LINE",
"385 945 LINE",
"245 945 LINE"
);
}
);
width = 385;
},
{
anchors = (
{
name = _above;
position = "{192, 875}";
}
);
layerId = "E82D559A-267E-4BF3-BBA1-0778DA3FF57C";
paths = (
{
closed = 1;
nodes = (
"0 805 LINE",
"140 805 LINE",
"140 945 LINE",
"0 945 LINE"
);
},
{
closed = 1;
nodes = (
"245 805 LINE",
"385 805 LINE",
"385 945 LINE",
"245 945 LINE"
);
}
);
width = 600;
},
{
associatedMasterId = "72FC769E-0471-4EB2-9C9D-CA7FFB11AFC9";
layerId = "26724774-F27D-4AF7-90A0-933BB7C1BE55";
width = 600;
},
{
anchors = (
{
name = _above;
position = "{192, 875}";
}
);
layerId = "B8F43E33-4D80-4AEE-B4E2-DC92E4FCAAE5";
paths = (
{
closed = 1;
nodes = (
"0 805 LINE",
"140 805 LINE",
"140 945 LINE",
"0 945 LINE"
);
},
{
closed = 1;
nodes = (
"245 805 LINE",
"385 805 LINE",
"385 945 LINE",
"245 945 LINE"
);
}
);
width = 62.5;
},
{
anchors = (
{
name = _above;
position = "{378, 875}";
}
);
layerId = "198E78DA-6138-42C0-8847-C36925CEE918";
paths = (
{
closed = 1;
nodes = (
"171 805 LINE",
"311 805 LINE",
"341 945 LINE",
"201 945 LINE"
);
},
{
closed = 1;
nodes = (
"416 805 LINE",
"556 805 LINE",
"586 945 LINE",
"446 945 LINE"
);
}
);
width = 600;
}
);
unicode = 00A8;
},
{
glyphname = dotaccent;
lastChange = "2019-03-03 04:59:47 +0000";
layers = (
{
anchors = (
{
name = _above;
position = "{70, 875}";
}
);
layerId = "72FC769E-0471-4EB2-9C9D-CA7FFB11AFC9";
paths = (
{
closed = 1;
nodes = (
"140 805 LINE",
"140 945 LINE",
"0 945 LINE",
"0 805 LINE"
);
}
);
width = 140;
},
{
anchors = (
{
name = _above;
position = "{70, 875}";
}
);
layerId = "E82D559A-267E-4BF3-BBA1-0778DA3FF57C";
paths = (
{
closed = 1;
nodes = (
"140 805 LINE",
"140 945 LINE",
"0 945 LINE",
"0 805 LINE"
);
}
);
width = 600;
},
{
associatedMasterId = "72FC769E-0471-4EB2-9C9D-CA7FFB11AFC9";
layerId = "26724774-F27D-4AF7-90A0-933BB7C1BE55";
width = 600;
},
{
anchors = (
{
name = _above;
position = "{70, 875}";
}
);
layerId = "B8F43E33-4D80-4AEE-B4E2-DC92E4FCAAE5";
paths = (
{
closed = 1;
nodes = (
"140 805 LINE",
"140 945 LINE",
"0 945 LINE",
"0 805 LINE"
);
}
);
width = 0;
},
{
anchors = (
{
name = _above;
position = "{256, 875}";
}
);
layerId = "198E78DA-6138-42C0-8847-C36925CEE918";
paths = (
{
closed = 1;
nodes = (
"311 805 LINE",
"341 945 LINE",
"201 945 LINE",
"171 805 LINE"
);
}
);
width = 600;
}
);
unicode = 02D9;
},
{
glyphname = grave;
lastChange = "2019-03-03 04:59:47 +0000";
layers = (
{
anchors = (
{
name = _above;
position = "{169, 910}";
}
);
layerId = "72FC769E-0471-4EB2-9C9D-CA7FFB11AFC9";
paths = (
{
closed = 1;
nodes = (
"0 1120 LINE",
"130 840 LINE",
"210 840 LINE",
"80 1120 LINE"
);
}
);
width = 210;
},
{
anchors = (
{
name = _above;
position = "{119, 910}";
}
);
layerId = "E82D559A-267E-4BF3-BBA1-0778DA3FF57C";
paths = (
{
closed = 1;
nodes = (
"-50 1120 LINE",
"80 840 LINE",
"160 840 LINE",
"30 1120 LINE"
);
}
);
width = 600;
},
{
associatedMasterId = "72FC769E-0471-4EB2-9C9D-CA7FFB11AFC9";
layerId = "26724774-F27D-4AF7-90A0-933BB7C1BE55";
width = 600;
},
{
anchors = (
{
name = _above;
position = "{244, 910}";
}
);
layerId = "B8F43E33-4D80-4AEE-B4E2-DC92E4FCAAE5";
paths = (
{
closed = 1;
nodes = (
"75 1120 LINE",
"205 840 LINE",
"285 840 LINE",
"155 1120 LINE"
);
}
);
width = 0;
},
{
anchors = (
{
name = _above;
position = "{312, 910}";
}
);
layerId = "198E78DA-6138-42C0-8847-C36925CEE918";
paths = (
{
closed = 1;
nodes = (
"189 1120 LINE",
"260 840 LINE",
"338 840 LINE",
"267 1120 LINE"
);
}
);
width = 600;
}
);
unicode = 0060;
},
{
glyphname = hungarumlaut;
lastChange = "2019-03-03 04:59:47 +0000";
layers = (
{
anchors = (
{
name = _above;
position = "{146, 910}";
}
);
layerId = "72FC769E-0471-4EB2-9C9D-CA7FFB11AFC9";
paths = (
{
closed = 1;
nodes = (
"0 840 LINE",
"80 840 LINE",
"210 1120 LINE",
"130 1120 LINE"
);
},
{
closed = 1;
nodes = (
"175 840 LINE",
"255 840 LINE",
"385 1120 LINE",
"305 1120 LINE"
);
}
);
width = 385;
},
{
anchors = (
{
name = _above;
position = "{176, 910}";
}
);
layerId = "E82D559A-267E-4BF3-BBA1-0778DA3FF57C";
paths = (
{
closed = 1;
nodes = (
"30 840 LINE",
"110 840 LINE",
"240 1120 LINE",
"160 1120 LINE"
);
},
{
closed = 1;
nodes = (
"205 840 LINE",
"285 840 LINE",
"415 1120 LINE",
"335 1120 LINE"
);
}
);
width = 600;
},
{
associatedMasterId = "72FC769E-0471-4EB2-9C9D-CA7FFB11AFC9";
layerId = "26724774-F27D-4AF7-90A0-933BB7C1BE55";
width = 600;
},
{
anchors = (
{
name = _above;
position = "{101, 910}";
}
);
layerId = "B8F43E33-4D80-4AEE-B4E2-DC92E4FCAAE5";
paths = (
{
closed = 1;
nodes = (
"-45 840 LINE",
"35 840 LINE",
"165 1120 LINE",
"85 1120 LINE"
);
},
{
closed = 1;
nodes = (
"130 840 LINE",
"210 840 LINE",
"340 1120 LINE",
"260 1120 LINE"
);
}
);
width = 62.5;
},
{
anchors = (
{
name = _above;
position = "{369, 910}";
}
);
layerId = "198E78DA-6138-42C0-8847-C36925CEE918";
paths = (
{
closed = 1;
nodes = (
"208 840 LINE",
"290 840 LINE",
"479 1120 LINE",
"397 1120 LINE"
);
},
{
closed = 1;
nodes = (
"383 840 LINE",
"465 840 LINE",
"654 1120 LINE",
"572 1120 LINE"
);
}
);
width = 600;
}
);
unicode = 02DD;
},
{
glyphname = macron;
lastChange = "2019-03-03 04:59:47 +0000";
layers = (
{
anchors = (
{
name = _above;
position = "{196, 805}";
}
);
layerId = "72FC769E-0471-4EB2-9C9D-CA7FFB11AFC9";
paths = (
{
closed = 1;
nodes = (
"0 770 LINE",
"391 770 LINE",
"391 840 LINE",
"0 840 LINE"
);
}
);
width = 391;
},
{
anchors = (
{
name = _above;
position = "{196, 805}";
}
);
layerId = "E82D559A-267E-4BF3-BBA1-0778DA3FF57C";
paths = (
{
closed = 1;
nodes = (
"0 770 LINE",
"391 770 LINE",
"391 840 LINE",
"0 840 LINE"
);
}
);
width = 600;
},
{
associatedMasterId = "72FC769E-0471-4EB2-9C9D-CA7FFB11AFC9";
layerId = "26724774-F27D-4AF7-90A0-933BB7C1BE55";
width = 600;
},
{
anchors = (
{
name = _above;
position = "{196, 805}";
}
);
layerId = "B8F43E33-4D80-4AEE-B4E2-DC92E4FCAAE5";
paths = (
{
closed = 1;
nodes = (
"0 770 LINE",
"391 770 LINE",
"391 840 LINE",
"0 840 LINE"
);
}
);
width = 77.5;
},
{
anchors = (
{
name = _above;
position = "{367, 805}";
}
);
layerId = "198E78DA-6138-42C0-8847-C36925CEE918";
paths = (
{
closed = 1;
nodes = (
"164 770 LINE",
"555 770 LINE",
"570 840 LINE",
"179 840 LINE"
);
}
);
width = 600;
}
);
unicode = 00AF;
},
{
glyphname = ogonek;
lastChange = "2019-03-03 04:59:47 +0000";
layers = (
{
anchors = (
{
name = _lowerRight;
position = "{160, 0}";
}
);
layerId = "72FC769E-0471-4EB2-9C9D-CA7FFB11AFC9";
paths = (
{
closed = 1;
nodes = (
"195 -250 LINE",
"195 -180 LINE",
"160 -180 LINE SMOOTH",
"111 -180 OFFCURVE",
"70 -139 OFFCURVE",
"70 -90 CURVE SMOOTH",
"70 -41 OFFCURVE",
"111 0 OFFCURVE",
"160 0 CURVE",
"160 70 LINE",
"72 70 OFFCURVE",
"0 -2 OFFCURVE",
"0 -90 CURVE SMOOTH",
"0 -178 OFFCURVE",
"72 -250 OFFCURVE",
"160 -250 CURVE SMOOTH"
);
}
);
width = 195;
},
{
anchors = (
{
name = _lowerRight;
position = "{160, 0}";
}
);
layerId = "E82D559A-267E-4BF3-BBA1-0778DA3FF57C";
paths = (
{
closed = 1;
nodes = (
"195 -250 LINE",
"195 -180 LINE",
"160 -180 LINE SMOOTH",
"111 -180 OFFCURVE",
"70 -139 OFFCURVE",
"70 -90 CURVE SMOOTH",
"70 -41 OFFCURVE",
"111 0 OFFCURVE",
"160 0 CURVE",
"160 70 LINE",
"72 70 OFFCURVE",
"0 -2 OFFCURVE",
"0 -90 CURVE SMOOTH",
"0 -178 OFFCURVE",
"72 -250 OFFCURVE",
"160 -250 CURVE SMOOTH"
);
}
);
width = 600;
},
{
associatedMasterId = "72FC769E-0471-4EB2-9C9D-CA7FFB11AFC9";
layerId = "26724774-F27D-4AF7-90A0-933BB7C1BE55";
width = 600;
},
{
anchors = (
{
name = _lowerRight;
position = "{160, 0}";
}
);
layerId = "B8F43E33-4D80-4AEE-B4E2-DC92E4FCAAE5";
paths = (
{
closed = 1;
nodes = (
"195 -250 LINE",
"195 -180 LINE",
"160 -180 LINE SMOOTH",
"111 -180 OFFCURVE",
"70 -139 OFFCURVE",
"70 -90 CURVE SMOOTH",
"70 -41 OFFCURVE",
"111 0 OFFCURVE",
"160 0 CURVE",
"160 70 LINE",
"72 70 OFFCURVE",
"0 -2 OFFCURVE",
"0 -90 CURVE SMOOTH",
"0 -178 OFFCURVE",
"72 -250 OFFCURVE",
"160 -250 CURVE SMOOTH"
);
}
);
width = 0;
},
{
anchors = (
{
name = _lowerRight;
position = "{160, 0}";
}
);
layerId = "198E78DA-6138-42C0-8847-C36925CEE918";
paths = (
{
closed = 1;
nodes = (
"142 -250 LINE",
"157 -180 LINE",
"119 -180 LINE SMOOTH",
"70 -180 OFFCURVE",
"40 -142 OFFCURVE",
"50 -96 CURVE SMOOTH",
"61 -44 OFFCURVE",
"114 0 OFFCURVE",
"163 0 CURVE",
"172 70 LINE",
"84 70 OFFCURVE",
"0 1 OFFCURVE",
"-18 -84 CURVE SMOOTH",
"-37 -175 OFFCURVE",
"22 -250 OFFCURVE",
"110 -250 CURVE SMOOTH"
);
}
);
width = 600;
}
);
unicode = 02DB;
},
{
glyphname = ring;
lastChange = "2019-03-03 04:59:47 +0000";
layers = (
{
anchors = (
{
name = _above;
position = "{161, 875}";
}
);
layerId = "72FC769E-0471-4EB2-9C9D-CA7FFB11AFC9";
paths = (
{
closed = 1;
nodes = (
"248 767 OFFCURVE",
"320 839 OFFCURVE",
"320 927 CURVE SMOOTH",
"320 1015 OFFCURVE",
"248 1087 OFFCURVE",
"160 1087 CURVE SMOOTH",
"72 1087 OFFCURVE",
"0 1015 OFFCURVE",
"0 927 CURVE SMOOTH",
"0 839 OFFCURVE",
"72 767 OFFCURVE",
"160 767 CURVE SMOOTH"
);
},
{
closed = 1;
nodes = (
"111 837 OFFCURVE",
"70 878 OFFCURVE",
"70 927 CURVE SMOOTH",
"70 976 OFFCURVE",
"111 1017 OFFCURVE",
"160 1017 CURVE SMOOTH",
"209 1017 OFFCURVE",
"250 976 OFFCURVE",
"250 927 CURVE SMOOTH",
"250 878 OFFCURVE",
"209 837 OFFCURVE",
"160 837 CURVE SMOOTH"
);
}
);
width = 320;
},
{
anchors = (
{
name = _above;
position = "{161, 875}";
}
);
layerId = "E82D559A-267E-4BF3-BBA1-0778DA3FF57C";
paths = (
{
closed = 1;
nodes = (
"248 767 OFFCURVE",
"320 839 OFFCURVE",
"320 927 CURVE SMOOTH",
"320 1015 OFFCURVE",
"248 1087 OFFCURVE",
"160 1087 CURVE SMOOTH",
"72 1087 OFFCURVE",
"0 1015 OFFCURVE",
"0 927 CURVE SMOOTH",
"0 839 OFFCURVE",
"72 767 OFFCURVE",
"160 767 CURVE SMOOTH"
);
},
{
closed = 1;
nodes = (
"111 837 OFFCURVE",
"70 878 OFFCURVE",
"70 927 CURVE SMOOTH",
"70 976 OFFCURVE",
"111 1017 OFFCURVE",
"160 1017 CURVE SMOOTH",
"209 1017 OFFCURVE",
"250 976 OFFCURVE",
"250 927 CURVE SMOOTH",
"250 878 OFFCURVE",
"209 837 OFFCURVE",
"160 837 CURVE SMOOTH"
);
}
);
width = 600;
},
{
associatedMasterId = "72FC769E-0471-4EB2-9C9D-CA7FFB11AFC9";
layerId = "26724774-F27D-4AF7-90A0-933BB7C1BE55";
width = 600;
},
{
anchors = (
{
name = _above;
position = "{161, 875}";
}
);
layerId = "B8F43E33-4D80-4AEE-B4E2-DC92E4FCAAE5";
paths = (
{
closed = 1;
nodes = (
"248 767 OFFCURVE",
"320 839 OFFCURVE",
"320 927 CURVE SMOOTH",
"320 1015 OFFCURVE",
"248 1087 OFFCURVE",
"160 1087 CURVE SMOOTH",
"72 1087 OFFCURVE",
"0 1015 OFFCURVE",
"0 927 CURVE SMOOTH",
"0 839 OFFCURVE",
"72 767 OFFCURVE",
"160 767 CURVE SMOOTH"
);
},
{
closed = 1;
nodes = (
"111 837 OFFCURVE",
"70 878 OFFCURVE",
"70 927 CURVE SMOOTH",
"70 976 OFFCURVE",
"111 1017 OFFCURVE",
"160 1017 CURVE SMOOTH",
"209 1017 OFFCURVE",
"250 976 OFFCURVE",
"250 927 CURVE SMOOTH",
"250 878 OFFCURVE",
"209 837 OFFCURVE",
"160 837 CURVE SMOOTH"
);
}
);
width = 0;
},
{
anchors = (
{
name = _above;
position = "{347, 875}";
}
);
layerId = "198E78DA-6138-42C0-8847-C36925CEE918";
paths = (
{
closed = 1;
nodes = (
"414 767 OFFCURVE",
"498 836 OFFCURVE",
"516 921 CURVE SMOOTH",
"535 1012 OFFCURVE",
"476 1087 OFFCURVE",
"385 1087 CURVE SMOOTH",
"300 1087 OFFCURVE",
"216 1018 OFFCURVE",
"198 933 CURVE SMOOTH",
"179 842 OFFCURVE",
"238 767 OFFCURVE",
"329 767 CURVE SMOOTH"
);
},
{
closed = 1;
nodes = (
"286 837 OFFCURVE",
"256 875 OFFCURVE",
"266 921 CURVE SMOOTH",
"277 973 OFFCURVE",
"330 1017 OFFCURVE",
"382 1017 CURVE SMOOTH",
"428 1017 OFFCURVE",
"458 979 OFFCURVE",
"448 933 CURVE SMOOTH",
"437 881 OFFCURVE",
"384 837 OFFCURVE",
"332 837 CURVE SMOOTH"
);
}
);
width = 600;
}
);
unicode = 02DA;
},
